G04 EAGLE Gerber RS-274X export*
G75*
%MOMM*%
%FSLAX34Y34*%
%LPD*%
%INTop Copper*%
%IPPOS*%
%AMOC8*
5,1,8,0,0,1.08239X$1,22.5*%
G01*
%ADD10C,0.130000*%
%ADD11C,0.152400*%
%ADD12P,1.732040X8X22.500000*%
%ADD13C,1.600200*%
%ADD14C,1.320800*%
%ADD15P,1.429621X8X202.500000*%
%ADD16C,1.981200*%
%ADD17P,1.732040X8X112.500000*%
%ADD18P,1.429621X8X112.500000*%
%ADD19C,1.524000*%
%ADD20P,1.415766X8X22.500000*%
%ADD21C,1.308000*%
%ADD22C,1.676400*%
%ADD23P,1.429621X8X292.500000*%
%ADD24P,1.429621X8X22.500000*%
%ADD25P,1.649562X8X22.500000*%
%ADD26R,1.665000X1.665000*%
%ADD27C,1.665000*%
%ADD28C,4.650000*%
%ADD29C,1.016000*%
%ADD30C,0.812800*%
%ADD31C,1.270000*%


D10*
X-431800Y1096520D02*
X-519880Y1096520D01*
X-519880Y360680D02*
X-431800Y360680D01*
X-500380Y361330D02*
X-500380Y1095870D01*
X-503572Y1070520D01*
X-497188Y1070520D01*
X-500380Y1095870D01*
X-501680Y1070520D01*
X-499080Y1070520D02*
X-500380Y1095870D01*
X-502980Y1070520D01*
X-497780Y1070520D02*
X-500380Y1095870D01*
X-503572Y386680D02*
X-500380Y361330D01*
X-503572Y386680D02*
X-497188Y386680D01*
X-500380Y361330D01*
X-501680Y386680D01*
X-499080Y386680D02*
X-500380Y361330D01*
X-502980Y386680D01*
X-497780Y386680D02*
X-500380Y361330D01*
D11*
X-523157Y697452D02*
X-523157Y708299D01*
X-520445Y708299D01*
X-509599Y697452D01*
X-506887Y697452D01*
X-520445Y713824D02*
X-523157Y716535D01*
X-523157Y721959D01*
X-520445Y724670D01*
X-517734Y724670D01*
X-515022Y721959D01*
X-515022Y719247D01*
X-515022Y721959D02*
X-512310Y724670D01*
X-509599Y724670D01*
X-506887Y721959D01*
X-506887Y716535D01*
X-509599Y713824D01*
X-509599Y730195D02*
X-506887Y730195D01*
X-509599Y730195D02*
X-509599Y732907D01*
X-506887Y732907D01*
X-506887Y730195D01*
X-523157Y738381D02*
X-523157Y749228D01*
X-523157Y738381D02*
X-515022Y738381D01*
X-517734Y743804D01*
X-517734Y746516D01*
X-515022Y749228D01*
X-509599Y749228D01*
X-506887Y746516D01*
X-506887Y741093D01*
X-509599Y738381D01*
X-520445Y754752D02*
X-523157Y757464D01*
X-523157Y762887D01*
X-520445Y765599D01*
X-517734Y765599D01*
X-515022Y762887D01*
X-512310Y765599D01*
X-509599Y765599D01*
X-506887Y762887D01*
X-506887Y757464D01*
X-509599Y754752D01*
X-512310Y754752D01*
X-515022Y757464D01*
X-517734Y754752D01*
X-520445Y754752D01*
X-515022Y757464D02*
X-515022Y762887D01*
D10*
X-431800Y1096520D02*
X-431770Y1178095D01*
X520588Y1177740D02*
X520557Y1096165D01*
X519931Y1158240D02*
X-431127Y1158594D01*
X-405776Y1161777D01*
X-405778Y1155392D01*
X-431127Y1158594D01*
X-405776Y1159885D01*
X-405777Y1157285D02*
X-431127Y1158594D01*
X-405776Y1161185D01*
X-405778Y1155985D02*
X-431127Y1158594D01*
X494582Y1161442D02*
X519931Y1158240D01*
X494582Y1161442D02*
X494579Y1155057D01*
X519931Y1158240D01*
X494581Y1159550D01*
X494580Y1156950D02*
X519931Y1158240D01*
X494582Y1160850D01*
X494580Y1155650D02*
X519931Y1158240D01*
D11*
X15968Y1164936D02*
X13256Y1167648D01*
X15968Y1164936D02*
X21391Y1164936D01*
X24103Y1167648D01*
X24103Y1178494D01*
X21391Y1181206D01*
X15968Y1181206D01*
X13256Y1178494D01*
X13256Y1175783D01*
X15968Y1173071D01*
X24103Y1173071D01*
X29628Y1181206D02*
X40474Y1181206D01*
X29628Y1181206D02*
X29628Y1173071D01*
X35051Y1175783D01*
X37762Y1175783D01*
X40474Y1173071D01*
X40474Y1167648D01*
X37762Y1164936D01*
X32339Y1164936D01*
X29628Y1167648D01*
X45999Y1167648D02*
X45999Y1164936D01*
X45999Y1167648D02*
X48711Y1167648D01*
X48711Y1164936D01*
X45999Y1164936D01*
X54185Y1164936D02*
X65031Y1164936D01*
X54185Y1164936D02*
X65031Y1175783D01*
X65031Y1178494D01*
X62320Y1181206D01*
X56896Y1181206D01*
X54185Y1178494D01*
X78691Y1181206D02*
X78691Y1164936D01*
X70556Y1173071D02*
X78691Y1181206D01*
X81403Y1173071D02*
X70556Y1173071D01*
D12*
X-350520Y596900D03*
D13*
X-375920Y596900D03*
D14*
X34036Y571500D02*
X47244Y571500D01*
X47244Y596900D02*
X34036Y596900D01*
X34036Y622300D02*
X47244Y622300D01*
X47244Y647700D02*
X34036Y647700D01*
X34036Y673100D02*
X47244Y673100D01*
X47244Y698500D02*
X34036Y698500D01*
X34036Y723900D02*
X47244Y723900D01*
X47244Y749300D02*
X34036Y749300D01*
X34036Y774700D02*
X47244Y774700D01*
X47244Y800100D02*
X34036Y800100D01*
X34036Y825500D02*
X47244Y825500D01*
X47244Y850900D02*
X34036Y850900D01*
X34036Y876300D02*
X47244Y876300D01*
X47244Y901700D02*
X34036Y901700D01*
X-28956Y901700D02*
X-42164Y901700D01*
X-42164Y876300D02*
X-28956Y876300D01*
X-28956Y850900D02*
X-42164Y850900D01*
X-42164Y825500D02*
X-28956Y825500D01*
X-28956Y800100D02*
X-42164Y800100D01*
X-42164Y774700D02*
X-28956Y774700D01*
X-28956Y749300D02*
X-42164Y749300D01*
X-42164Y723900D02*
X-28956Y723900D01*
X-28956Y698500D02*
X-42164Y698500D01*
X-42164Y673100D02*
X-28956Y673100D01*
X-28956Y647700D02*
X-42164Y647700D01*
X-42164Y622300D02*
X-28956Y622300D01*
X-28956Y596900D02*
X-42164Y596900D01*
X-42164Y571500D02*
X-28956Y571500D01*
X15240Y982980D02*
X28448Y982980D01*
X28448Y1008380D02*
X15240Y1008380D01*
X-60960Y1008380D02*
X-74168Y1008380D01*
X-74168Y982980D02*
X-60960Y982980D01*
D15*
X-182880Y817880D03*
X-284480Y817880D03*
D16*
X-343154Y663956D02*
X-362966Y663956D01*
X-362966Y714248D02*
X-343154Y714248D01*
D17*
X96520Y637540D03*
D13*
X96520Y612140D03*
D18*
X-86360Y812800D03*
X-86360Y838200D03*
X-86360Y741680D03*
X-86360Y767080D03*
D19*
X112014Y450088D02*
X112014Y434848D01*
X157226Y434848D02*
X157226Y450088D01*
X112014Y499872D02*
X112014Y515112D01*
X157226Y515112D02*
X157226Y499872D01*
D20*
X-175260Y467360D03*
D21*
X-149860Y467360D03*
X-124460Y467360D03*
X-99060Y467360D03*
D22*
X-271780Y565658D02*
X-271780Y582422D01*
X-246380Y582422D02*
X-246380Y565658D01*
X-220980Y565658D02*
X-220980Y582422D01*
D19*
X149860Y596900D02*
X165100Y596900D01*
X165100Y622300D02*
X149860Y622300D01*
X111760Y1010920D02*
X111760Y1026160D01*
X137160Y1026160D02*
X137160Y1010920D01*
X411480Y1046480D02*
X411480Y1061720D01*
X386080Y1061720D02*
X386080Y1046480D01*
X360680Y1046480D02*
X360680Y1061720D01*
X335280Y1061720D02*
X335280Y1046480D01*
X309880Y1046480D02*
X309880Y1061720D01*
X284480Y1061720D02*
X284480Y1046480D01*
X259080Y1046480D02*
X259080Y1061720D01*
X233680Y1061720D02*
X233680Y1046480D01*
D23*
X142240Y802640D03*
X142240Y701040D03*
D14*
X-15240Y472440D02*
X-28448Y472440D01*
X-28448Y447040D02*
X-15240Y447040D01*
X60960Y447040D02*
X74168Y447040D01*
X74168Y472440D02*
X60960Y472440D01*
D18*
X106680Y701040D03*
X106680Y802640D03*
D24*
X-66040Y520700D03*
X35560Y520700D03*
D23*
X81280Y955040D03*
X81280Y853440D03*
D25*
X71120Y523240D03*
X165100Y944880D03*
D16*
X-345694Y530606D02*
X-365506Y530606D01*
X-365506Y480314D02*
X-345694Y480314D01*
D14*
X-284480Y511556D02*
X-284480Y524764D01*
X-284480Y448564D02*
X-284480Y435356D01*
D15*
X-182880Y863600D03*
X-284480Y863600D03*
D22*
X-125222Y949960D02*
X-108458Y949960D01*
X-108458Y975360D02*
X-125222Y975360D01*
X-125222Y1000760D02*
X-108458Y1000760D01*
D16*
X-343154Y797814D02*
X-362966Y797814D01*
X-362966Y848106D02*
X-343154Y848106D01*
D19*
X-147320Y815340D02*
X-132080Y815340D01*
X-132080Y789940D02*
X-147320Y789940D01*
X-147320Y764540D02*
X-132080Y764540D01*
X-162560Y518160D02*
X-177800Y518160D01*
X-177800Y543560D02*
X-162560Y543560D01*
X-162560Y568960D02*
X-177800Y568960D01*
D23*
X-170180Y723900D03*
X-170180Y622300D03*
D19*
X-119380Y693420D02*
X-104140Y693420D01*
X-104140Y668020D02*
X-119380Y668020D01*
X-119380Y642620D02*
X-104140Y642620D01*
X-104140Y520700D02*
X-119380Y520700D01*
X-119380Y546100D02*
X-104140Y546100D01*
X-104140Y571500D02*
X-119380Y571500D01*
X-119380Y596900D02*
X-104140Y596900D01*
D18*
X-241300Y429260D03*
X-241300Y530860D03*
D19*
X162560Y861060D02*
X177800Y861060D01*
X177800Y886460D02*
X162560Y886460D01*
X83820Y792480D02*
X68580Y792480D01*
X68580Y767080D02*
X83820Y767080D01*
X-355600Y919480D02*
X-355600Y934720D01*
X-381000Y934720D02*
X-381000Y919480D01*
D26*
X223520Y937260D03*
D27*
X223520Y911860D03*
X223520Y886460D03*
X223520Y861060D03*
X223520Y835660D03*
X223520Y810260D03*
X223520Y784860D03*
X223520Y759460D03*
X223520Y734060D03*
X223520Y708660D03*
X223520Y683260D03*
X223520Y657860D03*
X223520Y632460D03*
X223520Y607060D03*
X223520Y581660D03*
X223520Y556260D03*
X223520Y530860D03*
X223520Y505460D03*
D26*
X477520Y937260D03*
D27*
X477520Y911860D03*
X477520Y886460D03*
X477520Y861060D03*
X477520Y835660D03*
X477520Y810260D03*
X477520Y784860D03*
X477520Y759460D03*
X477520Y734060D03*
X477520Y708660D03*
X477520Y683260D03*
X477520Y657860D03*
X477520Y632460D03*
X477520Y607060D03*
X477520Y581660D03*
X477520Y556260D03*
X477520Y530860D03*
X477520Y505460D03*
D28*
X470520Y456490D03*
X230520Y456490D03*
X230520Y986490D03*
X470520Y986490D03*
D29*
X-139700Y734060D03*
D30*
X-140548Y734060D01*
X-182880Y776392D01*
X-182880Y792480D01*
D29*
X-182880Y792480D03*
D30*
X-125984Y747776D02*
X-139700Y734060D01*
X-125984Y747776D02*
X-125136Y747776D01*
X-114300Y758612D01*
X-114300Y772160D01*
D29*
X-114300Y772160D03*
X-142562Y621978D03*
D30*
X-163657Y606552D02*
X-176703Y606552D01*
X-148231Y621978D02*
X-142562Y621978D01*
X-148231Y621978D02*
X-163657Y606552D01*
X-176703Y606552D02*
X-182291Y612140D01*
X-200660Y612140D01*
D29*
X-200660Y612140D03*
X-167640Y495300D03*
D30*
X-180340Y495300D01*
X-200660Y515620D01*
X-200660Y612140D01*
D29*
X149860Y558800D03*
D30*
X132080Y541020D01*
X132080Y426720D02*
X124460Y419100D01*
X7620Y419100D01*
D29*
X7620Y419100D03*
D30*
X132080Y474980D02*
X132080Y541020D01*
X132080Y474980D02*
X132080Y426720D01*
X132080Y474980D02*
X104140Y474980D01*
X45924Y495300D02*
X38100Y495300D01*
X90932Y488188D02*
X104140Y474980D01*
X90932Y488188D02*
X53036Y488188D01*
X45924Y495300D01*
D29*
X38100Y495300D03*
D30*
X60960Y447040D02*
X107442Y447040D01*
X112014Y442468D01*
D29*
X-312420Y477520D03*
D31*
X-246380Y477520D01*
X-215900Y508000D01*
D29*
X-215900Y508000D03*
X-53340Y553720D03*
D31*
X-48260Y548640D01*
X63500Y548640D01*
X87630Y572770D01*
D29*
X87630Y572770D03*
X-73660Y683260D03*
D30*
X-57912Y699008D01*
X-57912Y908223D02*
X-41067Y925068D01*
X-57912Y908223D02*
X-57912Y699008D01*
X62992Y908223D02*
X46147Y925068D01*
X-41067Y925068D01*
X62992Y826008D02*
X73660Y815340D01*
D29*
X73660Y815340D03*
D30*
X62992Y826008D02*
X62992Y908223D01*
D29*
X-116840Y393700D03*
D31*
X-401320Y467360D02*
X-401320Y642620D01*
X-379984Y663956D01*
X-353060Y663956D01*
X-327660Y393700D02*
X-116840Y393700D01*
X-327660Y393700D02*
X-401320Y467360D01*
D29*
X83820Y675640D03*
D30*
X83820Y705531D01*
D29*
X53340Y1018540D03*
D30*
X106680Y965200D01*
X106680Y875452D02*
X124460Y857672D01*
X106680Y875452D02*
X106680Y965200D01*
X124460Y857672D02*
X124460Y746171D01*
X83820Y705531D01*
D29*
X121920Y662940D03*
D30*
X127000Y657860D01*
X127000Y579120D01*
X92964Y511216D02*
X83144Y501396D01*
X92964Y545084D02*
X127000Y579120D01*
X92964Y545084D02*
X92964Y511216D01*
X83144Y501396D02*
X59944Y501396D01*
X53340Y508000D01*
D29*
X53340Y508000D03*
X127000Y944880D03*
X-63500Y662940D03*
D30*
X-87376Y635676D02*
X-99736Y623316D01*
X-123784Y623316D01*
X-136144Y635676D01*
X-87376Y639064D02*
X-63500Y662940D01*
X-87376Y639064D02*
X-87376Y635676D01*
X-136144Y635676D02*
X-136144Y651764D01*
X-150476Y666096D02*
X-150476Y673716D01*
D29*
X-150476Y673716D03*
D30*
X-150476Y666096D02*
X-136144Y651764D01*
D29*
X170180Y558800D03*
D30*
X177800Y551180D01*
X177800Y441960D01*
D29*
X177800Y441960D03*
D30*
X170180Y558800D02*
X171196Y559816D01*
X177175Y559816D01*
X196088Y578729D01*
X196088Y759460D01*
X197104Y759460D01*
D29*
X197104Y759460D03*
X162560Y802640D03*
D30*
X195580Y835660D01*
X223520Y835660D01*
D29*
X-106680Y485140D03*
D30*
X-106680Y494452D01*
X-87376Y606044D02*
X-71120Y622300D01*
X-87376Y513756D02*
X-106680Y494452D01*
X-87376Y513756D02*
X-87376Y606044D01*
D29*
X-71120Y622300D03*
D30*
X436880Y754380D02*
X436880Y966698D01*
X436880Y754380D02*
X457200Y734060D01*
X477520Y734060D01*
X360680Y1042898D02*
X360680Y1054100D01*
X360680Y1042898D02*
X436880Y966698D01*
X416560Y961761D02*
X416560Y792480D01*
X421640Y787400D01*
D29*
X421640Y787400D03*
D30*
X335280Y1043041D02*
X335280Y1054100D01*
X335280Y1043041D02*
X416560Y961761D01*
X398272Y953750D02*
X398272Y832104D01*
D29*
X398272Y832104D03*
D30*
X309880Y1042142D02*
X309880Y1054100D01*
X309880Y1042142D02*
X398272Y953750D01*
X381000Y944880D02*
X381000Y744220D01*
X345440Y708660D01*
X223520Y708660D01*
X292100Y1021080D02*
X304800Y1021080D01*
X292100Y1021080D02*
X284480Y1028700D01*
X284480Y1054100D01*
X304800Y1021080D02*
X381000Y944880D01*
X278384Y1003117D02*
X259080Y1022421D01*
X259080Y1054100D01*
X278384Y814324D02*
X276860Y812800D01*
X223520Y759460D01*
X278384Y814324D02*
X278384Y1003117D01*
D29*
X330200Y962660D03*
D30*
X330200Y777240D01*
X355600Y751840D01*
D29*
X355600Y751840D03*
D30*
X170180Y886460D02*
X170180Y914400D01*
X198120Y942340D02*
X198120Y1018540D01*
X205740Y1026160D01*
X236662Y1026160D02*
X264160Y998662D01*
X264160Y944880D01*
D29*
X264160Y944880D03*
X304800Y924560D03*
D30*
X304800Y873760D01*
X312420Y866140D01*
D29*
X312420Y866140D03*
D30*
X198120Y942340D02*
X170180Y914400D01*
X205740Y1026160D02*
X236662Y1026160D01*
D29*
X137160Y568960D03*
D30*
X139904Y568960D01*
X143968Y573024D01*
X171704Y573024D02*
X182880Y584200D01*
X171704Y573024D02*
X143968Y573024D01*
X182880Y584200D02*
X182880Y787400D01*
X205740Y810260D01*
X223520Y810260D01*
M02*
