G04 EAGLE Gerber RS-274X export*
G04 #@! %TF.Part,Single*
G04 #@! %TF.FileFunction,Profile,NP*
G04 #@! %TF.FilePolarity,Positive*
G04 #@! %TF.GenerationSoftware,Autodesk,EAGLE,9.6.2*
G04 #@! %TF.CreationDate,2022-12-06T08:18:15Z*
G75*
%MOMM*%
%FSLAX34Y34*%
%LPD*%
%IN*%
%IPPOS*%
%AMOC8*
5,1,8,0,0,1.08239X$1,22.5*%
G01*
%ADD10C,0.000000*%
%ADD11C,0.254000*%


D10*
X-431800Y360680D02*
X462480Y360680D01*
X462480Y997460D01*
X-431800Y997460D01*
X-431800Y360680D01*
X-398780Y957580D02*
X-398778Y957767D01*
X-398771Y957954D01*
X-398759Y958141D01*
X-398743Y958327D01*
X-398723Y958513D01*
X-398698Y958698D01*
X-398668Y958883D01*
X-398634Y959067D01*
X-398595Y959250D01*
X-398552Y959432D01*
X-398504Y959612D01*
X-398452Y959792D01*
X-398395Y959970D01*
X-398335Y960147D01*
X-398269Y960322D01*
X-398200Y960496D01*
X-398126Y960668D01*
X-398048Y960838D01*
X-397966Y961006D01*
X-397880Y961172D01*
X-397790Y961336D01*
X-397696Y961497D01*
X-397598Y961657D01*
X-397496Y961813D01*
X-397390Y961968D01*
X-397280Y962119D01*
X-397167Y962268D01*
X-397050Y962414D01*
X-396930Y962557D01*
X-396806Y962697D01*
X-396679Y962834D01*
X-396548Y962968D01*
X-396414Y963099D01*
X-396277Y963226D01*
X-396137Y963350D01*
X-395994Y963470D01*
X-395848Y963587D01*
X-395699Y963700D01*
X-395548Y963810D01*
X-395393Y963916D01*
X-395237Y964018D01*
X-395077Y964116D01*
X-394916Y964210D01*
X-394752Y964300D01*
X-394586Y964386D01*
X-394418Y964468D01*
X-394248Y964546D01*
X-394076Y964620D01*
X-393902Y964689D01*
X-393727Y964755D01*
X-393550Y964815D01*
X-393372Y964872D01*
X-393192Y964924D01*
X-393012Y964972D01*
X-392830Y965015D01*
X-392647Y965054D01*
X-392463Y965088D01*
X-392278Y965118D01*
X-392093Y965143D01*
X-391907Y965163D01*
X-391721Y965179D01*
X-391534Y965191D01*
X-391347Y965198D01*
X-391160Y965200D01*
X-390973Y965198D01*
X-390786Y965191D01*
X-390599Y965179D01*
X-390413Y965163D01*
X-390227Y965143D01*
X-390042Y965118D01*
X-389857Y965088D01*
X-389673Y965054D01*
X-389490Y965015D01*
X-389308Y964972D01*
X-389128Y964924D01*
X-388948Y964872D01*
X-388770Y964815D01*
X-388593Y964755D01*
X-388418Y964689D01*
X-388244Y964620D01*
X-388072Y964546D01*
X-387902Y964468D01*
X-387734Y964386D01*
X-387568Y964300D01*
X-387404Y964210D01*
X-387243Y964116D01*
X-387083Y964018D01*
X-386927Y963916D01*
X-386772Y963810D01*
X-386621Y963700D01*
X-386472Y963587D01*
X-386326Y963470D01*
X-386183Y963350D01*
X-386043Y963226D01*
X-385906Y963099D01*
X-385772Y962968D01*
X-385641Y962834D01*
X-385514Y962697D01*
X-385390Y962557D01*
X-385270Y962414D01*
X-385153Y962268D01*
X-385040Y962119D01*
X-384930Y961968D01*
X-384824Y961813D01*
X-384722Y961657D01*
X-384624Y961497D01*
X-384530Y961336D01*
X-384440Y961172D01*
X-384354Y961006D01*
X-384272Y960838D01*
X-384194Y960668D01*
X-384120Y960496D01*
X-384051Y960322D01*
X-383985Y960147D01*
X-383925Y959970D01*
X-383868Y959792D01*
X-383816Y959612D01*
X-383768Y959432D01*
X-383725Y959250D01*
X-383686Y959067D01*
X-383652Y958883D01*
X-383622Y958698D01*
X-383597Y958513D01*
X-383577Y958327D01*
X-383561Y958141D01*
X-383549Y957954D01*
X-383542Y957767D01*
X-383540Y957580D01*
X-383542Y957393D01*
X-383549Y957206D01*
X-383561Y957019D01*
X-383577Y956833D01*
X-383597Y956647D01*
X-383622Y956462D01*
X-383652Y956277D01*
X-383686Y956093D01*
X-383725Y955910D01*
X-383768Y955728D01*
X-383816Y955548D01*
X-383868Y955368D01*
X-383925Y955190D01*
X-383985Y955013D01*
X-384051Y954838D01*
X-384120Y954664D01*
X-384194Y954492D01*
X-384272Y954322D01*
X-384354Y954154D01*
X-384440Y953988D01*
X-384530Y953824D01*
X-384624Y953663D01*
X-384722Y953503D01*
X-384824Y953347D01*
X-384930Y953192D01*
X-385040Y953041D01*
X-385153Y952892D01*
X-385270Y952746D01*
X-385390Y952603D01*
X-385514Y952463D01*
X-385641Y952326D01*
X-385772Y952192D01*
X-385906Y952061D01*
X-386043Y951934D01*
X-386183Y951810D01*
X-386326Y951690D01*
X-386472Y951573D01*
X-386621Y951460D01*
X-386772Y951350D01*
X-386927Y951244D01*
X-387083Y951142D01*
X-387243Y951044D01*
X-387404Y950950D01*
X-387568Y950860D01*
X-387734Y950774D01*
X-387902Y950692D01*
X-388072Y950614D01*
X-388244Y950540D01*
X-388418Y950471D01*
X-388593Y950405D01*
X-388770Y950345D01*
X-388948Y950288D01*
X-389128Y950236D01*
X-389308Y950188D01*
X-389490Y950145D01*
X-389673Y950106D01*
X-389857Y950072D01*
X-390042Y950042D01*
X-390227Y950017D01*
X-390413Y949997D01*
X-390599Y949981D01*
X-390786Y949969D01*
X-390973Y949962D01*
X-391160Y949960D01*
X-391347Y949962D01*
X-391534Y949969D01*
X-391721Y949981D01*
X-391907Y949997D01*
X-392093Y950017D01*
X-392278Y950042D01*
X-392463Y950072D01*
X-392647Y950106D01*
X-392830Y950145D01*
X-393012Y950188D01*
X-393192Y950236D01*
X-393372Y950288D01*
X-393550Y950345D01*
X-393727Y950405D01*
X-393902Y950471D01*
X-394076Y950540D01*
X-394248Y950614D01*
X-394418Y950692D01*
X-394586Y950774D01*
X-394752Y950860D01*
X-394916Y950950D01*
X-395077Y951044D01*
X-395237Y951142D01*
X-395393Y951244D01*
X-395548Y951350D01*
X-395699Y951460D01*
X-395848Y951573D01*
X-395994Y951690D01*
X-396137Y951810D01*
X-396277Y951934D01*
X-396414Y952061D01*
X-396548Y952192D01*
X-396679Y952326D01*
X-396806Y952463D01*
X-396930Y952603D01*
X-397050Y952746D01*
X-397167Y952892D01*
X-397280Y953041D01*
X-397390Y953192D01*
X-397496Y953347D01*
X-397598Y953503D01*
X-397696Y953663D01*
X-397790Y953824D01*
X-397880Y953988D01*
X-397966Y954154D01*
X-398048Y954322D01*
X-398126Y954492D01*
X-398200Y954664D01*
X-398269Y954838D01*
X-398335Y955013D01*
X-398395Y955190D01*
X-398452Y955368D01*
X-398504Y955548D01*
X-398552Y955728D01*
X-398595Y955910D01*
X-398634Y956093D01*
X-398668Y956277D01*
X-398698Y956462D01*
X-398723Y956647D01*
X-398743Y956833D01*
X-398759Y957019D01*
X-398771Y957206D01*
X-398778Y957393D01*
X-398780Y957580D01*
X-398780Y401320D02*
X-398778Y401507D01*
X-398771Y401694D01*
X-398759Y401881D01*
X-398743Y402067D01*
X-398723Y402253D01*
X-398698Y402438D01*
X-398668Y402623D01*
X-398634Y402807D01*
X-398595Y402990D01*
X-398552Y403172D01*
X-398504Y403352D01*
X-398452Y403532D01*
X-398395Y403710D01*
X-398335Y403887D01*
X-398269Y404062D01*
X-398200Y404236D01*
X-398126Y404408D01*
X-398048Y404578D01*
X-397966Y404746D01*
X-397880Y404912D01*
X-397790Y405076D01*
X-397696Y405237D01*
X-397598Y405397D01*
X-397496Y405553D01*
X-397390Y405708D01*
X-397280Y405859D01*
X-397167Y406008D01*
X-397050Y406154D01*
X-396930Y406297D01*
X-396806Y406437D01*
X-396679Y406574D01*
X-396548Y406708D01*
X-396414Y406839D01*
X-396277Y406966D01*
X-396137Y407090D01*
X-395994Y407210D01*
X-395848Y407327D01*
X-395699Y407440D01*
X-395548Y407550D01*
X-395393Y407656D01*
X-395237Y407758D01*
X-395077Y407856D01*
X-394916Y407950D01*
X-394752Y408040D01*
X-394586Y408126D01*
X-394418Y408208D01*
X-394248Y408286D01*
X-394076Y408360D01*
X-393902Y408429D01*
X-393727Y408495D01*
X-393550Y408555D01*
X-393372Y408612D01*
X-393192Y408664D01*
X-393012Y408712D01*
X-392830Y408755D01*
X-392647Y408794D01*
X-392463Y408828D01*
X-392278Y408858D01*
X-392093Y408883D01*
X-391907Y408903D01*
X-391721Y408919D01*
X-391534Y408931D01*
X-391347Y408938D01*
X-391160Y408940D01*
X-390973Y408938D01*
X-390786Y408931D01*
X-390599Y408919D01*
X-390413Y408903D01*
X-390227Y408883D01*
X-390042Y408858D01*
X-389857Y408828D01*
X-389673Y408794D01*
X-389490Y408755D01*
X-389308Y408712D01*
X-389128Y408664D01*
X-388948Y408612D01*
X-388770Y408555D01*
X-388593Y408495D01*
X-388418Y408429D01*
X-388244Y408360D01*
X-388072Y408286D01*
X-387902Y408208D01*
X-387734Y408126D01*
X-387568Y408040D01*
X-387404Y407950D01*
X-387243Y407856D01*
X-387083Y407758D01*
X-386927Y407656D01*
X-386772Y407550D01*
X-386621Y407440D01*
X-386472Y407327D01*
X-386326Y407210D01*
X-386183Y407090D01*
X-386043Y406966D01*
X-385906Y406839D01*
X-385772Y406708D01*
X-385641Y406574D01*
X-385514Y406437D01*
X-385390Y406297D01*
X-385270Y406154D01*
X-385153Y406008D01*
X-385040Y405859D01*
X-384930Y405708D01*
X-384824Y405553D01*
X-384722Y405397D01*
X-384624Y405237D01*
X-384530Y405076D01*
X-384440Y404912D01*
X-384354Y404746D01*
X-384272Y404578D01*
X-384194Y404408D01*
X-384120Y404236D01*
X-384051Y404062D01*
X-383985Y403887D01*
X-383925Y403710D01*
X-383868Y403532D01*
X-383816Y403352D01*
X-383768Y403172D01*
X-383725Y402990D01*
X-383686Y402807D01*
X-383652Y402623D01*
X-383622Y402438D01*
X-383597Y402253D01*
X-383577Y402067D01*
X-383561Y401881D01*
X-383549Y401694D01*
X-383542Y401507D01*
X-383540Y401320D01*
X-383542Y401133D01*
X-383549Y400946D01*
X-383561Y400759D01*
X-383577Y400573D01*
X-383597Y400387D01*
X-383622Y400202D01*
X-383652Y400017D01*
X-383686Y399833D01*
X-383725Y399650D01*
X-383768Y399468D01*
X-383816Y399288D01*
X-383868Y399108D01*
X-383925Y398930D01*
X-383985Y398753D01*
X-384051Y398578D01*
X-384120Y398404D01*
X-384194Y398232D01*
X-384272Y398062D01*
X-384354Y397894D01*
X-384440Y397728D01*
X-384530Y397564D01*
X-384624Y397403D01*
X-384722Y397243D01*
X-384824Y397087D01*
X-384930Y396932D01*
X-385040Y396781D01*
X-385153Y396632D01*
X-385270Y396486D01*
X-385390Y396343D01*
X-385514Y396203D01*
X-385641Y396066D01*
X-385772Y395932D01*
X-385906Y395801D01*
X-386043Y395674D01*
X-386183Y395550D01*
X-386326Y395430D01*
X-386472Y395313D01*
X-386621Y395200D01*
X-386772Y395090D01*
X-386927Y394984D01*
X-387083Y394882D01*
X-387243Y394784D01*
X-387404Y394690D01*
X-387568Y394600D01*
X-387734Y394514D01*
X-387902Y394432D01*
X-388072Y394354D01*
X-388244Y394280D01*
X-388418Y394211D01*
X-388593Y394145D01*
X-388770Y394085D01*
X-388948Y394028D01*
X-389128Y393976D01*
X-389308Y393928D01*
X-389490Y393885D01*
X-389673Y393846D01*
X-389857Y393812D01*
X-390042Y393782D01*
X-390227Y393757D01*
X-390413Y393737D01*
X-390599Y393721D01*
X-390786Y393709D01*
X-390973Y393702D01*
X-391160Y393700D01*
X-391347Y393702D01*
X-391534Y393709D01*
X-391721Y393721D01*
X-391907Y393737D01*
X-392093Y393757D01*
X-392278Y393782D01*
X-392463Y393812D01*
X-392647Y393846D01*
X-392830Y393885D01*
X-393012Y393928D01*
X-393192Y393976D01*
X-393372Y394028D01*
X-393550Y394085D01*
X-393727Y394145D01*
X-393902Y394211D01*
X-394076Y394280D01*
X-394248Y394354D01*
X-394418Y394432D01*
X-394586Y394514D01*
X-394752Y394600D01*
X-394916Y394690D01*
X-395077Y394784D01*
X-395237Y394882D01*
X-395393Y394984D01*
X-395548Y395090D01*
X-395699Y395200D01*
X-395848Y395313D01*
X-395994Y395430D01*
X-396137Y395550D01*
X-396277Y395674D01*
X-396414Y395801D01*
X-396548Y395932D01*
X-396679Y396066D01*
X-396806Y396203D01*
X-396930Y396343D01*
X-397050Y396486D01*
X-397167Y396632D01*
X-397280Y396781D01*
X-397390Y396932D01*
X-397496Y397087D01*
X-397598Y397243D01*
X-397696Y397403D01*
X-397790Y397564D01*
X-397880Y397728D01*
X-397966Y397894D01*
X-398048Y398062D01*
X-398126Y398232D01*
X-398200Y398404D01*
X-398269Y398578D01*
X-398335Y398753D01*
X-398395Y398930D01*
X-398452Y399108D01*
X-398504Y399288D01*
X-398552Y399468D01*
X-398595Y399650D01*
X-398634Y399833D01*
X-398668Y400017D01*
X-398698Y400202D01*
X-398723Y400387D01*
X-398743Y400573D01*
X-398759Y400759D01*
X-398771Y400946D01*
X-398778Y401133D01*
X-398780Y401320D01*
X416560Y401320D02*
X416562Y401507D01*
X416569Y401694D01*
X416581Y401881D01*
X416597Y402067D01*
X416617Y402253D01*
X416642Y402438D01*
X416672Y402623D01*
X416706Y402807D01*
X416745Y402990D01*
X416788Y403172D01*
X416836Y403352D01*
X416888Y403532D01*
X416945Y403710D01*
X417005Y403887D01*
X417071Y404062D01*
X417140Y404236D01*
X417214Y404408D01*
X417292Y404578D01*
X417374Y404746D01*
X417460Y404912D01*
X417550Y405076D01*
X417644Y405237D01*
X417742Y405397D01*
X417844Y405553D01*
X417950Y405708D01*
X418060Y405859D01*
X418173Y406008D01*
X418290Y406154D01*
X418410Y406297D01*
X418534Y406437D01*
X418661Y406574D01*
X418792Y406708D01*
X418926Y406839D01*
X419063Y406966D01*
X419203Y407090D01*
X419346Y407210D01*
X419492Y407327D01*
X419641Y407440D01*
X419792Y407550D01*
X419947Y407656D01*
X420103Y407758D01*
X420263Y407856D01*
X420424Y407950D01*
X420588Y408040D01*
X420754Y408126D01*
X420922Y408208D01*
X421092Y408286D01*
X421264Y408360D01*
X421438Y408429D01*
X421613Y408495D01*
X421790Y408555D01*
X421968Y408612D01*
X422148Y408664D01*
X422328Y408712D01*
X422510Y408755D01*
X422693Y408794D01*
X422877Y408828D01*
X423062Y408858D01*
X423247Y408883D01*
X423433Y408903D01*
X423619Y408919D01*
X423806Y408931D01*
X423993Y408938D01*
X424180Y408940D01*
X424367Y408938D01*
X424554Y408931D01*
X424741Y408919D01*
X424927Y408903D01*
X425113Y408883D01*
X425298Y408858D01*
X425483Y408828D01*
X425667Y408794D01*
X425850Y408755D01*
X426032Y408712D01*
X426212Y408664D01*
X426392Y408612D01*
X426570Y408555D01*
X426747Y408495D01*
X426922Y408429D01*
X427096Y408360D01*
X427268Y408286D01*
X427438Y408208D01*
X427606Y408126D01*
X427772Y408040D01*
X427936Y407950D01*
X428097Y407856D01*
X428257Y407758D01*
X428413Y407656D01*
X428568Y407550D01*
X428719Y407440D01*
X428868Y407327D01*
X429014Y407210D01*
X429157Y407090D01*
X429297Y406966D01*
X429434Y406839D01*
X429568Y406708D01*
X429699Y406574D01*
X429826Y406437D01*
X429950Y406297D01*
X430070Y406154D01*
X430187Y406008D01*
X430300Y405859D01*
X430410Y405708D01*
X430516Y405553D01*
X430618Y405397D01*
X430716Y405237D01*
X430810Y405076D01*
X430900Y404912D01*
X430986Y404746D01*
X431068Y404578D01*
X431146Y404408D01*
X431220Y404236D01*
X431289Y404062D01*
X431355Y403887D01*
X431415Y403710D01*
X431472Y403532D01*
X431524Y403352D01*
X431572Y403172D01*
X431615Y402990D01*
X431654Y402807D01*
X431688Y402623D01*
X431718Y402438D01*
X431743Y402253D01*
X431763Y402067D01*
X431779Y401881D01*
X431791Y401694D01*
X431798Y401507D01*
X431800Y401320D01*
X431798Y401133D01*
X431791Y400946D01*
X431779Y400759D01*
X431763Y400573D01*
X431743Y400387D01*
X431718Y400202D01*
X431688Y400017D01*
X431654Y399833D01*
X431615Y399650D01*
X431572Y399468D01*
X431524Y399288D01*
X431472Y399108D01*
X431415Y398930D01*
X431355Y398753D01*
X431289Y398578D01*
X431220Y398404D01*
X431146Y398232D01*
X431068Y398062D01*
X430986Y397894D01*
X430900Y397728D01*
X430810Y397564D01*
X430716Y397403D01*
X430618Y397243D01*
X430516Y397087D01*
X430410Y396932D01*
X430300Y396781D01*
X430187Y396632D01*
X430070Y396486D01*
X429950Y396343D01*
X429826Y396203D01*
X429699Y396066D01*
X429568Y395932D01*
X429434Y395801D01*
X429297Y395674D01*
X429157Y395550D01*
X429014Y395430D01*
X428868Y395313D01*
X428719Y395200D01*
X428568Y395090D01*
X428413Y394984D01*
X428257Y394882D01*
X428097Y394784D01*
X427936Y394690D01*
X427772Y394600D01*
X427606Y394514D01*
X427438Y394432D01*
X427268Y394354D01*
X427096Y394280D01*
X426922Y394211D01*
X426747Y394145D01*
X426570Y394085D01*
X426392Y394028D01*
X426212Y393976D01*
X426032Y393928D01*
X425850Y393885D01*
X425667Y393846D01*
X425483Y393812D01*
X425298Y393782D01*
X425113Y393757D01*
X424927Y393737D01*
X424741Y393721D01*
X424554Y393709D01*
X424367Y393702D01*
X424180Y393700D01*
X423993Y393702D01*
X423806Y393709D01*
X423619Y393721D01*
X423433Y393737D01*
X423247Y393757D01*
X423062Y393782D01*
X422877Y393812D01*
X422693Y393846D01*
X422510Y393885D01*
X422328Y393928D01*
X422148Y393976D01*
X421968Y394028D01*
X421790Y394085D01*
X421613Y394145D01*
X421438Y394211D01*
X421264Y394280D01*
X421092Y394354D01*
X420922Y394432D01*
X420754Y394514D01*
X420588Y394600D01*
X420424Y394690D01*
X420263Y394784D01*
X420103Y394882D01*
X419947Y394984D01*
X419792Y395090D01*
X419641Y395200D01*
X419492Y395313D01*
X419346Y395430D01*
X419203Y395550D01*
X419063Y395674D01*
X418926Y395801D01*
X418792Y395932D01*
X418661Y396066D01*
X418534Y396203D01*
X418410Y396343D01*
X418290Y396486D01*
X418173Y396632D01*
X418060Y396781D01*
X417950Y396932D01*
X417844Y397087D01*
X417742Y397243D01*
X417644Y397403D01*
X417550Y397564D01*
X417460Y397728D01*
X417374Y397894D01*
X417292Y398062D01*
X417214Y398232D01*
X417140Y398404D01*
X417071Y398578D01*
X417005Y398753D01*
X416945Y398930D01*
X416888Y399108D01*
X416836Y399288D01*
X416788Y399468D01*
X416745Y399650D01*
X416706Y399833D01*
X416672Y400017D01*
X416642Y400202D01*
X416617Y400387D01*
X416597Y400573D01*
X416581Y400759D01*
X416569Y400946D01*
X416562Y401133D01*
X416560Y401320D01*
X416560Y960120D02*
X416562Y960307D01*
X416569Y960494D01*
X416581Y960681D01*
X416597Y960867D01*
X416617Y961053D01*
X416642Y961238D01*
X416672Y961423D01*
X416706Y961607D01*
X416745Y961790D01*
X416788Y961972D01*
X416836Y962152D01*
X416888Y962332D01*
X416945Y962510D01*
X417005Y962687D01*
X417071Y962862D01*
X417140Y963036D01*
X417214Y963208D01*
X417292Y963378D01*
X417374Y963546D01*
X417460Y963712D01*
X417550Y963876D01*
X417644Y964037D01*
X417742Y964197D01*
X417844Y964353D01*
X417950Y964508D01*
X418060Y964659D01*
X418173Y964808D01*
X418290Y964954D01*
X418410Y965097D01*
X418534Y965237D01*
X418661Y965374D01*
X418792Y965508D01*
X418926Y965639D01*
X419063Y965766D01*
X419203Y965890D01*
X419346Y966010D01*
X419492Y966127D01*
X419641Y966240D01*
X419792Y966350D01*
X419947Y966456D01*
X420103Y966558D01*
X420263Y966656D01*
X420424Y966750D01*
X420588Y966840D01*
X420754Y966926D01*
X420922Y967008D01*
X421092Y967086D01*
X421264Y967160D01*
X421438Y967229D01*
X421613Y967295D01*
X421790Y967355D01*
X421968Y967412D01*
X422148Y967464D01*
X422328Y967512D01*
X422510Y967555D01*
X422693Y967594D01*
X422877Y967628D01*
X423062Y967658D01*
X423247Y967683D01*
X423433Y967703D01*
X423619Y967719D01*
X423806Y967731D01*
X423993Y967738D01*
X424180Y967740D01*
X424367Y967738D01*
X424554Y967731D01*
X424741Y967719D01*
X424927Y967703D01*
X425113Y967683D01*
X425298Y967658D01*
X425483Y967628D01*
X425667Y967594D01*
X425850Y967555D01*
X426032Y967512D01*
X426212Y967464D01*
X426392Y967412D01*
X426570Y967355D01*
X426747Y967295D01*
X426922Y967229D01*
X427096Y967160D01*
X427268Y967086D01*
X427438Y967008D01*
X427606Y966926D01*
X427772Y966840D01*
X427936Y966750D01*
X428097Y966656D01*
X428257Y966558D01*
X428413Y966456D01*
X428568Y966350D01*
X428719Y966240D01*
X428868Y966127D01*
X429014Y966010D01*
X429157Y965890D01*
X429297Y965766D01*
X429434Y965639D01*
X429568Y965508D01*
X429699Y965374D01*
X429826Y965237D01*
X429950Y965097D01*
X430070Y964954D01*
X430187Y964808D01*
X430300Y964659D01*
X430410Y964508D01*
X430516Y964353D01*
X430618Y964197D01*
X430716Y964037D01*
X430810Y963876D01*
X430900Y963712D01*
X430986Y963546D01*
X431068Y963378D01*
X431146Y963208D01*
X431220Y963036D01*
X431289Y962862D01*
X431355Y962687D01*
X431415Y962510D01*
X431472Y962332D01*
X431524Y962152D01*
X431572Y961972D01*
X431615Y961790D01*
X431654Y961607D01*
X431688Y961423D01*
X431718Y961238D01*
X431743Y961053D01*
X431763Y960867D01*
X431779Y960681D01*
X431791Y960494D01*
X431798Y960307D01*
X431800Y960120D01*
X431798Y959933D01*
X431791Y959746D01*
X431779Y959559D01*
X431763Y959373D01*
X431743Y959187D01*
X431718Y959002D01*
X431688Y958817D01*
X431654Y958633D01*
X431615Y958450D01*
X431572Y958268D01*
X431524Y958088D01*
X431472Y957908D01*
X431415Y957730D01*
X431355Y957553D01*
X431289Y957378D01*
X431220Y957204D01*
X431146Y957032D01*
X431068Y956862D01*
X430986Y956694D01*
X430900Y956528D01*
X430810Y956364D01*
X430716Y956203D01*
X430618Y956043D01*
X430516Y955887D01*
X430410Y955732D01*
X430300Y955581D01*
X430187Y955432D01*
X430070Y955286D01*
X429950Y955143D01*
X429826Y955003D01*
X429699Y954866D01*
X429568Y954732D01*
X429434Y954601D01*
X429297Y954474D01*
X429157Y954350D01*
X429014Y954230D01*
X428868Y954113D01*
X428719Y954000D01*
X428568Y953890D01*
X428413Y953784D01*
X428257Y953682D01*
X428097Y953584D01*
X427936Y953490D01*
X427772Y953400D01*
X427606Y953314D01*
X427438Y953232D01*
X427268Y953154D01*
X427096Y953080D01*
X426922Y953011D01*
X426747Y952945D01*
X426570Y952885D01*
X426392Y952828D01*
X426212Y952776D01*
X426032Y952728D01*
X425850Y952685D01*
X425667Y952646D01*
X425483Y952612D01*
X425298Y952582D01*
X425113Y952557D01*
X424927Y952537D01*
X424741Y952521D01*
X424554Y952509D01*
X424367Y952502D01*
X424180Y952500D01*
X423993Y952502D01*
X423806Y952509D01*
X423619Y952521D01*
X423433Y952537D01*
X423247Y952557D01*
X423062Y952582D01*
X422877Y952612D01*
X422693Y952646D01*
X422510Y952685D01*
X422328Y952728D01*
X422148Y952776D01*
X421968Y952828D01*
X421790Y952885D01*
X421613Y952945D01*
X421438Y953011D01*
X421264Y953080D01*
X421092Y953154D01*
X420922Y953232D01*
X420754Y953314D01*
X420588Y953400D01*
X420424Y953490D01*
X420263Y953584D01*
X420103Y953682D01*
X419947Y953784D01*
X419792Y953890D01*
X419641Y954000D01*
X419492Y954113D01*
X419346Y954230D01*
X419203Y954350D01*
X419063Y954474D01*
X418926Y954601D01*
X418792Y954732D01*
X418661Y954866D01*
X418534Y955003D01*
X418410Y955143D01*
X418290Y955286D01*
X418173Y955432D01*
X418060Y955581D01*
X417950Y955732D01*
X417844Y955887D01*
X417742Y956043D01*
X417644Y956203D01*
X417550Y956364D01*
X417460Y956528D01*
X417374Y956694D01*
X417292Y956862D01*
X417214Y957032D01*
X417140Y957204D01*
X417071Y957378D01*
X417005Y957553D01*
X416945Y957730D01*
X416888Y957908D01*
X416836Y958088D01*
X416788Y958268D01*
X416745Y958450D01*
X416706Y958633D01*
X416672Y958817D01*
X416642Y959002D01*
X416617Y959187D01*
X416597Y959373D01*
X416581Y959559D01*
X416569Y959746D01*
X416562Y959933D01*
X416560Y960120D01*
X-265430Y721360D02*
X-265425Y721765D01*
X-265410Y722170D01*
X-265385Y722575D01*
X-265350Y722978D01*
X-265306Y723381D01*
X-265251Y723783D01*
X-265187Y724183D01*
X-265113Y724581D01*
X-265029Y724977D01*
X-264935Y725372D01*
X-264832Y725763D01*
X-264719Y726153D01*
X-264597Y726539D01*
X-264465Y726922D01*
X-264324Y727302D01*
X-264173Y727678D01*
X-264014Y728051D01*
X-263845Y728419D01*
X-263667Y728783D01*
X-263481Y729143D01*
X-263285Y729498D01*
X-263081Y729848D01*
X-262869Y730193D01*
X-262648Y730532D01*
X-262418Y730867D01*
X-262181Y731195D01*
X-261936Y731517D01*
X-261682Y731834D01*
X-261422Y732144D01*
X-261153Y732447D01*
X-260877Y732744D01*
X-260594Y733034D01*
X-260304Y733317D01*
X-260007Y733593D01*
X-259704Y733862D01*
X-259394Y734122D01*
X-259077Y734376D01*
X-258755Y734621D01*
X-258427Y734858D01*
X-258092Y735088D01*
X-257753Y735309D01*
X-257408Y735521D01*
X-257058Y735725D01*
X-256703Y735921D01*
X-256343Y736107D01*
X-255979Y736285D01*
X-255611Y736454D01*
X-255238Y736613D01*
X-254862Y736764D01*
X-254482Y736905D01*
X-254099Y737037D01*
X-253713Y737159D01*
X-253323Y737272D01*
X-252932Y737375D01*
X-252537Y737469D01*
X-252141Y737553D01*
X-251743Y737627D01*
X-251343Y737691D01*
X-250941Y737746D01*
X-250538Y737790D01*
X-250135Y737825D01*
X-249730Y737850D01*
X-249325Y737865D01*
X-248920Y737870D01*
X-248515Y737865D01*
X-248110Y737850D01*
X-247705Y737825D01*
X-247302Y737790D01*
X-246899Y737746D01*
X-246497Y737691D01*
X-246097Y737627D01*
X-245699Y737553D01*
X-245303Y737469D01*
X-244908Y737375D01*
X-244517Y737272D01*
X-244127Y737159D01*
X-243741Y737037D01*
X-243358Y736905D01*
X-242978Y736764D01*
X-242602Y736613D01*
X-242229Y736454D01*
X-241861Y736285D01*
X-241497Y736107D01*
X-241137Y735921D01*
X-240782Y735725D01*
X-240432Y735521D01*
X-240087Y735309D01*
X-239748Y735088D01*
X-239413Y734858D01*
X-239085Y734621D01*
X-238763Y734376D01*
X-238446Y734122D01*
X-238136Y733862D01*
X-237833Y733593D01*
X-237536Y733317D01*
X-237246Y733034D01*
X-236963Y732744D01*
X-236687Y732447D01*
X-236418Y732144D01*
X-236158Y731834D01*
X-235904Y731517D01*
X-235659Y731195D01*
X-235422Y730867D01*
X-235192Y730532D01*
X-234971Y730193D01*
X-234759Y729848D01*
X-234555Y729498D01*
X-234359Y729143D01*
X-234173Y728783D01*
X-233995Y728419D01*
X-233826Y728051D01*
X-233667Y727678D01*
X-233516Y727302D01*
X-233375Y726922D01*
X-233243Y726539D01*
X-233121Y726153D01*
X-233008Y725763D01*
X-232905Y725372D01*
X-232811Y724977D01*
X-232727Y724581D01*
X-232653Y724183D01*
X-232589Y723783D01*
X-232534Y723381D01*
X-232490Y722978D01*
X-232455Y722575D01*
X-232430Y722170D01*
X-232415Y721765D01*
X-232410Y721360D01*
X-232415Y720955D01*
X-232430Y720550D01*
X-232455Y720145D01*
X-232490Y719742D01*
X-232534Y719339D01*
X-232589Y718937D01*
X-232653Y718537D01*
X-232727Y718139D01*
X-232811Y717743D01*
X-232905Y717348D01*
X-233008Y716957D01*
X-233121Y716567D01*
X-233243Y716181D01*
X-233375Y715798D01*
X-233516Y715418D01*
X-233667Y715042D01*
X-233826Y714669D01*
X-233995Y714301D01*
X-234173Y713937D01*
X-234359Y713577D01*
X-234555Y713222D01*
X-234759Y712872D01*
X-234971Y712527D01*
X-235192Y712188D01*
X-235422Y711853D01*
X-235659Y711525D01*
X-235904Y711203D01*
X-236158Y710886D01*
X-236418Y710576D01*
X-236687Y710273D01*
X-236963Y709976D01*
X-237246Y709686D01*
X-237536Y709403D01*
X-237833Y709127D01*
X-238136Y708858D01*
X-238446Y708598D01*
X-238763Y708344D01*
X-239085Y708099D01*
X-239413Y707862D01*
X-239748Y707632D01*
X-240087Y707411D01*
X-240432Y707199D01*
X-240782Y706995D01*
X-241137Y706799D01*
X-241497Y706613D01*
X-241861Y706435D01*
X-242229Y706266D01*
X-242602Y706107D01*
X-242978Y705956D01*
X-243358Y705815D01*
X-243741Y705683D01*
X-244127Y705561D01*
X-244517Y705448D01*
X-244908Y705345D01*
X-245303Y705251D01*
X-245699Y705167D01*
X-246097Y705093D01*
X-246497Y705029D01*
X-246899Y704974D01*
X-247302Y704930D01*
X-247705Y704895D01*
X-248110Y704870D01*
X-248515Y704855D01*
X-248920Y704850D01*
X-249325Y704855D01*
X-249730Y704870D01*
X-250135Y704895D01*
X-250538Y704930D01*
X-250941Y704974D01*
X-251343Y705029D01*
X-251743Y705093D01*
X-252141Y705167D01*
X-252537Y705251D01*
X-252932Y705345D01*
X-253323Y705448D01*
X-253713Y705561D01*
X-254099Y705683D01*
X-254482Y705815D01*
X-254862Y705956D01*
X-255238Y706107D01*
X-255611Y706266D01*
X-255979Y706435D01*
X-256343Y706613D01*
X-256703Y706799D01*
X-257058Y706995D01*
X-257408Y707199D01*
X-257753Y707411D01*
X-258092Y707632D01*
X-258427Y707862D01*
X-258755Y708099D01*
X-259077Y708344D01*
X-259394Y708598D01*
X-259704Y708858D01*
X-260007Y709127D01*
X-260304Y709403D01*
X-260594Y709686D01*
X-260877Y709976D01*
X-261153Y710273D01*
X-261422Y710576D01*
X-261682Y710886D01*
X-261936Y711203D01*
X-262181Y711525D01*
X-262418Y711853D01*
X-262648Y712188D01*
X-262869Y712527D01*
X-263081Y712872D01*
X-263285Y713222D01*
X-263481Y713577D01*
X-263667Y713937D01*
X-263845Y714301D01*
X-264014Y714669D01*
X-264173Y715042D01*
X-264324Y715418D01*
X-264465Y715798D01*
X-264597Y716181D01*
X-264719Y716567D01*
X-264832Y716957D01*
X-264935Y717348D01*
X-265029Y717743D01*
X-265113Y718139D01*
X-265187Y718537D01*
X-265251Y718937D01*
X-265306Y719339D01*
X-265350Y719742D01*
X-265385Y720145D01*
X-265410Y720550D01*
X-265425Y720955D01*
X-265430Y721360D01*
X-306070Y914400D02*
X-306065Y914805D01*
X-306050Y915210D01*
X-306025Y915615D01*
X-305990Y916018D01*
X-305946Y916421D01*
X-305891Y916823D01*
X-305827Y917223D01*
X-305753Y917621D01*
X-305669Y918017D01*
X-305575Y918412D01*
X-305472Y918803D01*
X-305359Y919193D01*
X-305237Y919579D01*
X-305105Y919962D01*
X-304964Y920342D01*
X-304813Y920718D01*
X-304654Y921091D01*
X-304485Y921459D01*
X-304307Y921823D01*
X-304121Y922183D01*
X-303925Y922538D01*
X-303721Y922888D01*
X-303509Y923233D01*
X-303288Y923572D01*
X-303058Y923907D01*
X-302821Y924235D01*
X-302576Y924557D01*
X-302322Y924874D01*
X-302062Y925184D01*
X-301793Y925487D01*
X-301517Y925784D01*
X-301234Y926074D01*
X-300944Y926357D01*
X-300647Y926633D01*
X-300344Y926902D01*
X-300034Y927162D01*
X-299717Y927416D01*
X-299395Y927661D01*
X-299067Y927898D01*
X-298732Y928128D01*
X-298393Y928349D01*
X-298048Y928561D01*
X-297698Y928765D01*
X-297343Y928961D01*
X-296983Y929147D01*
X-296619Y929325D01*
X-296251Y929494D01*
X-295878Y929653D01*
X-295502Y929804D01*
X-295122Y929945D01*
X-294739Y930077D01*
X-294353Y930199D01*
X-293963Y930312D01*
X-293572Y930415D01*
X-293177Y930509D01*
X-292781Y930593D01*
X-292383Y930667D01*
X-291983Y930731D01*
X-291581Y930786D01*
X-291178Y930830D01*
X-290775Y930865D01*
X-290370Y930890D01*
X-289965Y930905D01*
X-289560Y930910D01*
X-289155Y930905D01*
X-288750Y930890D01*
X-288345Y930865D01*
X-287942Y930830D01*
X-287539Y930786D01*
X-287137Y930731D01*
X-286737Y930667D01*
X-286339Y930593D01*
X-285943Y930509D01*
X-285548Y930415D01*
X-285157Y930312D01*
X-284767Y930199D01*
X-284381Y930077D01*
X-283998Y929945D01*
X-283618Y929804D01*
X-283242Y929653D01*
X-282869Y929494D01*
X-282501Y929325D01*
X-282137Y929147D01*
X-281777Y928961D01*
X-281422Y928765D01*
X-281072Y928561D01*
X-280727Y928349D01*
X-280388Y928128D01*
X-280053Y927898D01*
X-279725Y927661D01*
X-279403Y927416D01*
X-279086Y927162D01*
X-278776Y926902D01*
X-278473Y926633D01*
X-278176Y926357D01*
X-277886Y926074D01*
X-277603Y925784D01*
X-277327Y925487D01*
X-277058Y925184D01*
X-276798Y924874D01*
X-276544Y924557D01*
X-276299Y924235D01*
X-276062Y923907D01*
X-275832Y923572D01*
X-275611Y923233D01*
X-275399Y922888D01*
X-275195Y922538D01*
X-274999Y922183D01*
X-274813Y921823D01*
X-274635Y921459D01*
X-274466Y921091D01*
X-274307Y920718D01*
X-274156Y920342D01*
X-274015Y919962D01*
X-273883Y919579D01*
X-273761Y919193D01*
X-273648Y918803D01*
X-273545Y918412D01*
X-273451Y918017D01*
X-273367Y917621D01*
X-273293Y917223D01*
X-273229Y916823D01*
X-273174Y916421D01*
X-273130Y916018D01*
X-273095Y915615D01*
X-273070Y915210D01*
X-273055Y914805D01*
X-273050Y914400D01*
X-273055Y913995D01*
X-273070Y913590D01*
X-273095Y913185D01*
X-273130Y912782D01*
X-273174Y912379D01*
X-273229Y911977D01*
X-273293Y911577D01*
X-273367Y911179D01*
X-273451Y910783D01*
X-273545Y910388D01*
X-273648Y909997D01*
X-273761Y909607D01*
X-273883Y909221D01*
X-274015Y908838D01*
X-274156Y908458D01*
X-274307Y908082D01*
X-274466Y907709D01*
X-274635Y907341D01*
X-274813Y906977D01*
X-274999Y906617D01*
X-275195Y906262D01*
X-275399Y905912D01*
X-275611Y905567D01*
X-275832Y905228D01*
X-276062Y904893D01*
X-276299Y904565D01*
X-276544Y904243D01*
X-276798Y903926D01*
X-277058Y903616D01*
X-277327Y903313D01*
X-277603Y903016D01*
X-277886Y902726D01*
X-278176Y902443D01*
X-278473Y902167D01*
X-278776Y901898D01*
X-279086Y901638D01*
X-279403Y901384D01*
X-279725Y901139D01*
X-280053Y900902D01*
X-280388Y900672D01*
X-280727Y900451D01*
X-281072Y900239D01*
X-281422Y900035D01*
X-281777Y899839D01*
X-282137Y899653D01*
X-282501Y899475D01*
X-282869Y899306D01*
X-283242Y899147D01*
X-283618Y898996D01*
X-283998Y898855D01*
X-284381Y898723D01*
X-284767Y898601D01*
X-285157Y898488D01*
X-285548Y898385D01*
X-285943Y898291D01*
X-286339Y898207D01*
X-286737Y898133D01*
X-287137Y898069D01*
X-287539Y898014D01*
X-287942Y897970D01*
X-288345Y897935D01*
X-288750Y897910D01*
X-289155Y897895D01*
X-289560Y897890D01*
X-289965Y897895D01*
X-290370Y897910D01*
X-290775Y897935D01*
X-291178Y897970D01*
X-291581Y898014D01*
X-291983Y898069D01*
X-292383Y898133D01*
X-292781Y898207D01*
X-293177Y898291D01*
X-293572Y898385D01*
X-293963Y898488D01*
X-294353Y898601D01*
X-294739Y898723D01*
X-295122Y898855D01*
X-295502Y898996D01*
X-295878Y899147D01*
X-296251Y899306D01*
X-296619Y899475D01*
X-296983Y899653D01*
X-297343Y899839D01*
X-297698Y900035D01*
X-298048Y900239D01*
X-298393Y900451D01*
X-298732Y900672D01*
X-299067Y900902D01*
X-299395Y901139D01*
X-299717Y901384D01*
X-300034Y901638D01*
X-300344Y901898D01*
X-300647Y902167D01*
X-300944Y902443D01*
X-301234Y902726D01*
X-301517Y903016D01*
X-301793Y903313D01*
X-302062Y903616D01*
X-302322Y903926D01*
X-302576Y904243D01*
X-302821Y904565D01*
X-303058Y904893D01*
X-303288Y905228D01*
X-303509Y905567D01*
X-303721Y905912D01*
X-303925Y906262D01*
X-304121Y906617D01*
X-304307Y906977D01*
X-304485Y907341D01*
X-304654Y907709D01*
X-304813Y908082D01*
X-304964Y908458D01*
X-305105Y908838D01*
X-305237Y909221D01*
X-305359Y909607D01*
X-305472Y909997D01*
X-305575Y910388D01*
X-305669Y910783D01*
X-305753Y911179D01*
X-305827Y911577D01*
X-305891Y911977D01*
X-305946Y912379D01*
X-305990Y912782D01*
X-306025Y913185D01*
X-306050Y913590D01*
X-306065Y913995D01*
X-306070Y914400D01*
D11*
X-431800Y360680D02*
X462480Y360680D01*
X462480Y997460D01*
X-431800Y997460D01*
X-431800Y360680D01*
X-383540Y957206D02*
X-383613Y956461D01*
X-383759Y955726D01*
X-383977Y955010D01*
X-384263Y954318D01*
X-384616Y953658D01*
X-385032Y953035D01*
X-385507Y952457D01*
X-386037Y951927D01*
X-386615Y951452D01*
X-387238Y951036D01*
X-387898Y950683D01*
X-388590Y950397D01*
X-389306Y950179D01*
X-390041Y950033D01*
X-390786Y949960D01*
X-391534Y949960D01*
X-392279Y950033D01*
X-393014Y950179D01*
X-393730Y950397D01*
X-394422Y950683D01*
X-395082Y951036D01*
X-395705Y951452D01*
X-396283Y951927D01*
X-396813Y952457D01*
X-397288Y953035D01*
X-397704Y953658D01*
X-398057Y954318D01*
X-398343Y955010D01*
X-398561Y955726D01*
X-398707Y956461D01*
X-398780Y957206D01*
X-398780Y957954D01*
X-398707Y958699D01*
X-398561Y959434D01*
X-398343Y960150D01*
X-398057Y960842D01*
X-397704Y961502D01*
X-397288Y962125D01*
X-396813Y962703D01*
X-396283Y963233D01*
X-395705Y963708D01*
X-395082Y964124D01*
X-394422Y964477D01*
X-393730Y964763D01*
X-393014Y964981D01*
X-392279Y965127D01*
X-391534Y965200D01*
X-390786Y965200D01*
X-390041Y965127D01*
X-389306Y964981D01*
X-388590Y964763D01*
X-387898Y964477D01*
X-387238Y964124D01*
X-386615Y963708D01*
X-386037Y963233D01*
X-385507Y962703D01*
X-385032Y962125D01*
X-384616Y961502D01*
X-384263Y960842D01*
X-383977Y960150D01*
X-383759Y959434D01*
X-383613Y958699D01*
X-383540Y957954D01*
X-383540Y957206D01*
X-383540Y400946D02*
X-383613Y400201D01*
X-383759Y399466D01*
X-383977Y398750D01*
X-384263Y398058D01*
X-384616Y397398D01*
X-385032Y396775D01*
X-385507Y396197D01*
X-386037Y395667D01*
X-386615Y395192D01*
X-387238Y394776D01*
X-387898Y394423D01*
X-388590Y394137D01*
X-389306Y393919D01*
X-390041Y393773D01*
X-390786Y393700D01*
X-391534Y393700D01*
X-392279Y393773D01*
X-393014Y393919D01*
X-393730Y394137D01*
X-394422Y394423D01*
X-395082Y394776D01*
X-395705Y395192D01*
X-396283Y395667D01*
X-396813Y396197D01*
X-397288Y396775D01*
X-397704Y397398D01*
X-398057Y398058D01*
X-398343Y398750D01*
X-398561Y399466D01*
X-398707Y400201D01*
X-398780Y400946D01*
X-398780Y401694D01*
X-398707Y402439D01*
X-398561Y403174D01*
X-398343Y403890D01*
X-398057Y404582D01*
X-397704Y405242D01*
X-397288Y405865D01*
X-396813Y406443D01*
X-396283Y406973D01*
X-395705Y407448D01*
X-395082Y407864D01*
X-394422Y408217D01*
X-393730Y408503D01*
X-393014Y408721D01*
X-392279Y408867D01*
X-391534Y408940D01*
X-390786Y408940D01*
X-390041Y408867D01*
X-389306Y408721D01*
X-388590Y408503D01*
X-387898Y408217D01*
X-387238Y407864D01*
X-386615Y407448D01*
X-386037Y406973D01*
X-385507Y406443D01*
X-385032Y405865D01*
X-384616Y405242D01*
X-384263Y404582D01*
X-383977Y403890D01*
X-383759Y403174D01*
X-383613Y402439D01*
X-383540Y401694D01*
X-383540Y400946D01*
X431800Y400946D02*
X431727Y400201D01*
X431581Y399466D01*
X431363Y398750D01*
X431077Y398058D01*
X430724Y397398D01*
X430308Y396775D01*
X429833Y396197D01*
X429303Y395667D01*
X428725Y395192D01*
X428102Y394776D01*
X427442Y394423D01*
X426750Y394137D01*
X426034Y393919D01*
X425299Y393773D01*
X424554Y393700D01*
X423806Y393700D01*
X423061Y393773D01*
X422326Y393919D01*
X421610Y394137D01*
X420918Y394423D01*
X420258Y394776D01*
X419635Y395192D01*
X419057Y395667D01*
X418527Y396197D01*
X418052Y396775D01*
X417636Y397398D01*
X417283Y398058D01*
X416997Y398750D01*
X416779Y399466D01*
X416633Y400201D01*
X416560Y400946D01*
X416560Y401694D01*
X416633Y402439D01*
X416779Y403174D01*
X416997Y403890D01*
X417283Y404582D01*
X417636Y405242D01*
X418052Y405865D01*
X418527Y406443D01*
X419057Y406973D01*
X419635Y407448D01*
X420258Y407864D01*
X420918Y408217D01*
X421610Y408503D01*
X422326Y408721D01*
X423061Y408867D01*
X423806Y408940D01*
X424554Y408940D01*
X425299Y408867D01*
X426034Y408721D01*
X426750Y408503D01*
X427442Y408217D01*
X428102Y407864D01*
X428725Y407448D01*
X429303Y406973D01*
X429833Y406443D01*
X430308Y405865D01*
X430724Y405242D01*
X431077Y404582D01*
X431363Y403890D01*
X431581Y403174D01*
X431727Y402439D01*
X431800Y401694D01*
X431800Y400946D01*
X431800Y959746D02*
X431727Y959001D01*
X431581Y958266D01*
X431363Y957550D01*
X431077Y956858D01*
X430724Y956198D01*
X430308Y955575D01*
X429833Y954997D01*
X429303Y954467D01*
X428725Y953992D01*
X428102Y953576D01*
X427442Y953223D01*
X426750Y952937D01*
X426034Y952719D01*
X425299Y952573D01*
X424554Y952500D01*
X423806Y952500D01*
X423061Y952573D01*
X422326Y952719D01*
X421610Y952937D01*
X420918Y953223D01*
X420258Y953576D01*
X419635Y953992D01*
X419057Y954467D01*
X418527Y954997D01*
X418052Y955575D01*
X417636Y956198D01*
X417283Y956858D01*
X416997Y957550D01*
X416779Y958266D01*
X416633Y959001D01*
X416560Y959746D01*
X416560Y960494D01*
X416633Y961239D01*
X416779Y961974D01*
X416997Y962690D01*
X417283Y963382D01*
X417636Y964042D01*
X418052Y964665D01*
X418527Y965243D01*
X419057Y965773D01*
X419635Y966248D01*
X420258Y966664D01*
X420918Y967017D01*
X421610Y967303D01*
X422326Y967521D01*
X423061Y967667D01*
X423806Y967740D01*
X424554Y967740D01*
X425299Y967667D01*
X426034Y967521D01*
X426750Y967303D01*
X427442Y967017D01*
X428102Y966664D01*
X428725Y966248D01*
X429303Y965773D01*
X429833Y965243D01*
X430308Y964665D01*
X430724Y964042D01*
X431077Y963382D01*
X431363Y962690D01*
X431581Y961974D01*
X431727Y961239D01*
X431800Y960494D01*
X431800Y959746D01*
X-232410Y720820D02*
X-232481Y719741D01*
X-232622Y718669D01*
X-232833Y717609D01*
X-233112Y716565D01*
X-233460Y715541D01*
X-233874Y714543D01*
X-234352Y713573D01*
X-234892Y712637D01*
X-235493Y711738D01*
X-236151Y710881D01*
X-236864Y710068D01*
X-237628Y709304D01*
X-238441Y708591D01*
X-239298Y707933D01*
X-240197Y707332D01*
X-241133Y706792D01*
X-242103Y706314D01*
X-243101Y705900D01*
X-244125Y705552D01*
X-245169Y705273D01*
X-246229Y705062D01*
X-247301Y704921D01*
X-248380Y704850D01*
X-249460Y704850D01*
X-250539Y704921D01*
X-251611Y705062D01*
X-252671Y705273D01*
X-253715Y705552D01*
X-254739Y705900D01*
X-255737Y706314D01*
X-256707Y706792D01*
X-257643Y707332D01*
X-258542Y707933D01*
X-259399Y708591D01*
X-260212Y709304D01*
X-260977Y710068D01*
X-261689Y710881D01*
X-262347Y711738D01*
X-262948Y712637D01*
X-263488Y713573D01*
X-263966Y714543D01*
X-264380Y715541D01*
X-264728Y716565D01*
X-265007Y717609D01*
X-265218Y718669D01*
X-265359Y719741D01*
X-265430Y720820D01*
X-265430Y721900D01*
X-265359Y722979D01*
X-265218Y724051D01*
X-265007Y725111D01*
X-264728Y726155D01*
X-264380Y727179D01*
X-263966Y728177D01*
X-263488Y729147D01*
X-262948Y730083D01*
X-262347Y730982D01*
X-261689Y731839D01*
X-260977Y732652D01*
X-260212Y733417D01*
X-259399Y734129D01*
X-258542Y734787D01*
X-257643Y735388D01*
X-256707Y735928D01*
X-255737Y736406D01*
X-254739Y736820D01*
X-253715Y737168D01*
X-252671Y737447D01*
X-251611Y737658D01*
X-250539Y737799D01*
X-249460Y737870D01*
X-248380Y737870D01*
X-247301Y737799D01*
X-246229Y737658D01*
X-245169Y737447D01*
X-244125Y737168D01*
X-243101Y736820D01*
X-242103Y736406D01*
X-241133Y735928D01*
X-240197Y735388D01*
X-239298Y734787D01*
X-238441Y734129D01*
X-237628Y733417D01*
X-236864Y732652D01*
X-236151Y731839D01*
X-235493Y730982D01*
X-234892Y730083D01*
X-234352Y729147D01*
X-233874Y728177D01*
X-233460Y727179D01*
X-233112Y726155D01*
X-232833Y725111D01*
X-232622Y724051D01*
X-232481Y722979D01*
X-232410Y721900D01*
X-232410Y720820D01*
X-289020Y930910D02*
X-287941Y930839D01*
X-286869Y930698D01*
X-285809Y930487D01*
X-284765Y930208D01*
X-283741Y929860D01*
X-282743Y929446D01*
X-281773Y928968D01*
X-280837Y928428D01*
X-279938Y927827D01*
X-279081Y927169D01*
X-278268Y926457D01*
X-277504Y925692D01*
X-276791Y924879D01*
X-276133Y924022D01*
X-275532Y923123D01*
X-274992Y922187D01*
X-274514Y921217D01*
X-274100Y920219D01*
X-273752Y919195D01*
X-273473Y918151D01*
X-273262Y917091D01*
X-273121Y916019D01*
X-273050Y914940D01*
X-273050Y913860D01*
X-273121Y912781D01*
X-273262Y911709D01*
X-273473Y910649D01*
X-273752Y909605D01*
X-274100Y908581D01*
X-274514Y907583D01*
X-274992Y906613D01*
X-275532Y905677D01*
X-276133Y904778D01*
X-276791Y903921D01*
X-277504Y903108D01*
X-278268Y902344D01*
X-279081Y901631D01*
X-279938Y900973D01*
X-280837Y900372D01*
X-281773Y899832D01*
X-282743Y899354D01*
X-283741Y898940D01*
X-284765Y898592D01*
X-285809Y898313D01*
X-286869Y898102D01*
X-287941Y897961D01*
X-289020Y897890D01*
X-290100Y897890D01*
X-291179Y897961D01*
X-292251Y898102D01*
X-293311Y898313D01*
X-294355Y898592D01*
X-295379Y898940D01*
X-296377Y899354D01*
X-297347Y899832D01*
X-298283Y900372D01*
X-299182Y900973D01*
X-300039Y901631D01*
X-300852Y902344D01*
X-301617Y903108D01*
X-302329Y903921D01*
X-302987Y904778D01*
X-303588Y905677D01*
X-304128Y906613D01*
X-304606Y907583D01*
X-305020Y908581D01*
X-305368Y909605D01*
X-305647Y910649D01*
X-305858Y911709D01*
X-305999Y912781D01*
X-306070Y913860D01*
X-306070Y914940D01*
X-305999Y916019D01*
X-305858Y917091D01*
X-305647Y918151D01*
X-305368Y919195D01*
X-305020Y920219D01*
X-304606Y921217D01*
X-304128Y922187D01*
X-303588Y923123D01*
X-302987Y924022D01*
X-302329Y924879D01*
X-301617Y925692D01*
X-300852Y926457D01*
X-300039Y927169D01*
X-299182Y927827D01*
X-298283Y928428D01*
X-297347Y928968D01*
X-296377Y929446D01*
X-295379Y929860D01*
X-294355Y930208D01*
X-293311Y930487D01*
X-292251Y930698D01*
X-291179Y930839D01*
X-290100Y930910D01*
X-289020Y930910D01*
M02*
