G04 EAGLE Gerber RS-274X export*
G04 #@! %TF.Part,Single*
G04 #@! %TF.FileFunction,Legend,Top,1*
G04 #@! %TF.FilePolarity,Positive*
G04 #@! %TF.GenerationSoftware,Autodesk,EAGLE,9.6.2*
G04 #@! %TF.CreationDate,2022-12-06T08:18:15Z*
G75*
%MOMM*%
%FSLAX34Y34*%
%LPD*%
%INSilkscreen Top*%
%IPPOS*%
%AMOC8*
5,1,8,0,0,1.08239X$1,22.5*%
G01*
%ADD10C,0.152400*%
%ADD11C,0.127000*%
%ADD12C,0.177800*%
%ADD13R,0.863600X0.609600*%
%ADD14R,3.810000X0.762000*%
%ADD15C,0.254000*%
%ADD16C,0.050800*%
%ADD17C,0.101600*%
%ADD18R,0.762000X0.635000*%
%ADD19R,1.270000X2.794000*%
%ADD20C,0.000000*%
%ADD21R,0.609600X0.863600*%
%ADD22R,2.032000X0.508000*%
%ADD23R,0.508000X0.635000*%
%ADD24R,0.635000X0.762000*%
%ADD25R,2.794000X1.270000*%


D10*
X-382270Y581660D02*
X-379730Y581660D01*
X-379730Y579120D01*
X-379730Y581660D02*
X-377190Y581660D01*
X-379730Y581660D02*
X-379730Y584200D01*
X-391160Y568960D02*
X-391152Y569583D01*
X-391129Y570206D01*
X-391091Y570829D01*
X-391038Y571450D01*
X-390969Y572069D01*
X-390885Y572687D01*
X-390786Y573302D01*
X-390672Y573915D01*
X-390543Y574525D01*
X-390399Y575132D01*
X-390240Y575735D01*
X-390066Y576333D01*
X-389878Y576928D01*
X-389675Y577517D01*
X-389458Y578101D01*
X-389227Y578680D01*
X-388981Y579253D01*
X-388721Y579820D01*
X-388448Y580380D01*
X-388161Y580933D01*
X-387860Y581480D01*
X-387546Y582018D01*
X-387219Y582549D01*
X-386879Y583071D01*
X-386527Y583586D01*
X-386161Y584091D01*
X-385784Y584587D01*
X-385394Y585074D01*
X-384993Y585551D01*
X-384580Y586018D01*
X-384156Y586474D01*
X-383721Y586921D01*
X-383274Y587356D01*
X-382818Y587780D01*
X-382351Y588193D01*
X-381874Y588594D01*
X-381387Y588984D01*
X-380891Y589361D01*
X-380386Y589727D01*
X-379871Y590079D01*
X-379349Y590419D01*
X-378818Y590746D01*
X-378280Y591060D01*
X-377733Y591361D01*
X-377180Y591648D01*
X-376620Y591921D01*
X-376053Y592181D01*
X-375480Y592427D01*
X-374901Y592658D01*
X-374317Y592875D01*
X-373728Y593078D01*
X-373133Y593266D01*
X-372535Y593440D01*
X-371932Y593599D01*
X-371325Y593743D01*
X-370715Y593872D01*
X-370102Y593986D01*
X-369487Y594085D01*
X-368869Y594169D01*
X-368250Y594238D01*
X-367629Y594291D01*
X-367006Y594329D01*
X-366383Y594352D01*
X-365760Y594360D01*
X-365137Y594352D01*
X-364514Y594329D01*
X-363891Y594291D01*
X-363270Y594238D01*
X-362651Y594169D01*
X-362033Y594085D01*
X-361418Y593986D01*
X-360805Y593872D01*
X-360195Y593743D01*
X-359588Y593599D01*
X-358985Y593440D01*
X-358387Y593266D01*
X-357792Y593078D01*
X-357203Y592875D01*
X-356619Y592658D01*
X-356040Y592427D01*
X-355467Y592181D01*
X-354900Y591921D01*
X-354340Y591648D01*
X-353787Y591361D01*
X-353240Y591060D01*
X-352702Y590746D01*
X-352171Y590419D01*
X-351649Y590079D01*
X-351134Y589727D01*
X-350629Y589361D01*
X-350133Y588984D01*
X-349646Y588594D01*
X-349169Y588193D01*
X-348702Y587780D01*
X-348246Y587356D01*
X-347799Y586921D01*
X-347364Y586474D01*
X-346940Y586018D01*
X-346527Y585551D01*
X-346126Y585074D01*
X-345736Y584587D01*
X-345359Y584091D01*
X-344993Y583586D01*
X-344641Y583071D01*
X-344301Y582549D01*
X-343974Y582018D01*
X-343660Y581480D01*
X-343359Y580933D01*
X-343072Y580380D01*
X-342799Y579820D01*
X-342539Y579253D01*
X-342293Y578680D01*
X-342062Y578101D01*
X-341845Y577517D01*
X-341642Y576928D01*
X-341454Y576333D01*
X-341280Y575735D01*
X-341121Y575132D01*
X-340977Y574525D01*
X-340848Y573915D01*
X-340734Y573302D01*
X-340635Y572687D01*
X-340551Y572069D01*
X-340482Y571450D01*
X-340429Y570829D01*
X-340391Y570206D01*
X-340368Y569583D01*
X-340360Y568960D01*
X-340368Y568337D01*
X-340391Y567714D01*
X-340429Y567091D01*
X-340482Y566470D01*
X-340551Y565851D01*
X-340635Y565233D01*
X-340734Y564618D01*
X-340848Y564005D01*
X-340977Y563395D01*
X-341121Y562788D01*
X-341280Y562185D01*
X-341454Y561587D01*
X-341642Y560992D01*
X-341845Y560403D01*
X-342062Y559819D01*
X-342293Y559240D01*
X-342539Y558667D01*
X-342799Y558100D01*
X-343072Y557540D01*
X-343359Y556987D01*
X-343660Y556440D01*
X-343974Y555902D01*
X-344301Y555371D01*
X-344641Y554849D01*
X-344993Y554334D01*
X-345359Y553829D01*
X-345736Y553333D01*
X-346126Y552846D01*
X-346527Y552369D01*
X-346940Y551902D01*
X-347364Y551446D01*
X-347799Y550999D01*
X-348246Y550564D01*
X-348702Y550140D01*
X-349169Y549727D01*
X-349646Y549326D01*
X-350133Y548936D01*
X-350629Y548559D01*
X-351134Y548193D01*
X-351649Y547841D01*
X-352171Y547501D01*
X-352702Y547174D01*
X-353240Y546860D01*
X-353787Y546559D01*
X-354340Y546272D01*
X-354900Y545999D01*
X-355467Y545739D01*
X-356040Y545493D01*
X-356619Y545262D01*
X-357203Y545045D01*
X-357792Y544842D01*
X-358387Y544654D01*
X-358985Y544480D01*
X-359588Y544321D01*
X-360195Y544177D01*
X-360805Y544048D01*
X-361418Y543934D01*
X-362033Y543835D01*
X-362651Y543751D01*
X-363270Y543682D01*
X-363891Y543629D01*
X-364514Y543591D01*
X-365137Y543568D01*
X-365760Y543560D01*
X-366383Y543568D01*
X-367006Y543591D01*
X-367629Y543629D01*
X-368250Y543682D01*
X-368869Y543751D01*
X-369487Y543835D01*
X-370102Y543934D01*
X-370715Y544048D01*
X-371325Y544177D01*
X-371932Y544321D01*
X-372535Y544480D01*
X-373133Y544654D01*
X-373728Y544842D01*
X-374317Y545045D01*
X-374901Y545262D01*
X-375480Y545493D01*
X-376053Y545739D01*
X-376620Y545999D01*
X-377180Y546272D01*
X-377733Y546559D01*
X-378280Y546860D01*
X-378818Y547174D01*
X-379349Y547501D01*
X-379871Y547841D01*
X-380386Y548193D01*
X-380891Y548559D01*
X-381387Y548936D01*
X-381874Y549326D01*
X-382351Y549727D01*
X-382818Y550140D01*
X-383274Y550564D01*
X-383721Y550999D01*
X-384156Y551446D01*
X-384580Y551902D01*
X-384993Y552369D01*
X-385394Y552846D01*
X-385784Y553333D01*
X-386161Y553829D01*
X-386527Y554334D01*
X-386879Y554849D01*
X-387219Y555371D01*
X-387546Y555902D01*
X-387860Y556440D01*
X-388161Y556987D01*
X-388448Y557540D01*
X-388721Y558100D01*
X-388981Y558667D01*
X-389227Y559240D01*
X-389458Y559819D01*
X-389675Y560403D01*
X-389878Y560992D01*
X-390066Y561587D01*
X-390240Y562185D01*
X-390399Y562788D01*
X-390543Y563395D01*
X-390672Y564005D01*
X-390786Y564618D01*
X-390885Y565233D01*
X-390969Y565851D01*
X-391038Y566470D01*
X-391091Y567091D01*
X-391129Y567714D01*
X-391152Y568337D01*
X-391160Y568960D01*
D11*
X-335275Y593735D02*
X-333369Y591828D01*
X-335275Y593735D02*
X-339088Y593735D01*
X-340995Y591828D01*
X-340995Y584202D01*
X-339088Y582295D01*
X-335275Y582295D01*
X-333369Y584202D01*
X-329301Y591828D02*
X-327394Y593735D01*
X-323581Y593735D01*
X-321675Y591828D01*
X-321675Y589922D01*
X-323581Y588015D01*
X-325488Y588015D01*
X-323581Y588015D02*
X-321675Y586108D01*
X-321675Y584202D01*
X-323581Y582295D01*
X-327394Y582295D01*
X-329301Y584202D01*
D10*
X6350Y523240D02*
X27940Y523240D01*
X6350Y523240D02*
X6348Y523398D01*
X6342Y523557D01*
X6332Y523715D01*
X6318Y523872D01*
X6301Y524030D01*
X6279Y524186D01*
X6254Y524343D01*
X6224Y524498D01*
X6191Y524653D01*
X6154Y524807D01*
X6113Y524960D01*
X6068Y525112D01*
X6019Y525262D01*
X5967Y525412D01*
X5911Y525560D01*
X5851Y525707D01*
X5788Y525852D01*
X5721Y525995D01*
X5651Y526137D01*
X5577Y526277D01*
X5499Y526415D01*
X5418Y526551D01*
X5334Y526685D01*
X5247Y526817D01*
X5156Y526947D01*
X5062Y527074D01*
X4965Y527199D01*
X4864Y527322D01*
X4761Y527442D01*
X4655Y527559D01*
X4546Y527674D01*
X4434Y527786D01*
X4319Y527895D01*
X4202Y528001D01*
X4082Y528104D01*
X3959Y528205D01*
X3834Y528302D01*
X3707Y528396D01*
X3577Y528487D01*
X3445Y528574D01*
X3311Y528658D01*
X3175Y528739D01*
X3037Y528817D01*
X2897Y528891D01*
X2755Y528961D01*
X2612Y529028D01*
X2467Y529091D01*
X2320Y529151D01*
X2172Y529207D01*
X2022Y529259D01*
X1872Y529308D01*
X1720Y529353D01*
X1567Y529394D01*
X1413Y529431D01*
X1258Y529464D01*
X1103Y529494D01*
X946Y529519D01*
X790Y529541D01*
X632Y529558D01*
X475Y529572D01*
X317Y529582D01*
X158Y529588D01*
X0Y529590D01*
X-158Y529588D01*
X-317Y529582D01*
X-475Y529572D01*
X-632Y529558D01*
X-790Y529541D01*
X-946Y529519D01*
X-1103Y529494D01*
X-1258Y529464D01*
X-1413Y529431D01*
X-1567Y529394D01*
X-1720Y529353D01*
X-1872Y529308D01*
X-2022Y529259D01*
X-2172Y529207D01*
X-2320Y529151D01*
X-2467Y529091D01*
X-2612Y529028D01*
X-2755Y528961D01*
X-2897Y528891D01*
X-3037Y528817D01*
X-3175Y528739D01*
X-3311Y528658D01*
X-3445Y528574D01*
X-3577Y528487D01*
X-3707Y528396D01*
X-3834Y528302D01*
X-3959Y528205D01*
X-4082Y528104D01*
X-4202Y528001D01*
X-4319Y527895D01*
X-4434Y527786D01*
X-4546Y527674D01*
X-4655Y527559D01*
X-4761Y527442D01*
X-4864Y527322D01*
X-4965Y527199D01*
X-5062Y527074D01*
X-5156Y526947D01*
X-5247Y526817D01*
X-5334Y526685D01*
X-5418Y526551D01*
X-5499Y526415D01*
X-5577Y526277D01*
X-5651Y526137D01*
X-5721Y525995D01*
X-5788Y525852D01*
X-5851Y525707D01*
X-5911Y525560D01*
X-5967Y525412D01*
X-6019Y525262D01*
X-6068Y525112D01*
X-6113Y524960D01*
X-6154Y524807D01*
X-6191Y524653D01*
X-6224Y524498D01*
X-6254Y524343D01*
X-6279Y524186D01*
X-6301Y524030D01*
X-6318Y523872D01*
X-6332Y523715D01*
X-6342Y523557D01*
X-6348Y523398D01*
X-6350Y523240D01*
X27940Y523240D02*
X27940Y894080D01*
X-6350Y523240D02*
X-27940Y523240D01*
X-27940Y894080D01*
X27940Y894080D01*
D12*
X-12030Y499745D02*
X-17369Y499745D01*
X-14699Y499745D02*
X-14699Y515761D01*
X-12030Y515761D02*
X-17369Y515761D01*
X1554Y515761D02*
X4223Y513091D01*
X1554Y515761D02*
X-3785Y515761D01*
X-6454Y513091D01*
X-6454Y502414D01*
X-3785Y499745D01*
X1554Y499745D01*
X4223Y502414D01*
X9917Y513091D02*
X12587Y515761D01*
X17925Y515761D01*
X20595Y513091D01*
X20595Y510422D01*
X17925Y507753D01*
X15256Y507753D01*
X17925Y507753D02*
X20595Y505084D01*
X20595Y502414D01*
X17925Y499745D01*
X12587Y499745D01*
X9917Y502414D01*
D10*
X-46990Y914400D02*
X-46990Y965200D01*
X11430Y965200D02*
X11430Y914400D01*
X11430Y965200D02*
X-46990Y965200D01*
X-46990Y914400D02*
X-27940Y914400D01*
X-7620Y914400D02*
X11430Y914400D01*
X-7620Y914400D02*
X-7623Y914647D01*
X-7632Y914895D01*
X-7647Y915142D01*
X-7668Y915388D01*
X-7695Y915634D01*
X-7728Y915879D01*
X-7767Y916124D01*
X-7812Y916367D01*
X-7863Y916609D01*
X-7920Y916850D01*
X-7982Y917089D01*
X-8051Y917327D01*
X-8125Y917563D01*
X-8205Y917797D01*
X-8290Y918029D01*
X-8382Y918259D01*
X-8478Y918487D01*
X-8581Y918712D01*
X-8688Y918935D01*
X-8802Y919155D01*
X-8920Y919372D01*
X-9044Y919587D01*
X-9173Y919798D01*
X-9307Y920006D01*
X-9446Y920211D01*
X-9590Y920412D01*
X-9738Y920610D01*
X-9892Y920804D01*
X-10050Y920994D01*
X-10213Y921180D01*
X-10380Y921362D01*
X-10552Y921540D01*
X-10728Y921714D01*
X-10908Y921884D01*
X-11093Y922049D01*
X-11281Y922209D01*
X-11473Y922365D01*
X-11669Y922517D01*
X-11868Y922663D01*
X-12071Y922805D01*
X-12278Y922941D01*
X-12487Y923073D01*
X-12700Y923199D01*
X-12916Y923320D01*
X-13134Y923436D01*
X-13356Y923546D01*
X-13580Y923651D01*
X-13806Y923751D01*
X-14035Y923845D01*
X-14266Y923933D01*
X-14500Y924016D01*
X-14735Y924093D01*
X-14972Y924164D01*
X-15210Y924230D01*
X-15450Y924289D01*
X-15692Y924343D01*
X-15935Y924391D01*
X-16178Y924433D01*
X-16423Y924469D01*
X-16669Y924499D01*
X-16915Y924523D01*
X-17162Y924541D01*
X-17409Y924553D01*
X-17656Y924559D01*
X-17904Y924559D01*
X-18151Y924553D01*
X-18398Y924541D01*
X-18645Y924523D01*
X-18891Y924499D01*
X-19137Y924469D01*
X-19382Y924433D01*
X-19625Y924391D01*
X-19868Y924343D01*
X-20110Y924289D01*
X-20350Y924230D01*
X-20588Y924164D01*
X-20825Y924093D01*
X-21060Y924016D01*
X-21294Y923933D01*
X-21525Y923845D01*
X-21754Y923751D01*
X-21980Y923651D01*
X-22204Y923546D01*
X-22426Y923436D01*
X-22644Y923320D01*
X-22860Y923199D01*
X-23073Y923073D01*
X-23282Y922941D01*
X-23489Y922805D01*
X-23692Y922663D01*
X-23891Y922517D01*
X-24087Y922365D01*
X-24279Y922209D01*
X-24467Y922049D01*
X-24652Y921884D01*
X-24832Y921714D01*
X-25008Y921540D01*
X-25180Y921362D01*
X-25347Y921180D01*
X-25510Y920994D01*
X-25668Y920804D01*
X-25822Y920610D01*
X-25970Y920412D01*
X-26114Y920211D01*
X-26253Y920006D01*
X-26387Y919798D01*
X-26516Y919587D01*
X-26640Y919372D01*
X-26758Y919155D01*
X-26872Y918935D01*
X-26979Y918712D01*
X-27082Y918487D01*
X-27178Y918259D01*
X-27270Y918029D01*
X-27355Y917797D01*
X-27435Y917563D01*
X-27509Y917327D01*
X-27578Y917089D01*
X-27640Y916850D01*
X-27697Y916609D01*
X-27748Y916367D01*
X-27793Y916124D01*
X-27832Y915879D01*
X-27865Y915634D01*
X-27892Y915388D01*
X-27913Y915142D01*
X-27928Y914895D01*
X-27937Y914647D01*
X-27940Y914400D01*
D11*
X-23650Y909965D02*
X-19837Y909965D01*
X-23650Y909965D02*
X-25557Y908058D01*
X-25557Y900432D01*
X-23650Y898525D01*
X-19837Y898525D01*
X-17930Y900432D01*
X-17930Y908058D01*
X-19837Y909965D01*
X-13863Y909965D02*
X-13863Y898525D01*
X-13863Y902338D02*
X-6237Y909965D01*
X-11956Y904245D02*
X-6237Y898525D01*
X-2169Y906152D02*
X1644Y909965D01*
X1644Y898525D01*
X-2169Y898525D02*
X5457Y898525D01*
D10*
X-204470Y781050D02*
X-204472Y780950D01*
X-204478Y780851D01*
X-204488Y780751D01*
X-204501Y780653D01*
X-204519Y780554D01*
X-204540Y780457D01*
X-204565Y780361D01*
X-204594Y780265D01*
X-204627Y780171D01*
X-204663Y780078D01*
X-204703Y779987D01*
X-204747Y779897D01*
X-204794Y779809D01*
X-204844Y779723D01*
X-204898Y779639D01*
X-204955Y779557D01*
X-205015Y779478D01*
X-205079Y779400D01*
X-205145Y779326D01*
X-205214Y779254D01*
X-205286Y779185D01*
X-205360Y779119D01*
X-205438Y779055D01*
X-205517Y778995D01*
X-205599Y778938D01*
X-205683Y778884D01*
X-205769Y778834D01*
X-205857Y778787D01*
X-205947Y778743D01*
X-206038Y778703D01*
X-206131Y778667D01*
X-206225Y778634D01*
X-206321Y778605D01*
X-206417Y778580D01*
X-206514Y778559D01*
X-206613Y778541D01*
X-206711Y778528D01*
X-206811Y778518D01*
X-206910Y778512D01*
X-207010Y778510D01*
X-204470Y798830D02*
X-204472Y798930D01*
X-204478Y799029D01*
X-204488Y799129D01*
X-204501Y799227D01*
X-204519Y799326D01*
X-204540Y799423D01*
X-204565Y799519D01*
X-204594Y799615D01*
X-204627Y799709D01*
X-204663Y799802D01*
X-204703Y799893D01*
X-204747Y799983D01*
X-204794Y800071D01*
X-204844Y800157D01*
X-204898Y800241D01*
X-204955Y800323D01*
X-205015Y800402D01*
X-205079Y800480D01*
X-205145Y800554D01*
X-205214Y800626D01*
X-205286Y800695D01*
X-205360Y800761D01*
X-205438Y800825D01*
X-205517Y800885D01*
X-205599Y800942D01*
X-205683Y800996D01*
X-205769Y801046D01*
X-205857Y801093D01*
X-205947Y801137D01*
X-206038Y801177D01*
X-206131Y801213D01*
X-206225Y801246D01*
X-206321Y801275D01*
X-206417Y801300D01*
X-206514Y801321D01*
X-206613Y801339D01*
X-206711Y801352D01*
X-206811Y801362D01*
X-206910Y801368D01*
X-207010Y801370D01*
X-265430Y801370D02*
X-265530Y801368D01*
X-265629Y801362D01*
X-265729Y801352D01*
X-265827Y801339D01*
X-265926Y801321D01*
X-266023Y801300D01*
X-266119Y801275D01*
X-266215Y801246D01*
X-266309Y801213D01*
X-266402Y801177D01*
X-266493Y801137D01*
X-266583Y801093D01*
X-266671Y801046D01*
X-266757Y800996D01*
X-266841Y800942D01*
X-266923Y800885D01*
X-267002Y800825D01*
X-267080Y800761D01*
X-267154Y800695D01*
X-267226Y800626D01*
X-267295Y800554D01*
X-267361Y800480D01*
X-267425Y800402D01*
X-267485Y800323D01*
X-267542Y800241D01*
X-267596Y800157D01*
X-267646Y800071D01*
X-267693Y799983D01*
X-267737Y799893D01*
X-267777Y799802D01*
X-267813Y799709D01*
X-267846Y799615D01*
X-267875Y799519D01*
X-267900Y799423D01*
X-267921Y799326D01*
X-267939Y799227D01*
X-267952Y799129D01*
X-267962Y799029D01*
X-267968Y798930D01*
X-267970Y798830D01*
X-267970Y781050D02*
X-267968Y780950D01*
X-267962Y780851D01*
X-267952Y780751D01*
X-267939Y780653D01*
X-267921Y780554D01*
X-267900Y780457D01*
X-267875Y780361D01*
X-267846Y780265D01*
X-267813Y780171D01*
X-267777Y780078D01*
X-267737Y779987D01*
X-267693Y779897D01*
X-267646Y779809D01*
X-267596Y779723D01*
X-267542Y779639D01*
X-267485Y779557D01*
X-267425Y779478D01*
X-267361Y779400D01*
X-267295Y779326D01*
X-267226Y779254D01*
X-267154Y779185D01*
X-267080Y779119D01*
X-267002Y779055D01*
X-266923Y778995D01*
X-266841Y778938D01*
X-266757Y778884D01*
X-266671Y778834D01*
X-266583Y778787D01*
X-266493Y778743D01*
X-266402Y778703D01*
X-266309Y778667D01*
X-266215Y778634D01*
X-266119Y778605D01*
X-266023Y778580D01*
X-265926Y778559D01*
X-265827Y778541D01*
X-265729Y778528D01*
X-265629Y778518D01*
X-265530Y778512D01*
X-265430Y778510D01*
X-204470Y781050D02*
X-204470Y798830D01*
X-207010Y778510D02*
X-210820Y778510D01*
X-212090Y779780D01*
X-210820Y801370D02*
X-207010Y801370D01*
X-210820Y801370D02*
X-212090Y800100D01*
X-260350Y779780D02*
X-261620Y778510D01*
X-260350Y779780D02*
X-212090Y779780D01*
X-260350Y800100D02*
X-261620Y801370D01*
X-260350Y800100D02*
X-212090Y800100D01*
X-261620Y778510D02*
X-265430Y778510D01*
X-265430Y801370D02*
X-261620Y801370D01*
X-267970Y798830D02*
X-267970Y781050D01*
D13*
X-272288Y789940D03*
X-200152Y789940D03*
D11*
X-228493Y774075D02*
X-228493Y762635D01*
X-228493Y774075D02*
X-222773Y774075D01*
X-220866Y772168D01*
X-220866Y768355D01*
X-222773Y766448D01*
X-228493Y766448D01*
X-224680Y766448D02*
X-220866Y762635D01*
X-216799Y774075D02*
X-209173Y774075D01*
X-216799Y774075D02*
X-216799Y768355D01*
X-212986Y770262D01*
X-211079Y770262D01*
X-209173Y768355D01*
X-209173Y764542D01*
X-211079Y762635D01*
X-214892Y762635D01*
X-216799Y764542D01*
D10*
X-320040Y610362D02*
X-334010Y610362D01*
X-394970Y610362D02*
X-394970Y711962D01*
X-377190Y711962D01*
X-320040Y711962D02*
X-320040Y610362D01*
X-386080Y610362D02*
X-387350Y605282D01*
X-386080Y610362D02*
X-394970Y610362D01*
X-387350Y605282D02*
X-375920Y605282D01*
X-377190Y610362D01*
X-386080Y610362D01*
X-377190Y610362D02*
X-377190Y711962D01*
X-334010Y711962D01*
X-334010Y610362D01*
X-377190Y610362D01*
X-334010Y711962D02*
X-320040Y711962D01*
X-391160Y686308D02*
X-391158Y686450D01*
X-391152Y686593D01*
X-391142Y686735D01*
X-391128Y686877D01*
X-391110Y687018D01*
X-391088Y687159D01*
X-391062Y687299D01*
X-391033Y687438D01*
X-390999Y687577D01*
X-390961Y687714D01*
X-390920Y687851D01*
X-390875Y687986D01*
X-390826Y688120D01*
X-390773Y688252D01*
X-390717Y688383D01*
X-390657Y688512D01*
X-390593Y688640D01*
X-390526Y688765D01*
X-390455Y688889D01*
X-390381Y689011D01*
X-390304Y689130D01*
X-390223Y689248D01*
X-390139Y689363D01*
X-390052Y689475D01*
X-389961Y689585D01*
X-389868Y689693D01*
X-389771Y689798D01*
X-389672Y689900D01*
X-389570Y689999D01*
X-389465Y690096D01*
X-389357Y690189D01*
X-389247Y690280D01*
X-389135Y690367D01*
X-389020Y690451D01*
X-388902Y690532D01*
X-388783Y690609D01*
X-388661Y690683D01*
X-388537Y690754D01*
X-388412Y690821D01*
X-388284Y690885D01*
X-388155Y690945D01*
X-388024Y691001D01*
X-387892Y691054D01*
X-387758Y691103D01*
X-387623Y691148D01*
X-387486Y691189D01*
X-387349Y691227D01*
X-387210Y691261D01*
X-387071Y691290D01*
X-386931Y691316D01*
X-386790Y691338D01*
X-386649Y691356D01*
X-386507Y691370D01*
X-386365Y691380D01*
X-386222Y691386D01*
X-386080Y691388D01*
X-385938Y691386D01*
X-385795Y691380D01*
X-385653Y691370D01*
X-385511Y691356D01*
X-385370Y691338D01*
X-385229Y691316D01*
X-385089Y691290D01*
X-384950Y691261D01*
X-384811Y691227D01*
X-384674Y691189D01*
X-384537Y691148D01*
X-384402Y691103D01*
X-384268Y691054D01*
X-384136Y691001D01*
X-384005Y690945D01*
X-383876Y690885D01*
X-383748Y690821D01*
X-383623Y690754D01*
X-383499Y690683D01*
X-383377Y690609D01*
X-383258Y690532D01*
X-383140Y690451D01*
X-383025Y690367D01*
X-382913Y690280D01*
X-382803Y690189D01*
X-382695Y690096D01*
X-382590Y689999D01*
X-382488Y689900D01*
X-382389Y689798D01*
X-382292Y689693D01*
X-382199Y689585D01*
X-382108Y689475D01*
X-382021Y689363D01*
X-381937Y689248D01*
X-381856Y689130D01*
X-381779Y689011D01*
X-381705Y688889D01*
X-381634Y688765D01*
X-381567Y688640D01*
X-381503Y688512D01*
X-381443Y688383D01*
X-381387Y688252D01*
X-381334Y688120D01*
X-381285Y687986D01*
X-381240Y687851D01*
X-381199Y687714D01*
X-381161Y687577D01*
X-381127Y687438D01*
X-381098Y687299D01*
X-381072Y687159D01*
X-381050Y687018D01*
X-381032Y686877D01*
X-381018Y686735D01*
X-381008Y686593D01*
X-381002Y686450D01*
X-381000Y686308D01*
X-381002Y686166D01*
X-381008Y686023D01*
X-381018Y685881D01*
X-381032Y685739D01*
X-381050Y685598D01*
X-381072Y685457D01*
X-381098Y685317D01*
X-381127Y685178D01*
X-381161Y685039D01*
X-381199Y684902D01*
X-381240Y684765D01*
X-381285Y684630D01*
X-381334Y684496D01*
X-381387Y684364D01*
X-381443Y684233D01*
X-381503Y684104D01*
X-381567Y683976D01*
X-381634Y683851D01*
X-381705Y683727D01*
X-381779Y683605D01*
X-381856Y683486D01*
X-381937Y683368D01*
X-382021Y683253D01*
X-382108Y683141D01*
X-382199Y683031D01*
X-382292Y682923D01*
X-382389Y682818D01*
X-382488Y682716D01*
X-382590Y682617D01*
X-382695Y682520D01*
X-382803Y682427D01*
X-382913Y682336D01*
X-383025Y682249D01*
X-383140Y682165D01*
X-383258Y682084D01*
X-383377Y682007D01*
X-383499Y681933D01*
X-383623Y681862D01*
X-383748Y681795D01*
X-383876Y681731D01*
X-384005Y681671D01*
X-384136Y681615D01*
X-384268Y681562D01*
X-384402Y681513D01*
X-384537Y681468D01*
X-384674Y681427D01*
X-384811Y681389D01*
X-384950Y681355D01*
X-385089Y681326D01*
X-385229Y681300D01*
X-385370Y681278D01*
X-385511Y681260D01*
X-385653Y681246D01*
X-385795Y681236D01*
X-385938Y681230D01*
X-386080Y681228D01*
X-386222Y681230D01*
X-386365Y681236D01*
X-386507Y681246D01*
X-386649Y681260D01*
X-386790Y681278D01*
X-386931Y681300D01*
X-387071Y681326D01*
X-387210Y681355D01*
X-387349Y681389D01*
X-387486Y681427D01*
X-387623Y681468D01*
X-387758Y681513D01*
X-387892Y681562D01*
X-388024Y681615D01*
X-388155Y681671D01*
X-388284Y681731D01*
X-388412Y681795D01*
X-388537Y681862D01*
X-388661Y681933D01*
X-388783Y682007D01*
X-388902Y682084D01*
X-389020Y682165D01*
X-389135Y682249D01*
X-389247Y682336D01*
X-389357Y682427D01*
X-389465Y682520D01*
X-389570Y682617D01*
X-389672Y682716D01*
X-389771Y682818D01*
X-389868Y682923D01*
X-389961Y683031D01*
X-390052Y683141D01*
X-390139Y683253D01*
X-390223Y683368D01*
X-390304Y683486D01*
X-390381Y683605D01*
X-390455Y683727D01*
X-390526Y683851D01*
X-390593Y683976D01*
X-390657Y684104D01*
X-390717Y684233D01*
X-390773Y684364D01*
X-390826Y684496D01*
X-390875Y684630D01*
X-390920Y684765D01*
X-390961Y684902D01*
X-390999Y685039D01*
X-391033Y685178D01*
X-391062Y685317D01*
X-391088Y685457D01*
X-391110Y685598D01*
X-391128Y685739D01*
X-391142Y685881D01*
X-391152Y686023D01*
X-391158Y686166D01*
X-391160Y686308D01*
X-391160Y636016D02*
X-391158Y636158D01*
X-391152Y636301D01*
X-391142Y636443D01*
X-391128Y636585D01*
X-391110Y636726D01*
X-391088Y636867D01*
X-391062Y637007D01*
X-391033Y637146D01*
X-390999Y637285D01*
X-390961Y637422D01*
X-390920Y637559D01*
X-390875Y637694D01*
X-390826Y637828D01*
X-390773Y637960D01*
X-390717Y638091D01*
X-390657Y638220D01*
X-390593Y638348D01*
X-390526Y638473D01*
X-390455Y638597D01*
X-390381Y638719D01*
X-390304Y638838D01*
X-390223Y638956D01*
X-390139Y639071D01*
X-390052Y639183D01*
X-389961Y639293D01*
X-389868Y639401D01*
X-389771Y639506D01*
X-389672Y639608D01*
X-389570Y639707D01*
X-389465Y639804D01*
X-389357Y639897D01*
X-389247Y639988D01*
X-389135Y640075D01*
X-389020Y640159D01*
X-388902Y640240D01*
X-388783Y640317D01*
X-388661Y640391D01*
X-388537Y640462D01*
X-388412Y640529D01*
X-388284Y640593D01*
X-388155Y640653D01*
X-388024Y640709D01*
X-387892Y640762D01*
X-387758Y640811D01*
X-387623Y640856D01*
X-387486Y640897D01*
X-387349Y640935D01*
X-387210Y640969D01*
X-387071Y640998D01*
X-386931Y641024D01*
X-386790Y641046D01*
X-386649Y641064D01*
X-386507Y641078D01*
X-386365Y641088D01*
X-386222Y641094D01*
X-386080Y641096D01*
X-385938Y641094D01*
X-385795Y641088D01*
X-385653Y641078D01*
X-385511Y641064D01*
X-385370Y641046D01*
X-385229Y641024D01*
X-385089Y640998D01*
X-384950Y640969D01*
X-384811Y640935D01*
X-384674Y640897D01*
X-384537Y640856D01*
X-384402Y640811D01*
X-384268Y640762D01*
X-384136Y640709D01*
X-384005Y640653D01*
X-383876Y640593D01*
X-383748Y640529D01*
X-383623Y640462D01*
X-383499Y640391D01*
X-383377Y640317D01*
X-383258Y640240D01*
X-383140Y640159D01*
X-383025Y640075D01*
X-382913Y639988D01*
X-382803Y639897D01*
X-382695Y639804D01*
X-382590Y639707D01*
X-382488Y639608D01*
X-382389Y639506D01*
X-382292Y639401D01*
X-382199Y639293D01*
X-382108Y639183D01*
X-382021Y639071D01*
X-381937Y638956D01*
X-381856Y638838D01*
X-381779Y638719D01*
X-381705Y638597D01*
X-381634Y638473D01*
X-381567Y638348D01*
X-381503Y638220D01*
X-381443Y638091D01*
X-381387Y637960D01*
X-381334Y637828D01*
X-381285Y637694D01*
X-381240Y637559D01*
X-381199Y637422D01*
X-381161Y637285D01*
X-381127Y637146D01*
X-381098Y637007D01*
X-381072Y636867D01*
X-381050Y636726D01*
X-381032Y636585D01*
X-381018Y636443D01*
X-381008Y636301D01*
X-381002Y636158D01*
X-381000Y636016D01*
X-381002Y635874D01*
X-381008Y635731D01*
X-381018Y635589D01*
X-381032Y635447D01*
X-381050Y635306D01*
X-381072Y635165D01*
X-381098Y635025D01*
X-381127Y634886D01*
X-381161Y634747D01*
X-381199Y634610D01*
X-381240Y634473D01*
X-381285Y634338D01*
X-381334Y634204D01*
X-381387Y634072D01*
X-381443Y633941D01*
X-381503Y633812D01*
X-381567Y633684D01*
X-381634Y633559D01*
X-381705Y633435D01*
X-381779Y633313D01*
X-381856Y633194D01*
X-381937Y633076D01*
X-382021Y632961D01*
X-382108Y632849D01*
X-382199Y632739D01*
X-382292Y632631D01*
X-382389Y632526D01*
X-382488Y632424D01*
X-382590Y632325D01*
X-382695Y632228D01*
X-382803Y632135D01*
X-382913Y632044D01*
X-383025Y631957D01*
X-383140Y631873D01*
X-383258Y631792D01*
X-383377Y631715D01*
X-383499Y631641D01*
X-383623Y631570D01*
X-383748Y631503D01*
X-383876Y631439D01*
X-384005Y631379D01*
X-384136Y631323D01*
X-384268Y631270D01*
X-384402Y631221D01*
X-384537Y631176D01*
X-384674Y631135D01*
X-384811Y631097D01*
X-384950Y631063D01*
X-385089Y631034D01*
X-385229Y631008D01*
X-385370Y630986D01*
X-385511Y630968D01*
X-385653Y630954D01*
X-385795Y630944D01*
X-385938Y630938D01*
X-386080Y630936D01*
X-386222Y630938D01*
X-386365Y630944D01*
X-386507Y630954D01*
X-386649Y630968D01*
X-386790Y630986D01*
X-386931Y631008D01*
X-387071Y631034D01*
X-387210Y631063D01*
X-387349Y631097D01*
X-387486Y631135D01*
X-387623Y631176D01*
X-387758Y631221D01*
X-387892Y631270D01*
X-388024Y631323D01*
X-388155Y631379D01*
X-388284Y631439D01*
X-388412Y631503D01*
X-388537Y631570D01*
X-388661Y631641D01*
X-388783Y631715D01*
X-388902Y631792D01*
X-389020Y631873D01*
X-389135Y631957D01*
X-389247Y632044D01*
X-389357Y632135D01*
X-389465Y632228D01*
X-389570Y632325D01*
X-389672Y632424D01*
X-389771Y632526D01*
X-389868Y632631D01*
X-389961Y632739D01*
X-390052Y632849D01*
X-390139Y632961D01*
X-390223Y633076D01*
X-390304Y633194D01*
X-390381Y633313D01*
X-390455Y633435D01*
X-390526Y633559D01*
X-390593Y633684D01*
X-390657Y633812D01*
X-390717Y633941D01*
X-390773Y634072D01*
X-390826Y634204D01*
X-390875Y634338D01*
X-390920Y634473D01*
X-390961Y634610D01*
X-390999Y634747D01*
X-391033Y634886D01*
X-391062Y635025D01*
X-391088Y635165D01*
X-391110Y635306D01*
X-391128Y635447D01*
X-391142Y635589D01*
X-391152Y635731D01*
X-391158Y635874D01*
X-391160Y636016D01*
D11*
X-390278Y620228D02*
X-387397Y617347D01*
X-390278Y620228D02*
X-381635Y620228D01*
X-381635Y617347D02*
X-381635Y623109D01*
X-381635Y668147D02*
X-381635Y673909D01*
X-381635Y668147D02*
X-387397Y673909D01*
X-388838Y673909D01*
X-390278Y672469D01*
X-390278Y669588D01*
X-388838Y668147D01*
D14*
X-355600Y661162D03*
D12*
X-416955Y611768D02*
X-416955Y601091D01*
X-408947Y601091D01*
X-411616Y606430D01*
X-411616Y609099D01*
X-408947Y611768D01*
X-403608Y611768D01*
X-400939Y609099D01*
X-400939Y603760D01*
X-403608Y601091D01*
X-406278Y617463D02*
X-416955Y617463D01*
X-406278Y617463D02*
X-400939Y622801D01*
X-406278Y628140D01*
X-416955Y628140D01*
X-398270Y633834D02*
X-398270Y644511D01*
X-400939Y650206D02*
X-400939Y655544D01*
X-400939Y652875D02*
X-416955Y652875D01*
X-416955Y650206D02*
X-416955Y655544D01*
X-416955Y661120D02*
X-400939Y661120D01*
X-400939Y671797D02*
X-416955Y661120D01*
X-416955Y671797D02*
X-400939Y671797D01*
X-400939Y677492D02*
X-416955Y677492D01*
X-416955Y685499D01*
X-414285Y688169D01*
X-408947Y688169D01*
X-406278Y685499D01*
X-406278Y677492D01*
X-403608Y693863D02*
X-416955Y693863D01*
X-403608Y693863D02*
X-400939Y696532D01*
X-400939Y701871D01*
X-403608Y704540D01*
X-416955Y704540D01*
X-416955Y715573D02*
X-400939Y715573D01*
X-416955Y710235D02*
X-416955Y720912D01*
D10*
X81280Y582930D02*
X81280Y580390D01*
X81280Y582930D02*
X83820Y582930D01*
X81280Y582930D02*
X81280Y585470D01*
X81280Y582930D02*
X78740Y582930D01*
X68580Y596900D02*
X68588Y597523D01*
X68611Y598146D01*
X68649Y598769D01*
X68702Y599390D01*
X68771Y600009D01*
X68855Y600627D01*
X68954Y601242D01*
X69068Y601855D01*
X69197Y602465D01*
X69341Y603072D01*
X69500Y603675D01*
X69674Y604273D01*
X69862Y604868D01*
X70065Y605457D01*
X70282Y606041D01*
X70513Y606620D01*
X70759Y607193D01*
X71019Y607760D01*
X71292Y608320D01*
X71579Y608873D01*
X71880Y609420D01*
X72194Y609958D01*
X72521Y610489D01*
X72861Y611011D01*
X73213Y611526D01*
X73579Y612031D01*
X73956Y612527D01*
X74346Y613014D01*
X74747Y613491D01*
X75160Y613958D01*
X75584Y614414D01*
X76019Y614861D01*
X76466Y615296D01*
X76922Y615720D01*
X77389Y616133D01*
X77866Y616534D01*
X78353Y616924D01*
X78849Y617301D01*
X79354Y617667D01*
X79869Y618019D01*
X80391Y618359D01*
X80922Y618686D01*
X81460Y619000D01*
X82007Y619301D01*
X82560Y619588D01*
X83120Y619861D01*
X83687Y620121D01*
X84260Y620367D01*
X84839Y620598D01*
X85423Y620815D01*
X86012Y621018D01*
X86607Y621206D01*
X87205Y621380D01*
X87808Y621539D01*
X88415Y621683D01*
X89025Y621812D01*
X89638Y621926D01*
X90253Y622025D01*
X90871Y622109D01*
X91490Y622178D01*
X92111Y622231D01*
X92734Y622269D01*
X93357Y622292D01*
X93980Y622300D01*
X94603Y622292D01*
X95226Y622269D01*
X95849Y622231D01*
X96470Y622178D01*
X97089Y622109D01*
X97707Y622025D01*
X98322Y621926D01*
X98935Y621812D01*
X99545Y621683D01*
X100152Y621539D01*
X100755Y621380D01*
X101353Y621206D01*
X101948Y621018D01*
X102537Y620815D01*
X103121Y620598D01*
X103700Y620367D01*
X104273Y620121D01*
X104840Y619861D01*
X105400Y619588D01*
X105953Y619301D01*
X106500Y619000D01*
X107038Y618686D01*
X107569Y618359D01*
X108091Y618019D01*
X108606Y617667D01*
X109111Y617301D01*
X109607Y616924D01*
X110094Y616534D01*
X110571Y616133D01*
X111038Y615720D01*
X111494Y615296D01*
X111941Y614861D01*
X112376Y614414D01*
X112800Y613958D01*
X113213Y613491D01*
X113614Y613014D01*
X114004Y612527D01*
X114381Y612031D01*
X114747Y611526D01*
X115099Y611011D01*
X115439Y610489D01*
X115766Y609958D01*
X116080Y609420D01*
X116381Y608873D01*
X116668Y608320D01*
X116941Y607760D01*
X117201Y607193D01*
X117447Y606620D01*
X117678Y606041D01*
X117895Y605457D01*
X118098Y604868D01*
X118286Y604273D01*
X118460Y603675D01*
X118619Y603072D01*
X118763Y602465D01*
X118892Y601855D01*
X119006Y601242D01*
X119105Y600627D01*
X119189Y600009D01*
X119258Y599390D01*
X119311Y598769D01*
X119349Y598146D01*
X119372Y597523D01*
X119380Y596900D01*
X119372Y596277D01*
X119349Y595654D01*
X119311Y595031D01*
X119258Y594410D01*
X119189Y593791D01*
X119105Y593173D01*
X119006Y592558D01*
X118892Y591945D01*
X118763Y591335D01*
X118619Y590728D01*
X118460Y590125D01*
X118286Y589527D01*
X118098Y588932D01*
X117895Y588343D01*
X117678Y587759D01*
X117447Y587180D01*
X117201Y586607D01*
X116941Y586040D01*
X116668Y585480D01*
X116381Y584927D01*
X116080Y584380D01*
X115766Y583842D01*
X115439Y583311D01*
X115099Y582789D01*
X114747Y582274D01*
X114381Y581769D01*
X114004Y581273D01*
X113614Y580786D01*
X113213Y580309D01*
X112800Y579842D01*
X112376Y579386D01*
X111941Y578939D01*
X111494Y578504D01*
X111038Y578080D01*
X110571Y577667D01*
X110094Y577266D01*
X109607Y576876D01*
X109111Y576499D01*
X108606Y576133D01*
X108091Y575781D01*
X107569Y575441D01*
X107038Y575114D01*
X106500Y574800D01*
X105953Y574499D01*
X105400Y574212D01*
X104840Y573939D01*
X104273Y573679D01*
X103700Y573433D01*
X103121Y573202D01*
X102537Y572985D01*
X101948Y572782D01*
X101353Y572594D01*
X100755Y572420D01*
X100152Y572261D01*
X99545Y572117D01*
X98935Y571988D01*
X98322Y571874D01*
X97707Y571775D01*
X97089Y571691D01*
X96470Y571622D01*
X95849Y571569D01*
X95226Y571531D01*
X94603Y571508D01*
X93980Y571500D01*
X93357Y571508D01*
X92734Y571531D01*
X92111Y571569D01*
X91490Y571622D01*
X90871Y571691D01*
X90253Y571775D01*
X89638Y571874D01*
X89025Y571988D01*
X88415Y572117D01*
X87808Y572261D01*
X87205Y572420D01*
X86607Y572594D01*
X86012Y572782D01*
X85423Y572985D01*
X84839Y573202D01*
X84260Y573433D01*
X83687Y573679D01*
X83120Y573939D01*
X82560Y574212D01*
X82007Y574499D01*
X81460Y574800D01*
X80922Y575114D01*
X80391Y575441D01*
X79869Y575781D01*
X79354Y576133D01*
X78849Y576499D01*
X78353Y576876D01*
X77866Y577266D01*
X77389Y577667D01*
X76922Y578080D01*
X76466Y578504D01*
X76019Y578939D01*
X75584Y579386D01*
X75160Y579842D01*
X74747Y580309D01*
X74346Y580786D01*
X73956Y581273D01*
X73579Y581769D01*
X73213Y582274D01*
X72861Y582789D01*
X72521Y583311D01*
X72194Y583842D01*
X71880Y584380D01*
X71579Y584927D01*
X71292Y585480D01*
X71019Y586040D01*
X70759Y586607D01*
X70513Y587180D01*
X70282Y587759D01*
X70065Y588343D01*
X69862Y588932D01*
X69674Y589527D01*
X69500Y590125D01*
X69341Y590728D01*
X69197Y591335D01*
X69068Y591945D01*
X68954Y592558D01*
X68855Y593173D01*
X68771Y593791D01*
X68702Y594410D01*
X68649Y595031D01*
X68611Y595654D01*
X68588Y596277D01*
X68580Y596900D01*
D11*
X69205Y627385D02*
X71112Y629292D01*
X69205Y627385D02*
X69205Y623572D01*
X71112Y621665D01*
X78738Y621665D01*
X80645Y623572D01*
X80645Y627385D01*
X78738Y629292D01*
X69205Y633359D02*
X69205Y640985D01*
X71112Y640985D01*
X78738Y633359D01*
X80645Y633359D01*
D10*
X-101600Y775970D02*
X-101600Y819150D01*
X-76200Y819150D02*
X-76200Y775970D01*
X-78740Y821690D02*
X-99060Y821690D01*
X-99060Y773430D02*
X-78740Y773430D01*
X-101600Y819150D02*
X-101598Y819250D01*
X-101592Y819349D01*
X-101582Y819449D01*
X-101569Y819547D01*
X-101551Y819646D01*
X-101530Y819743D01*
X-101505Y819839D01*
X-101476Y819935D01*
X-101443Y820029D01*
X-101407Y820122D01*
X-101367Y820213D01*
X-101323Y820303D01*
X-101276Y820391D01*
X-101226Y820477D01*
X-101172Y820561D01*
X-101115Y820643D01*
X-101055Y820722D01*
X-100991Y820800D01*
X-100925Y820874D01*
X-100856Y820946D01*
X-100784Y821015D01*
X-100710Y821081D01*
X-100632Y821145D01*
X-100553Y821205D01*
X-100471Y821262D01*
X-100387Y821316D01*
X-100301Y821366D01*
X-100213Y821413D01*
X-100123Y821457D01*
X-100032Y821497D01*
X-99939Y821533D01*
X-99845Y821566D01*
X-99749Y821595D01*
X-99653Y821620D01*
X-99556Y821641D01*
X-99457Y821659D01*
X-99359Y821672D01*
X-99259Y821682D01*
X-99160Y821688D01*
X-99060Y821690D01*
X-101600Y775970D02*
X-101598Y775870D01*
X-101592Y775771D01*
X-101582Y775671D01*
X-101569Y775573D01*
X-101551Y775474D01*
X-101530Y775377D01*
X-101505Y775281D01*
X-101476Y775185D01*
X-101443Y775091D01*
X-101407Y774998D01*
X-101367Y774907D01*
X-101323Y774817D01*
X-101276Y774729D01*
X-101226Y774643D01*
X-101172Y774559D01*
X-101115Y774477D01*
X-101055Y774398D01*
X-100991Y774320D01*
X-100925Y774246D01*
X-100856Y774174D01*
X-100784Y774105D01*
X-100710Y774039D01*
X-100632Y773975D01*
X-100553Y773915D01*
X-100471Y773858D01*
X-100387Y773804D01*
X-100301Y773754D01*
X-100213Y773707D01*
X-100123Y773663D01*
X-100032Y773623D01*
X-99939Y773587D01*
X-99845Y773554D01*
X-99749Y773525D01*
X-99653Y773500D01*
X-99556Y773479D01*
X-99457Y773461D01*
X-99359Y773448D01*
X-99259Y773438D01*
X-99160Y773432D01*
X-99060Y773430D01*
X-76200Y819150D02*
X-76202Y819250D01*
X-76208Y819349D01*
X-76218Y819449D01*
X-76231Y819547D01*
X-76249Y819646D01*
X-76270Y819743D01*
X-76295Y819839D01*
X-76324Y819935D01*
X-76357Y820029D01*
X-76393Y820122D01*
X-76433Y820213D01*
X-76477Y820303D01*
X-76524Y820391D01*
X-76574Y820477D01*
X-76628Y820561D01*
X-76685Y820643D01*
X-76745Y820722D01*
X-76809Y820800D01*
X-76875Y820874D01*
X-76944Y820946D01*
X-77016Y821015D01*
X-77090Y821081D01*
X-77168Y821145D01*
X-77247Y821205D01*
X-77329Y821262D01*
X-77413Y821316D01*
X-77499Y821366D01*
X-77587Y821413D01*
X-77677Y821457D01*
X-77768Y821497D01*
X-77861Y821533D01*
X-77955Y821566D01*
X-78051Y821595D01*
X-78147Y821620D01*
X-78244Y821641D01*
X-78343Y821659D01*
X-78441Y821672D01*
X-78541Y821682D01*
X-78640Y821688D01*
X-78740Y821690D01*
X-76200Y775970D02*
X-76202Y775870D01*
X-76208Y775771D01*
X-76218Y775671D01*
X-76231Y775573D01*
X-76249Y775474D01*
X-76270Y775377D01*
X-76295Y775281D01*
X-76324Y775185D01*
X-76357Y775091D01*
X-76393Y774998D01*
X-76433Y774907D01*
X-76477Y774817D01*
X-76524Y774729D01*
X-76574Y774643D01*
X-76628Y774559D01*
X-76685Y774477D01*
X-76745Y774398D01*
X-76809Y774320D01*
X-76875Y774246D01*
X-76944Y774174D01*
X-77016Y774105D01*
X-77090Y774039D01*
X-77168Y773975D01*
X-77247Y773915D01*
X-77329Y773858D01*
X-77413Y773804D01*
X-77499Y773754D01*
X-77587Y773707D01*
X-77677Y773663D01*
X-77768Y773623D01*
X-77861Y773587D01*
X-77955Y773554D01*
X-78051Y773525D01*
X-78147Y773500D01*
X-78244Y773479D01*
X-78343Y773461D01*
X-78441Y773448D01*
X-78541Y773438D01*
X-78640Y773432D01*
X-78740Y773430D01*
X-88900Y800100D02*
X-88900Y801370D01*
D15*
X-88900Y800100D02*
X-96520Y800100D01*
X-88900Y800100D02*
X-81280Y800100D01*
X-88900Y795020D02*
X-96520Y795020D01*
X-88900Y795020D02*
X-81280Y795020D01*
D10*
X-88900Y795020D02*
X-88900Y793750D01*
D11*
X-114308Y782962D02*
X-116215Y781055D01*
X-116215Y777242D01*
X-114308Y775335D01*
X-106682Y775335D01*
X-104775Y777242D01*
X-104775Y781055D01*
X-106682Y782962D01*
X-116215Y787029D02*
X-116215Y794655D01*
X-116215Y787029D02*
X-110495Y787029D01*
X-112402Y790842D01*
X-112402Y792749D01*
X-110495Y794655D01*
X-106682Y794655D01*
X-104775Y792749D01*
X-104775Y788936D01*
X-106682Y787029D01*
D10*
X-101600Y748030D02*
X-101600Y704850D01*
X-76200Y704850D02*
X-76200Y748030D01*
X-78740Y750570D02*
X-99060Y750570D01*
X-99060Y702310D02*
X-78740Y702310D01*
X-101600Y748030D02*
X-101598Y748130D01*
X-101592Y748229D01*
X-101582Y748329D01*
X-101569Y748427D01*
X-101551Y748526D01*
X-101530Y748623D01*
X-101505Y748719D01*
X-101476Y748815D01*
X-101443Y748909D01*
X-101407Y749002D01*
X-101367Y749093D01*
X-101323Y749183D01*
X-101276Y749271D01*
X-101226Y749357D01*
X-101172Y749441D01*
X-101115Y749523D01*
X-101055Y749602D01*
X-100991Y749680D01*
X-100925Y749754D01*
X-100856Y749826D01*
X-100784Y749895D01*
X-100710Y749961D01*
X-100632Y750025D01*
X-100553Y750085D01*
X-100471Y750142D01*
X-100387Y750196D01*
X-100301Y750246D01*
X-100213Y750293D01*
X-100123Y750337D01*
X-100032Y750377D01*
X-99939Y750413D01*
X-99845Y750446D01*
X-99749Y750475D01*
X-99653Y750500D01*
X-99556Y750521D01*
X-99457Y750539D01*
X-99359Y750552D01*
X-99259Y750562D01*
X-99160Y750568D01*
X-99060Y750570D01*
X-101600Y704850D02*
X-101598Y704750D01*
X-101592Y704651D01*
X-101582Y704551D01*
X-101569Y704453D01*
X-101551Y704354D01*
X-101530Y704257D01*
X-101505Y704161D01*
X-101476Y704065D01*
X-101443Y703971D01*
X-101407Y703878D01*
X-101367Y703787D01*
X-101323Y703697D01*
X-101276Y703609D01*
X-101226Y703523D01*
X-101172Y703439D01*
X-101115Y703357D01*
X-101055Y703278D01*
X-100991Y703200D01*
X-100925Y703126D01*
X-100856Y703054D01*
X-100784Y702985D01*
X-100710Y702919D01*
X-100632Y702855D01*
X-100553Y702795D01*
X-100471Y702738D01*
X-100387Y702684D01*
X-100301Y702634D01*
X-100213Y702587D01*
X-100123Y702543D01*
X-100032Y702503D01*
X-99939Y702467D01*
X-99845Y702434D01*
X-99749Y702405D01*
X-99653Y702380D01*
X-99556Y702359D01*
X-99457Y702341D01*
X-99359Y702328D01*
X-99259Y702318D01*
X-99160Y702312D01*
X-99060Y702310D01*
X-76200Y748030D02*
X-76202Y748130D01*
X-76208Y748229D01*
X-76218Y748329D01*
X-76231Y748427D01*
X-76249Y748526D01*
X-76270Y748623D01*
X-76295Y748719D01*
X-76324Y748815D01*
X-76357Y748909D01*
X-76393Y749002D01*
X-76433Y749093D01*
X-76477Y749183D01*
X-76524Y749271D01*
X-76574Y749357D01*
X-76628Y749441D01*
X-76685Y749523D01*
X-76745Y749602D01*
X-76809Y749680D01*
X-76875Y749754D01*
X-76944Y749826D01*
X-77016Y749895D01*
X-77090Y749961D01*
X-77168Y750025D01*
X-77247Y750085D01*
X-77329Y750142D01*
X-77413Y750196D01*
X-77499Y750246D01*
X-77587Y750293D01*
X-77677Y750337D01*
X-77768Y750377D01*
X-77861Y750413D01*
X-77955Y750446D01*
X-78051Y750475D01*
X-78147Y750500D01*
X-78244Y750521D01*
X-78343Y750539D01*
X-78441Y750552D01*
X-78541Y750562D01*
X-78640Y750568D01*
X-78740Y750570D01*
X-76200Y704850D02*
X-76202Y704750D01*
X-76208Y704651D01*
X-76218Y704551D01*
X-76231Y704453D01*
X-76249Y704354D01*
X-76270Y704257D01*
X-76295Y704161D01*
X-76324Y704065D01*
X-76357Y703971D01*
X-76393Y703878D01*
X-76433Y703787D01*
X-76477Y703697D01*
X-76524Y703609D01*
X-76574Y703523D01*
X-76628Y703439D01*
X-76685Y703357D01*
X-76745Y703278D01*
X-76809Y703200D01*
X-76875Y703126D01*
X-76944Y703054D01*
X-77016Y702985D01*
X-77090Y702919D01*
X-77168Y702855D01*
X-77247Y702795D01*
X-77329Y702738D01*
X-77413Y702684D01*
X-77499Y702634D01*
X-77587Y702587D01*
X-77677Y702543D01*
X-77768Y702503D01*
X-77861Y702467D01*
X-77955Y702434D01*
X-78051Y702405D01*
X-78147Y702380D01*
X-78244Y702359D01*
X-78343Y702341D01*
X-78441Y702328D01*
X-78541Y702318D01*
X-78640Y702312D01*
X-78740Y702310D01*
X-88900Y728980D02*
X-88900Y730250D01*
D15*
X-88900Y728980D02*
X-96520Y728980D01*
X-88900Y728980D02*
X-81280Y728980D01*
X-88900Y723900D02*
X-96520Y723900D01*
X-88900Y723900D02*
X-81280Y723900D01*
D10*
X-88900Y723900D02*
X-88900Y722630D01*
D11*
X-114308Y711842D02*
X-116215Y709935D01*
X-116215Y706122D01*
X-114308Y704215D01*
X-106682Y704215D01*
X-104775Y706122D01*
X-104775Y709935D01*
X-106682Y711842D01*
X-106682Y715909D02*
X-104775Y717816D01*
X-104775Y721629D01*
X-106682Y723535D01*
X-114308Y723535D01*
X-116215Y721629D01*
X-116215Y717816D01*
X-114308Y715909D01*
X-112402Y715909D01*
X-110495Y717816D01*
X-110495Y723535D01*
D10*
X139700Y480060D02*
X139700Y477520D01*
X139700Y480060D02*
X124460Y480060D01*
X124460Y477520D01*
X124460Y416560D02*
X124460Y414020D01*
X139700Y414020D01*
X139700Y416560D01*
D16*
X104140Y434340D02*
X101600Y434340D01*
X104140Y434340D02*
X104140Y459740D01*
X101600Y459740D01*
X160020Y458470D02*
X160020Y434340D01*
X160020Y458470D02*
X162560Y458470D01*
X162560Y434340D02*
X160020Y434340D01*
D10*
X162560Y434340D02*
X162560Y425450D01*
X101600Y459740D02*
X101600Y468630D01*
X101600Y459740D02*
X101600Y434340D01*
X101600Y425450D01*
X162560Y434340D02*
X162560Y458470D01*
X162560Y468630D01*
X142240Y477520D02*
X139700Y477520D01*
X124460Y477520D02*
X121920Y477520D01*
X139700Y416560D02*
X142240Y416560D01*
X124460Y416560D02*
X121920Y416560D01*
X114300Y447040D02*
X114305Y447476D01*
X114321Y447912D01*
X114348Y448348D01*
X114386Y448783D01*
X114434Y449216D01*
X114492Y449649D01*
X114562Y450080D01*
X114642Y450509D01*
X114732Y450936D01*
X114833Y451360D01*
X114944Y451782D01*
X115066Y452201D01*
X115197Y452617D01*
X115339Y453030D01*
X115491Y453439D01*
X115653Y453844D01*
X115825Y454245D01*
X116007Y454642D01*
X116198Y455034D01*
X116399Y455421D01*
X116610Y455804D01*
X116830Y456181D01*
X117059Y456552D01*
X117296Y456918D01*
X117543Y457278D01*
X117799Y457632D01*
X118063Y457979D01*
X118336Y458320D01*
X118617Y458653D01*
X118906Y458980D01*
X119203Y459300D01*
X119508Y459612D01*
X119820Y459917D01*
X120140Y460214D01*
X120467Y460503D01*
X120800Y460784D01*
X121141Y461057D01*
X121488Y461321D01*
X121842Y461577D01*
X122202Y461824D01*
X122568Y462061D01*
X122939Y462290D01*
X123316Y462510D01*
X123699Y462721D01*
X124086Y462922D01*
X124478Y463113D01*
X124875Y463295D01*
X125276Y463467D01*
X125681Y463629D01*
X126090Y463781D01*
X126503Y463923D01*
X126919Y464054D01*
X127338Y464176D01*
X127760Y464287D01*
X128184Y464388D01*
X128611Y464478D01*
X129040Y464558D01*
X129471Y464628D01*
X129904Y464686D01*
X130337Y464734D01*
X130772Y464772D01*
X131208Y464799D01*
X131644Y464815D01*
X132080Y464820D01*
X132516Y464815D01*
X132952Y464799D01*
X133388Y464772D01*
X133823Y464734D01*
X134256Y464686D01*
X134689Y464628D01*
X135120Y464558D01*
X135549Y464478D01*
X135976Y464388D01*
X136400Y464287D01*
X136822Y464176D01*
X137241Y464054D01*
X137657Y463923D01*
X138070Y463781D01*
X138479Y463629D01*
X138884Y463467D01*
X139285Y463295D01*
X139682Y463113D01*
X140074Y462922D01*
X140461Y462721D01*
X140844Y462510D01*
X141221Y462290D01*
X141592Y462061D01*
X141958Y461824D01*
X142318Y461577D01*
X142672Y461321D01*
X143019Y461057D01*
X143360Y460784D01*
X143693Y460503D01*
X144020Y460214D01*
X144340Y459917D01*
X144652Y459612D01*
X144957Y459300D01*
X145254Y458980D01*
X145543Y458653D01*
X145824Y458320D01*
X146097Y457979D01*
X146361Y457632D01*
X146617Y457278D01*
X146864Y456918D01*
X147101Y456552D01*
X147330Y456181D01*
X147550Y455804D01*
X147761Y455421D01*
X147962Y455034D01*
X148153Y454642D01*
X148335Y454245D01*
X148507Y453844D01*
X148669Y453439D01*
X148821Y453030D01*
X148963Y452617D01*
X149094Y452201D01*
X149216Y451782D01*
X149327Y451360D01*
X149428Y450936D01*
X149518Y450509D01*
X149598Y450080D01*
X149668Y449649D01*
X149726Y449216D01*
X149774Y448783D01*
X149812Y448348D01*
X149839Y447912D01*
X149855Y447476D01*
X149860Y447040D01*
X149855Y446604D01*
X149839Y446168D01*
X149812Y445732D01*
X149774Y445297D01*
X149726Y444864D01*
X149668Y444431D01*
X149598Y444000D01*
X149518Y443571D01*
X149428Y443144D01*
X149327Y442720D01*
X149216Y442298D01*
X149094Y441879D01*
X148963Y441463D01*
X148821Y441050D01*
X148669Y440641D01*
X148507Y440236D01*
X148335Y439835D01*
X148153Y439438D01*
X147962Y439046D01*
X147761Y438659D01*
X147550Y438276D01*
X147330Y437899D01*
X147101Y437528D01*
X146864Y437162D01*
X146617Y436802D01*
X146361Y436448D01*
X146097Y436101D01*
X145824Y435760D01*
X145543Y435427D01*
X145254Y435100D01*
X144957Y434780D01*
X144652Y434468D01*
X144340Y434163D01*
X144020Y433866D01*
X143693Y433577D01*
X143360Y433296D01*
X143019Y433023D01*
X142672Y432759D01*
X142318Y432503D01*
X141958Y432256D01*
X141592Y432019D01*
X141221Y431790D01*
X140844Y431570D01*
X140461Y431359D01*
X140074Y431158D01*
X139682Y430967D01*
X139285Y430785D01*
X138884Y430613D01*
X138479Y430451D01*
X138070Y430299D01*
X137657Y430157D01*
X137241Y430026D01*
X136822Y429904D01*
X136400Y429793D01*
X135976Y429692D01*
X135549Y429602D01*
X135120Y429522D01*
X134689Y429452D01*
X134256Y429394D01*
X133823Y429346D01*
X133388Y429308D01*
X132952Y429281D01*
X132516Y429265D01*
X132080Y429260D01*
X131644Y429265D01*
X131208Y429281D01*
X130772Y429308D01*
X130337Y429346D01*
X129904Y429394D01*
X129471Y429452D01*
X129040Y429522D01*
X128611Y429602D01*
X128184Y429692D01*
X127760Y429793D01*
X127338Y429904D01*
X126919Y430026D01*
X126503Y430157D01*
X126090Y430299D01*
X125681Y430451D01*
X125276Y430613D01*
X124875Y430785D01*
X124478Y430967D01*
X124086Y431158D01*
X123699Y431359D01*
X123316Y431570D01*
X122939Y431790D01*
X122568Y432019D01*
X122202Y432256D01*
X121842Y432503D01*
X121488Y432759D01*
X121141Y433023D01*
X120800Y433296D01*
X120467Y433577D01*
X120140Y433866D01*
X119820Y434163D01*
X119508Y434468D01*
X119203Y434780D01*
X118906Y435100D01*
X118617Y435427D01*
X118336Y435760D01*
X118063Y436101D01*
X117799Y436448D01*
X117543Y436802D01*
X117296Y437162D01*
X117059Y437528D01*
X116830Y437899D01*
X116610Y438276D01*
X116399Y438659D01*
X116198Y439046D01*
X116007Y439438D01*
X115825Y439835D01*
X115653Y440236D01*
X115491Y440641D01*
X115339Y441050D01*
X115197Y441463D01*
X115066Y441879D01*
X114944Y442298D01*
X114833Y442720D01*
X114732Y443144D01*
X114642Y443571D01*
X114562Y444000D01*
X114492Y444431D01*
X114434Y444864D01*
X114386Y445297D01*
X114348Y445732D01*
X114321Y446168D01*
X114305Y446604D01*
X114300Y447040D01*
X129540Y447040D02*
X129542Y447140D01*
X129548Y447241D01*
X129558Y447340D01*
X129572Y447440D01*
X129589Y447539D01*
X129611Y447637D01*
X129637Y447734D01*
X129666Y447830D01*
X129699Y447924D01*
X129736Y448018D01*
X129776Y448110D01*
X129820Y448200D01*
X129868Y448288D01*
X129919Y448375D01*
X129973Y448459D01*
X130031Y448541D01*
X130092Y448621D01*
X130156Y448698D01*
X130223Y448773D01*
X130293Y448845D01*
X130366Y448914D01*
X130441Y448980D01*
X130519Y449044D01*
X130599Y449104D01*
X130682Y449161D01*
X130767Y449214D01*
X130854Y449264D01*
X130943Y449311D01*
X131033Y449354D01*
X131125Y449394D01*
X131219Y449430D01*
X131314Y449462D01*
X131410Y449490D01*
X131508Y449515D01*
X131606Y449535D01*
X131705Y449552D01*
X131805Y449565D01*
X131904Y449574D01*
X132005Y449579D01*
X132105Y449580D01*
X132205Y449577D01*
X132306Y449570D01*
X132405Y449559D01*
X132505Y449544D01*
X132603Y449526D01*
X132701Y449503D01*
X132798Y449476D01*
X132893Y449446D01*
X132988Y449412D01*
X133081Y449374D01*
X133172Y449333D01*
X133262Y449288D01*
X133350Y449240D01*
X133436Y449188D01*
X133520Y449133D01*
X133601Y449074D01*
X133680Y449012D01*
X133757Y448948D01*
X133831Y448880D01*
X133902Y448809D01*
X133971Y448736D01*
X134036Y448660D01*
X134099Y448581D01*
X134158Y448500D01*
X134214Y448417D01*
X134267Y448332D01*
X134316Y448244D01*
X134362Y448155D01*
X134404Y448064D01*
X134443Y447971D01*
X134478Y447877D01*
X134509Y447782D01*
X134537Y447685D01*
X134560Y447588D01*
X134580Y447489D01*
X134596Y447390D01*
X134608Y447291D01*
X134616Y447190D01*
X134620Y447090D01*
X134620Y446990D01*
X134616Y446890D01*
X134608Y446789D01*
X134596Y446690D01*
X134580Y446591D01*
X134560Y446492D01*
X134537Y446395D01*
X134509Y446298D01*
X134478Y446203D01*
X134443Y446109D01*
X134404Y446016D01*
X134362Y445925D01*
X134316Y445836D01*
X134267Y445748D01*
X134214Y445663D01*
X134158Y445580D01*
X134099Y445499D01*
X134036Y445420D01*
X133971Y445344D01*
X133902Y445271D01*
X133831Y445200D01*
X133757Y445132D01*
X133680Y445068D01*
X133601Y445006D01*
X133520Y444947D01*
X133436Y444892D01*
X133350Y444840D01*
X133262Y444792D01*
X133172Y444747D01*
X133081Y444706D01*
X132988Y444668D01*
X132893Y444634D01*
X132798Y444604D01*
X132701Y444577D01*
X132603Y444554D01*
X132505Y444536D01*
X132405Y444521D01*
X132306Y444510D01*
X132205Y444503D01*
X132105Y444500D01*
X132005Y444501D01*
X131904Y444506D01*
X131805Y444515D01*
X131705Y444528D01*
X131606Y444545D01*
X131508Y444565D01*
X131410Y444590D01*
X131314Y444618D01*
X131219Y444650D01*
X131125Y444686D01*
X131033Y444726D01*
X130943Y444769D01*
X130854Y444816D01*
X130767Y444866D01*
X130682Y444919D01*
X130599Y444976D01*
X130519Y445036D01*
X130441Y445100D01*
X130366Y445166D01*
X130293Y445235D01*
X130223Y445307D01*
X130156Y445382D01*
X130092Y445459D01*
X130031Y445539D01*
X129973Y445621D01*
X129919Y445705D01*
X129868Y445792D01*
X129820Y445880D01*
X129776Y445970D01*
X129736Y446062D01*
X129699Y446156D01*
X129666Y446250D01*
X129637Y446346D01*
X129611Y446443D01*
X129589Y446541D01*
X129572Y446640D01*
X129558Y446740D01*
X129548Y446839D01*
X129542Y446940D01*
X129540Y447040D01*
D11*
X85082Y424822D02*
X83175Y422915D01*
X83175Y419102D01*
X85082Y417195D01*
X86989Y417195D01*
X88895Y419102D01*
X88895Y422915D01*
X90802Y424822D01*
X92708Y424822D01*
X94615Y422915D01*
X94615Y419102D01*
X92708Y417195D01*
X86989Y428889D02*
X83175Y432702D01*
X94615Y432702D01*
X94615Y428889D02*
X94615Y436515D01*
X-64200Y464420D02*
X-215200Y464420D01*
X-215200Y387420D02*
X-64200Y387420D01*
X-215200Y447420D02*
X-215200Y464420D01*
X-215200Y447420D02*
X-215200Y387420D01*
X-64200Y447420D02*
X-64200Y464420D01*
X-64200Y447420D02*
X-64200Y387420D01*
X-64200Y447420D02*
X-215200Y447420D01*
D17*
X-199192Y406622D02*
X-199192Y396877D01*
X-197243Y394928D01*
X-193345Y394928D01*
X-191396Y396877D01*
X-191396Y406622D01*
X-187498Y402724D02*
X-183600Y406622D01*
X-183600Y394928D01*
X-187498Y394928D02*
X-179702Y394928D01*
D10*
X-196850Y596900D02*
X-300990Y596900D01*
X-300990Y755650D02*
X-196850Y755650D01*
X-196850Y721360D02*
X-196850Y596900D01*
X-196850Y721360D02*
X-205740Y721360D01*
X-205740Y736600D01*
X-196850Y736600D01*
X-196850Y755650D01*
X-300990Y721360D02*
X-300990Y596900D01*
X-300990Y721360D02*
X-292100Y721360D01*
X-292100Y736600D01*
X-300990Y736600D01*
X-300990Y755650D01*
D16*
X-294640Y603250D02*
X-203200Y603250D01*
X-203200Y685800D01*
X-294640Y685800D01*
X-294640Y603250D01*
D10*
X-266954Y721360D02*
X-266949Y721803D01*
X-266932Y722245D01*
X-266905Y722687D01*
X-266867Y723128D01*
X-266818Y723568D01*
X-266759Y724006D01*
X-266688Y724443D01*
X-266607Y724878D01*
X-266516Y725311D01*
X-266414Y725742D01*
X-266301Y726170D01*
X-266177Y726595D01*
X-266044Y727017D01*
X-265900Y727435D01*
X-265746Y727850D01*
X-265581Y728261D01*
X-265407Y728668D01*
X-265223Y729071D01*
X-265028Y729468D01*
X-264825Y729861D01*
X-264611Y730249D01*
X-264388Y730631D01*
X-264156Y731008D01*
X-263915Y731379D01*
X-263664Y731744D01*
X-263405Y732103D01*
X-263137Y732455D01*
X-262860Y732801D01*
X-262576Y733139D01*
X-262282Y733471D01*
X-261981Y733795D01*
X-261672Y734112D01*
X-261355Y734421D01*
X-261031Y734722D01*
X-260699Y735016D01*
X-260361Y735300D01*
X-260015Y735577D01*
X-259663Y735845D01*
X-259304Y736104D01*
X-258939Y736355D01*
X-258568Y736596D01*
X-258191Y736828D01*
X-257809Y737051D01*
X-257421Y737265D01*
X-257028Y737468D01*
X-256631Y737663D01*
X-256228Y737847D01*
X-255821Y738021D01*
X-255410Y738186D01*
X-254995Y738340D01*
X-254577Y738484D01*
X-254155Y738617D01*
X-253730Y738741D01*
X-253302Y738854D01*
X-252871Y738956D01*
X-252438Y739047D01*
X-252003Y739128D01*
X-251566Y739199D01*
X-251128Y739258D01*
X-250688Y739307D01*
X-250247Y739345D01*
X-249805Y739372D01*
X-249363Y739389D01*
X-248920Y739394D01*
X-248477Y739389D01*
X-248035Y739372D01*
X-247593Y739345D01*
X-247152Y739307D01*
X-246712Y739258D01*
X-246274Y739199D01*
X-245837Y739128D01*
X-245402Y739047D01*
X-244969Y738956D01*
X-244538Y738854D01*
X-244110Y738741D01*
X-243685Y738617D01*
X-243263Y738484D01*
X-242845Y738340D01*
X-242430Y738186D01*
X-242019Y738021D01*
X-241612Y737847D01*
X-241209Y737663D01*
X-240812Y737468D01*
X-240419Y737265D01*
X-240031Y737051D01*
X-239649Y736828D01*
X-239272Y736596D01*
X-238901Y736355D01*
X-238536Y736104D01*
X-238177Y735845D01*
X-237825Y735577D01*
X-237479Y735300D01*
X-237141Y735016D01*
X-236809Y734722D01*
X-236485Y734421D01*
X-236168Y734112D01*
X-235859Y733795D01*
X-235558Y733471D01*
X-235264Y733139D01*
X-234980Y732801D01*
X-234703Y732455D01*
X-234435Y732103D01*
X-234176Y731744D01*
X-233925Y731379D01*
X-233684Y731008D01*
X-233452Y730631D01*
X-233229Y730249D01*
X-233015Y729861D01*
X-232812Y729468D01*
X-232617Y729071D01*
X-232433Y728668D01*
X-232259Y728261D01*
X-232094Y727850D01*
X-231940Y727435D01*
X-231796Y727017D01*
X-231663Y726595D01*
X-231539Y726170D01*
X-231426Y725742D01*
X-231324Y725311D01*
X-231233Y724878D01*
X-231152Y724443D01*
X-231081Y724006D01*
X-231022Y723568D01*
X-230973Y723128D01*
X-230935Y722687D01*
X-230908Y722245D01*
X-230891Y721803D01*
X-230886Y721360D01*
X-230891Y720917D01*
X-230908Y720475D01*
X-230935Y720033D01*
X-230973Y719592D01*
X-231022Y719152D01*
X-231081Y718714D01*
X-231152Y718277D01*
X-231233Y717842D01*
X-231324Y717409D01*
X-231426Y716978D01*
X-231539Y716550D01*
X-231663Y716125D01*
X-231796Y715703D01*
X-231940Y715285D01*
X-232094Y714870D01*
X-232259Y714459D01*
X-232433Y714052D01*
X-232617Y713649D01*
X-232812Y713252D01*
X-233015Y712859D01*
X-233229Y712471D01*
X-233452Y712089D01*
X-233684Y711712D01*
X-233925Y711341D01*
X-234176Y710976D01*
X-234435Y710617D01*
X-234703Y710265D01*
X-234980Y709919D01*
X-235264Y709581D01*
X-235558Y709249D01*
X-235859Y708925D01*
X-236168Y708608D01*
X-236485Y708299D01*
X-236809Y707998D01*
X-237141Y707704D01*
X-237479Y707420D01*
X-237825Y707143D01*
X-238177Y706875D01*
X-238536Y706616D01*
X-238901Y706365D01*
X-239272Y706124D01*
X-239649Y705892D01*
X-240031Y705669D01*
X-240419Y705455D01*
X-240812Y705252D01*
X-241209Y705057D01*
X-241612Y704873D01*
X-242019Y704699D01*
X-242430Y704534D01*
X-242845Y704380D01*
X-243263Y704236D01*
X-243685Y704103D01*
X-244110Y703979D01*
X-244538Y703866D01*
X-244969Y703764D01*
X-245402Y703673D01*
X-245837Y703592D01*
X-246274Y703521D01*
X-246712Y703462D01*
X-247152Y703413D01*
X-247593Y703375D01*
X-248035Y703348D01*
X-248477Y703331D01*
X-248920Y703326D01*
X-249363Y703331D01*
X-249805Y703348D01*
X-250247Y703375D01*
X-250688Y703413D01*
X-251128Y703462D01*
X-251566Y703521D01*
X-252003Y703592D01*
X-252438Y703673D01*
X-252871Y703764D01*
X-253302Y703866D01*
X-253730Y703979D01*
X-254155Y704103D01*
X-254577Y704236D01*
X-254995Y704380D01*
X-255410Y704534D01*
X-255821Y704699D01*
X-256228Y704873D01*
X-256631Y705057D01*
X-257028Y705252D01*
X-257421Y705455D01*
X-257809Y705669D01*
X-258191Y705892D01*
X-258568Y706124D01*
X-258939Y706365D01*
X-259304Y706616D01*
X-259663Y706875D01*
X-260015Y707143D01*
X-260361Y707420D01*
X-260699Y707704D01*
X-261031Y707998D01*
X-261355Y708299D01*
X-261672Y708608D01*
X-261981Y708925D01*
X-262282Y709249D01*
X-262576Y709581D01*
X-262860Y709919D01*
X-263137Y710265D01*
X-263405Y710617D01*
X-263664Y710976D01*
X-263915Y711341D01*
X-264156Y711712D01*
X-264388Y712089D01*
X-264611Y712471D01*
X-264825Y712859D01*
X-265028Y713252D01*
X-265223Y713649D01*
X-265407Y714052D01*
X-265581Y714459D01*
X-265746Y714870D01*
X-265900Y715285D01*
X-266044Y715703D01*
X-266177Y716125D01*
X-266301Y716550D01*
X-266414Y716978D01*
X-266516Y717409D01*
X-266607Y717842D01*
X-266688Y718277D01*
X-266759Y718714D01*
X-266818Y719152D01*
X-266867Y719592D01*
X-266905Y720033D01*
X-266932Y720475D01*
X-266949Y720917D01*
X-266954Y721360D01*
D17*
X-292862Y694949D02*
X-292862Y688848D01*
X-292862Y694949D02*
X-289811Y698000D01*
X-286761Y694949D01*
X-286761Y688848D01*
X-286761Y693424D02*
X-292862Y693424D01*
X-283507Y694949D02*
X-280456Y698000D01*
X-280456Y688848D01*
X-277406Y688848D02*
X-283507Y688848D01*
X-274152Y698000D02*
X-268050Y698000D01*
X-268050Y696475D01*
X-274152Y690373D01*
X-274152Y688848D01*
X-264796Y685797D02*
X-261746Y688848D01*
X-261746Y690373D01*
X-263271Y690373D01*
X-263271Y688848D01*
X-261746Y688848D01*
X-258560Y698000D02*
X-252458Y698000D01*
X-258560Y698000D02*
X-258560Y693424D01*
X-255509Y694949D01*
X-253984Y694949D01*
X-252458Y693424D01*
X-252458Y690373D01*
X-253984Y688848D01*
X-257034Y688848D01*
X-258560Y690373D01*
X-249204Y688848D02*
X-249204Y694949D01*
X-247679Y694949D01*
X-246154Y693424D01*
X-246154Y688848D01*
X-246154Y693424D02*
X-244629Y694949D01*
X-243103Y693424D01*
X-243103Y688848D01*
X-239849Y688848D02*
X-239849Y694949D01*
X-238324Y694949D01*
X-236799Y693424D01*
X-236799Y688848D01*
X-236799Y693424D02*
X-235273Y694949D01*
X-233748Y693424D01*
X-233748Y688848D01*
D18*
X-223520Y565785D03*
X-248920Y565785D03*
X-274320Y565785D03*
D19*
X-274320Y582930D03*
X-248920Y582930D03*
X-223520Y582930D03*
D12*
X-286131Y665228D02*
X-286131Y675905D01*
X-283462Y678575D01*
X-278123Y678575D01*
X-275454Y675905D01*
X-275454Y665228D01*
X-278123Y662559D01*
X-283462Y662559D01*
X-286131Y665228D01*
X-280792Y667898D02*
X-275454Y662559D01*
X-269759Y673236D02*
X-264421Y678575D01*
X-264421Y662559D01*
X-269759Y662559D02*
X-259082Y662559D01*
D20*
X408940Y444500D02*
X408940Y901700D01*
X408933Y902314D01*
X408910Y902927D01*
X408873Y903540D01*
X408821Y904151D01*
X408755Y904762D01*
X408673Y905370D01*
X408577Y905976D01*
X408467Y906580D01*
X408342Y907181D01*
X408202Y907779D01*
X408048Y908373D01*
X407879Y908963D01*
X407697Y909549D01*
X407500Y910130D01*
X407289Y910707D01*
X407065Y911278D01*
X406827Y911844D01*
X406575Y912404D01*
X406309Y912957D01*
X406031Y913504D01*
X405739Y914044D01*
X405434Y914577D01*
X405116Y915102D01*
X404786Y915620D01*
X404444Y916129D01*
X404089Y916630D01*
X403722Y917122D01*
X403344Y917605D01*
X402954Y918079D01*
X402552Y918543D01*
X402140Y918998D01*
X401716Y919442D01*
X401282Y919876D01*
X400838Y920300D01*
X400383Y920712D01*
X399919Y921114D01*
X399445Y921504D01*
X398962Y921882D01*
X398470Y922249D01*
X397969Y922604D01*
X397460Y922946D01*
X396942Y923276D01*
X396417Y923594D01*
X395884Y923899D01*
X395344Y924191D01*
X394797Y924469D01*
X394244Y924735D01*
X393684Y924987D01*
X393118Y925225D01*
X392547Y925449D01*
X391970Y925660D01*
X391389Y925857D01*
X390803Y926039D01*
X390213Y926208D01*
X389619Y926362D01*
X389021Y926502D01*
X388420Y926627D01*
X387816Y926737D01*
X387210Y926833D01*
X386602Y926915D01*
X385991Y926981D01*
X385380Y927033D01*
X384767Y927070D01*
X384154Y927093D01*
X383540Y927100D01*
X205740Y927100D01*
X205126Y927093D01*
X204513Y927070D01*
X203900Y927033D01*
X203289Y926981D01*
X202678Y926915D01*
X202070Y926833D01*
X201464Y926737D01*
X200860Y926627D01*
X200259Y926502D01*
X199661Y926362D01*
X199067Y926208D01*
X198477Y926039D01*
X197891Y925857D01*
X197310Y925660D01*
X196733Y925449D01*
X196162Y925225D01*
X195596Y924987D01*
X195036Y924735D01*
X194483Y924469D01*
X193936Y924191D01*
X193396Y923899D01*
X192863Y923594D01*
X192338Y923276D01*
X191820Y922946D01*
X191311Y922604D01*
X190810Y922249D01*
X190318Y921882D01*
X189835Y921504D01*
X189361Y921114D01*
X188897Y920712D01*
X188442Y920300D01*
X187998Y919876D01*
X187564Y919442D01*
X187140Y918998D01*
X186728Y918543D01*
X186326Y918079D01*
X185936Y917605D01*
X185558Y917122D01*
X185191Y916630D01*
X184836Y916129D01*
X184494Y915620D01*
X184164Y915102D01*
X183846Y914577D01*
X183541Y914044D01*
X183249Y913504D01*
X182971Y912957D01*
X182705Y912404D01*
X182453Y911844D01*
X182215Y911278D01*
X181991Y910707D01*
X181780Y910130D01*
X181583Y909549D01*
X181401Y908963D01*
X181232Y908373D01*
X181078Y907779D01*
X180938Y907181D01*
X180813Y906580D01*
X180703Y905976D01*
X180607Y905370D01*
X180525Y904762D01*
X180459Y904151D01*
X180407Y903540D01*
X180370Y902927D01*
X180347Y902314D01*
X180340Y901700D01*
X180340Y444500D01*
X180347Y443886D01*
X180370Y443273D01*
X180407Y442660D01*
X180459Y442049D01*
X180525Y441438D01*
X180607Y440830D01*
X180703Y440224D01*
X180813Y439620D01*
X180938Y439019D01*
X181078Y438421D01*
X181232Y437827D01*
X181401Y437237D01*
X181583Y436651D01*
X181780Y436070D01*
X181991Y435493D01*
X182215Y434922D01*
X182453Y434356D01*
X182705Y433796D01*
X182971Y433243D01*
X183249Y432696D01*
X183541Y432156D01*
X183846Y431623D01*
X184164Y431098D01*
X184494Y430580D01*
X184836Y430071D01*
X185191Y429570D01*
X185558Y429078D01*
X185936Y428595D01*
X186326Y428121D01*
X186728Y427657D01*
X187140Y427202D01*
X187564Y426758D01*
X187998Y426324D01*
X188442Y425900D01*
X188897Y425488D01*
X189361Y425086D01*
X189835Y424696D01*
X190318Y424318D01*
X190810Y423951D01*
X191311Y423596D01*
X191820Y423254D01*
X192338Y422924D01*
X192863Y422606D01*
X193396Y422301D01*
X193936Y422009D01*
X194483Y421731D01*
X195036Y421465D01*
X195596Y421213D01*
X196162Y420975D01*
X196733Y420751D01*
X197310Y420540D01*
X197891Y420343D01*
X198477Y420161D01*
X199067Y419992D01*
X199661Y419838D01*
X200259Y419698D01*
X200860Y419573D01*
X201464Y419463D01*
X202070Y419367D01*
X202678Y419285D01*
X203289Y419219D01*
X203900Y419167D01*
X204513Y419130D01*
X205126Y419107D01*
X205740Y419100D01*
X271780Y419100D01*
X276860Y424180D01*
X312420Y424180D01*
X317500Y419100D01*
X383540Y419100D01*
X384154Y419107D01*
X384767Y419130D01*
X385380Y419167D01*
X385991Y419219D01*
X386602Y419285D01*
X387210Y419367D01*
X387816Y419463D01*
X388420Y419573D01*
X389021Y419698D01*
X389619Y419838D01*
X390213Y419992D01*
X390803Y420161D01*
X391389Y420343D01*
X391970Y420540D01*
X392547Y420751D01*
X393118Y420975D01*
X393684Y421213D01*
X394244Y421465D01*
X394797Y421731D01*
X395344Y422009D01*
X395884Y422301D01*
X396417Y422606D01*
X396942Y422924D01*
X397460Y423254D01*
X397969Y423596D01*
X398470Y423951D01*
X398962Y424318D01*
X399445Y424696D01*
X399919Y425086D01*
X400383Y425488D01*
X400838Y425900D01*
X401282Y426324D01*
X401716Y426758D01*
X402140Y427202D01*
X402552Y427657D01*
X402954Y428121D01*
X403344Y428595D01*
X403722Y429078D01*
X404089Y429570D01*
X404444Y430071D01*
X404786Y430580D01*
X405116Y431098D01*
X405434Y431623D01*
X405739Y432156D01*
X406031Y432696D01*
X406309Y433243D01*
X406575Y433796D01*
X406827Y434356D01*
X407065Y434922D01*
X407289Y435493D01*
X407500Y436070D01*
X407697Y436651D01*
X407879Y437237D01*
X408048Y437827D01*
X408202Y438421D01*
X408342Y439019D01*
X408467Y439620D01*
X408577Y440224D01*
X408673Y440830D01*
X408755Y441438D01*
X408821Y442049D01*
X408873Y442660D01*
X408910Y443273D01*
X408933Y443886D01*
X408940Y444500D01*
D17*
X276312Y410982D02*
X276312Y399288D01*
X276312Y410982D02*
X284108Y410982D01*
X280210Y405135D02*
X276312Y405135D01*
X291904Y399288D02*
X291904Y410982D01*
X288006Y410982D02*
X295802Y410982D01*
X299700Y410982D02*
X299700Y399288D01*
X299700Y410982D02*
X305547Y410982D01*
X307496Y409033D01*
X307496Y405135D01*
X305547Y403186D01*
X299700Y403186D01*
X303598Y403186D02*
X307496Y399288D01*
X311394Y407084D02*
X315292Y410982D01*
X315292Y399288D01*
X311394Y399288D02*
X319190Y399288D01*
D10*
X137160Y562610D02*
X137160Y575310D01*
X143510Y581660D01*
X156210Y581660D01*
X162560Y575310D01*
X156210Y556260D02*
X143510Y556260D01*
X137160Y562610D01*
X156210Y556260D02*
X162560Y562610D01*
X162560Y575310D01*
X143510Y581660D02*
X137160Y588010D01*
X137160Y600710D01*
X143510Y607060D01*
X156210Y607060D01*
X162560Y600710D01*
X162560Y588010D01*
X156210Y581660D01*
D11*
X130937Y556133D02*
X119497Y556133D01*
X125217Y556133D02*
X125217Y563760D01*
X119497Y563760D02*
X130937Y563760D01*
X129030Y567827D02*
X119497Y567827D01*
X129030Y567827D02*
X130937Y569734D01*
X130937Y573547D01*
X129030Y575453D01*
X119497Y575453D01*
X119497Y579521D02*
X119497Y587147D01*
X121404Y587147D01*
X129030Y579521D01*
X130937Y579521D01*
X130937Y587147D01*
X119497Y591215D02*
X119497Y598841D01*
X121404Y598841D01*
X129030Y591215D01*
X130937Y591215D01*
X130937Y598841D01*
X130937Y602909D02*
X123311Y602909D01*
X119497Y606722D01*
X123311Y610535D01*
X130937Y610535D01*
X125217Y610535D02*
X125217Y602909D01*
X130937Y614603D02*
X119497Y614603D01*
X125217Y614603D02*
X125217Y622229D01*
X119497Y622229D02*
X130937Y622229D01*
X130937Y626297D02*
X119497Y626297D01*
X119497Y632017D01*
X121404Y633923D01*
X125217Y633923D01*
X127124Y632017D01*
X127124Y626297D01*
X119497Y639897D02*
X119497Y643711D01*
X119497Y639897D02*
X121404Y637991D01*
X129030Y637991D01*
X130937Y639897D01*
X130937Y643711D01*
X129030Y645617D01*
X121404Y645617D01*
X119497Y643711D01*
X119497Y649685D02*
X130937Y649685D01*
X127124Y653498D01*
X130937Y657311D01*
X119497Y657311D01*
X119497Y661379D02*
X119497Y669005D01*
X119497Y661379D02*
X130937Y661379D01*
X130937Y669005D01*
X125217Y665192D02*
X125217Y661379D01*
X130937Y673073D02*
X119497Y673073D01*
X119497Y678793D01*
X121404Y680699D01*
X125217Y680699D01*
X127124Y678793D01*
X127124Y673073D01*
X127124Y676886D02*
X130937Y680699D01*
D10*
X77470Y970280D02*
X64770Y970280D01*
X77470Y970280D02*
X83820Y963930D01*
X83820Y951230D01*
X77470Y944880D01*
X58420Y951230D02*
X58420Y963930D01*
X64770Y970280D01*
X58420Y951230D02*
X64770Y944880D01*
X77470Y944880D01*
X83820Y963930D02*
X90170Y970280D01*
X102870Y970280D01*
X109220Y963930D01*
X109220Y951230D01*
X102870Y944880D01*
X90170Y944880D01*
X83820Y951230D01*
D11*
X30360Y980956D02*
X28453Y982863D01*
X24640Y982863D01*
X22733Y980956D01*
X22733Y979050D01*
X24640Y977143D01*
X28453Y977143D01*
X30360Y975236D01*
X30360Y973330D01*
X28453Y971423D01*
X24640Y971423D01*
X22733Y973330D01*
X34427Y982863D02*
X42053Y982863D01*
X34427Y982863D02*
X34427Y971423D01*
X42053Y971423D01*
X38240Y977143D02*
X34427Y977143D01*
X46121Y971423D02*
X46121Y982863D01*
X51841Y982863D01*
X53747Y980956D01*
X53747Y977143D01*
X51841Y975236D01*
X46121Y975236D01*
X49934Y975236D02*
X53747Y971423D01*
X57815Y971423D02*
X61628Y971423D01*
X59722Y971423D02*
X59722Y982863D01*
X61628Y982863D02*
X57815Y982863D01*
X65611Y979050D02*
X65611Y971423D01*
X65611Y979050D02*
X69424Y982863D01*
X73237Y979050D01*
X73237Y971423D01*
X73237Y977143D02*
X65611Y977143D01*
X77305Y982863D02*
X77305Y971423D01*
X84931Y971423D01*
X88999Y969516D02*
X96625Y969516D01*
X100693Y973330D02*
X102599Y971423D01*
X104506Y971423D01*
X106413Y973330D01*
X106413Y982863D01*
X108319Y982863D02*
X104506Y982863D01*
X112387Y982863D02*
X112387Y973330D01*
X114293Y971423D01*
X118107Y971423D01*
X120013Y973330D01*
X120013Y982863D01*
X124081Y982863D02*
X124081Y971423D01*
X127894Y979050D02*
X124081Y982863D01*
X127894Y979050D02*
X131707Y982863D01*
X131707Y971423D01*
X135775Y971423D02*
X135775Y982863D01*
X141495Y982863D01*
X143401Y980956D01*
X143401Y977143D01*
X141495Y975236D01*
X135775Y975236D01*
X147469Y982863D02*
X155095Y982863D01*
X147469Y982863D02*
X147469Y971423D01*
X155095Y971423D01*
X151282Y977143D02*
X147469Y977143D01*
X159163Y971423D02*
X159163Y982863D01*
X164883Y982863D01*
X166789Y980956D01*
X166789Y977143D01*
X164883Y975236D01*
X159163Y975236D01*
X162976Y975236D02*
X166789Y971423D01*
D10*
X222250Y944880D02*
X234950Y944880D01*
X222250Y944880D02*
X215900Y951230D01*
X215900Y963930D01*
X222250Y970280D01*
X260350Y944880D02*
X266700Y951230D01*
X260350Y944880D02*
X247650Y944880D01*
X241300Y951230D01*
X241300Y963930D01*
X247650Y970280D01*
X260350Y970280D01*
X266700Y963930D01*
X241300Y951230D02*
X234950Y944880D01*
X241300Y963930D02*
X234950Y970280D01*
X222250Y970280D01*
X298450Y944880D02*
X311150Y944880D01*
X298450Y944880D02*
X292100Y951230D01*
X292100Y963930D01*
X298450Y970280D01*
X292100Y951230D02*
X285750Y944880D01*
X273050Y944880D01*
X266700Y951230D01*
X266700Y963930D01*
X273050Y970280D01*
X285750Y970280D01*
X292100Y963930D01*
X336550Y944880D02*
X342900Y951230D01*
X336550Y944880D02*
X323850Y944880D01*
X317500Y951230D01*
X317500Y963930D01*
X323850Y970280D01*
X336550Y970280D01*
X342900Y963930D01*
X317500Y951230D02*
X311150Y944880D01*
X317500Y963930D02*
X311150Y970280D01*
X298450Y970280D01*
X374650Y944880D02*
X387350Y944880D01*
X374650Y944880D02*
X368300Y951230D01*
X368300Y963930D01*
X374650Y970280D01*
X368300Y951230D02*
X361950Y944880D01*
X349250Y944880D01*
X342900Y951230D01*
X342900Y963930D01*
X349250Y970280D01*
X361950Y970280D01*
X368300Y963930D01*
X393700Y963930D02*
X393700Y951230D01*
X387350Y944880D01*
X393700Y963930D02*
X387350Y970280D01*
X374650Y970280D01*
X209550Y944880D02*
X196850Y944880D01*
X190500Y951230D01*
X190500Y963930D01*
X196850Y970280D01*
X215900Y951230D02*
X209550Y944880D01*
X215900Y963930D02*
X209550Y970280D01*
X196850Y970280D01*
D11*
X278157Y938667D02*
X278157Y927227D01*
X285784Y927227D01*
X295571Y938667D02*
X297478Y936760D01*
X295571Y938667D02*
X291758Y938667D01*
X289851Y936760D01*
X289851Y929134D01*
X291758Y927227D01*
X295571Y927227D01*
X297478Y929134D01*
X301545Y927227D02*
X301545Y938667D01*
X301545Y927227D02*
X307265Y927227D01*
X309172Y929134D01*
X309172Y936760D01*
X307265Y938667D01*
X301545Y938667D01*
X313239Y925320D02*
X320865Y925320D01*
X332559Y936760D02*
X330653Y938667D01*
X326840Y938667D01*
X324933Y936760D01*
X324933Y934854D01*
X326840Y932947D01*
X330653Y932947D01*
X332559Y931040D01*
X332559Y929134D01*
X330653Y927227D01*
X326840Y927227D01*
X324933Y929134D01*
X342347Y938667D02*
X344253Y936760D01*
X342347Y938667D02*
X338534Y938667D01*
X336627Y936760D01*
X336627Y929134D01*
X338534Y927227D01*
X342347Y927227D01*
X344253Y929134D01*
X348321Y927227D02*
X348321Y938667D01*
X354041Y938667D01*
X355947Y936760D01*
X355947Y932947D01*
X354041Y931040D01*
X348321Y931040D01*
X352134Y931040D02*
X355947Y927227D01*
X360015Y938667D02*
X367641Y938667D01*
X360015Y938667D02*
X360015Y927227D01*
X367641Y927227D01*
X363828Y932947D02*
X360015Y932947D01*
X371709Y938667D02*
X379335Y938667D01*
X371709Y938667D02*
X371709Y927227D01*
X379335Y927227D01*
X375522Y932947D02*
X371709Y932947D01*
X383403Y927227D02*
X383403Y938667D01*
X391029Y927227D01*
X391029Y938667D01*
D10*
X151130Y753110D02*
X151128Y753210D01*
X151122Y753309D01*
X151112Y753409D01*
X151099Y753507D01*
X151081Y753606D01*
X151060Y753703D01*
X151035Y753799D01*
X151006Y753895D01*
X150973Y753989D01*
X150937Y754082D01*
X150897Y754173D01*
X150853Y754263D01*
X150806Y754351D01*
X150756Y754437D01*
X150702Y754521D01*
X150645Y754603D01*
X150585Y754682D01*
X150521Y754760D01*
X150455Y754834D01*
X150386Y754906D01*
X150314Y754975D01*
X150240Y755041D01*
X150162Y755105D01*
X150083Y755165D01*
X150001Y755222D01*
X149917Y755276D01*
X149831Y755326D01*
X149743Y755373D01*
X149653Y755417D01*
X149562Y755457D01*
X149469Y755493D01*
X149375Y755526D01*
X149279Y755555D01*
X149183Y755580D01*
X149086Y755601D01*
X148987Y755619D01*
X148889Y755632D01*
X148789Y755642D01*
X148690Y755648D01*
X148590Y755650D01*
X130810Y755650D02*
X130710Y755648D01*
X130611Y755642D01*
X130511Y755632D01*
X130413Y755619D01*
X130314Y755601D01*
X130217Y755580D01*
X130121Y755555D01*
X130025Y755526D01*
X129931Y755493D01*
X129838Y755457D01*
X129747Y755417D01*
X129657Y755373D01*
X129569Y755326D01*
X129483Y755276D01*
X129399Y755222D01*
X129317Y755165D01*
X129238Y755105D01*
X129160Y755041D01*
X129086Y754975D01*
X129014Y754906D01*
X128945Y754834D01*
X128879Y754760D01*
X128815Y754682D01*
X128755Y754603D01*
X128698Y754521D01*
X128644Y754437D01*
X128594Y754351D01*
X128547Y754263D01*
X128503Y754173D01*
X128463Y754082D01*
X128427Y753989D01*
X128394Y753895D01*
X128365Y753799D01*
X128340Y753703D01*
X128319Y753606D01*
X128301Y753507D01*
X128288Y753409D01*
X128278Y753309D01*
X128272Y753210D01*
X128270Y753110D01*
X128270Y694690D02*
X128272Y694590D01*
X128278Y694491D01*
X128288Y694391D01*
X128301Y694293D01*
X128319Y694194D01*
X128340Y694097D01*
X128365Y694001D01*
X128394Y693905D01*
X128427Y693811D01*
X128463Y693718D01*
X128503Y693627D01*
X128547Y693537D01*
X128594Y693449D01*
X128644Y693363D01*
X128698Y693279D01*
X128755Y693197D01*
X128815Y693118D01*
X128879Y693040D01*
X128945Y692966D01*
X129014Y692894D01*
X129086Y692825D01*
X129160Y692759D01*
X129238Y692695D01*
X129317Y692635D01*
X129399Y692578D01*
X129483Y692524D01*
X129569Y692474D01*
X129657Y692427D01*
X129747Y692383D01*
X129838Y692343D01*
X129931Y692307D01*
X130025Y692274D01*
X130121Y692245D01*
X130217Y692220D01*
X130314Y692199D01*
X130413Y692181D01*
X130511Y692168D01*
X130611Y692158D01*
X130710Y692152D01*
X130810Y692150D01*
X148590Y692150D02*
X148690Y692152D01*
X148789Y692158D01*
X148889Y692168D01*
X148987Y692181D01*
X149086Y692199D01*
X149183Y692220D01*
X149279Y692245D01*
X149375Y692274D01*
X149469Y692307D01*
X149562Y692343D01*
X149653Y692383D01*
X149743Y692427D01*
X149831Y692474D01*
X149917Y692524D01*
X150001Y692578D01*
X150083Y692635D01*
X150162Y692695D01*
X150240Y692759D01*
X150314Y692825D01*
X150386Y692894D01*
X150455Y692966D01*
X150521Y693040D01*
X150585Y693118D01*
X150645Y693197D01*
X150702Y693279D01*
X150756Y693363D01*
X150806Y693449D01*
X150853Y693537D01*
X150897Y693627D01*
X150937Y693718D01*
X150973Y693811D01*
X151006Y693905D01*
X151035Y694001D01*
X151060Y694097D01*
X151081Y694194D01*
X151099Y694293D01*
X151112Y694391D01*
X151122Y694491D01*
X151128Y694590D01*
X151130Y694690D01*
X148590Y755650D02*
X130810Y755650D01*
X151130Y753110D02*
X151130Y749300D01*
X149860Y748030D01*
X128270Y749300D02*
X128270Y753110D01*
X128270Y749300D02*
X129540Y748030D01*
X149860Y699770D02*
X151130Y698500D01*
X149860Y699770D02*
X149860Y748030D01*
X129540Y699770D02*
X128270Y698500D01*
X129540Y699770D02*
X129540Y748030D01*
X151130Y698500D02*
X151130Y694690D01*
X128270Y694690D02*
X128270Y698500D01*
X130810Y692150D02*
X148590Y692150D01*
D21*
X139700Y687832D03*
X139700Y759968D03*
D11*
X155565Y667310D02*
X167005Y667310D01*
X155565Y667310D02*
X155565Y673030D01*
X157472Y674937D01*
X161285Y674937D01*
X163192Y673030D01*
X163192Y667310D01*
X163192Y671123D02*
X167005Y674937D01*
X159379Y679004D02*
X155565Y682817D01*
X167005Y682817D01*
X167005Y679004D02*
X167005Y686631D01*
X161285Y690698D02*
X161285Y698325D01*
X165098Y702392D02*
X157472Y702392D01*
X155565Y704299D01*
X155565Y708112D01*
X157472Y710018D01*
X165098Y710018D01*
X167005Y708112D01*
X167005Y704299D01*
X165098Y702392D01*
X157472Y710018D01*
X165098Y714086D02*
X167005Y714086D01*
X165098Y714086D02*
X165098Y715993D01*
X167005Y715993D01*
X167005Y714086D01*
X167005Y719933D02*
X167005Y727559D01*
X167005Y719933D02*
X159379Y727559D01*
X157472Y727559D01*
X155565Y725653D01*
X155565Y721840D01*
X157472Y719933D01*
X155565Y731627D02*
X155565Y739253D01*
X155565Y731627D02*
X161285Y731627D01*
X159379Y735440D01*
X159379Y737347D01*
X161285Y739253D01*
X165098Y739253D01*
X167005Y737347D01*
X167005Y733534D01*
X165098Y731627D01*
X167005Y743321D02*
X155565Y743321D01*
X163192Y747134D02*
X167005Y743321D01*
X163192Y747134D02*
X167005Y750947D01*
X155565Y750947D01*
D10*
X49530Y457200D02*
X49530Y406400D01*
X-8890Y406400D02*
X-8890Y457200D01*
X-8890Y406400D02*
X49530Y406400D01*
X49530Y457200D02*
X30480Y457200D01*
X10160Y457200D02*
X-8890Y457200D01*
X10160Y457200D02*
X10163Y456953D01*
X10172Y456705D01*
X10187Y456458D01*
X10208Y456212D01*
X10235Y455966D01*
X10268Y455721D01*
X10307Y455476D01*
X10352Y455233D01*
X10403Y454991D01*
X10460Y454750D01*
X10522Y454511D01*
X10591Y454273D01*
X10665Y454037D01*
X10745Y453803D01*
X10830Y453571D01*
X10922Y453341D01*
X11018Y453113D01*
X11121Y452888D01*
X11228Y452665D01*
X11342Y452445D01*
X11460Y452228D01*
X11584Y452013D01*
X11713Y451802D01*
X11847Y451594D01*
X11986Y451389D01*
X12130Y451188D01*
X12278Y450990D01*
X12432Y450796D01*
X12590Y450606D01*
X12753Y450420D01*
X12920Y450238D01*
X13092Y450060D01*
X13268Y449886D01*
X13448Y449716D01*
X13633Y449551D01*
X13821Y449391D01*
X14013Y449235D01*
X14209Y449083D01*
X14408Y448937D01*
X14611Y448795D01*
X14818Y448659D01*
X15027Y448527D01*
X15240Y448401D01*
X15456Y448280D01*
X15674Y448164D01*
X15896Y448054D01*
X16120Y447949D01*
X16346Y447849D01*
X16575Y447755D01*
X16806Y447667D01*
X17040Y447584D01*
X17275Y447507D01*
X17512Y447436D01*
X17750Y447370D01*
X17990Y447311D01*
X18232Y447257D01*
X18475Y447209D01*
X18718Y447167D01*
X18963Y447131D01*
X19209Y447101D01*
X19455Y447077D01*
X19702Y447059D01*
X19949Y447047D01*
X20196Y447041D01*
X20444Y447041D01*
X20691Y447047D01*
X20938Y447059D01*
X21185Y447077D01*
X21431Y447101D01*
X21677Y447131D01*
X21922Y447167D01*
X22165Y447209D01*
X22408Y447257D01*
X22650Y447311D01*
X22890Y447370D01*
X23128Y447436D01*
X23365Y447507D01*
X23600Y447584D01*
X23834Y447667D01*
X24065Y447755D01*
X24294Y447849D01*
X24520Y447949D01*
X24744Y448054D01*
X24966Y448164D01*
X25184Y448280D01*
X25400Y448401D01*
X25613Y448527D01*
X25822Y448659D01*
X26029Y448795D01*
X26232Y448937D01*
X26431Y449083D01*
X26627Y449235D01*
X26819Y449391D01*
X27007Y449551D01*
X27192Y449716D01*
X27372Y449886D01*
X27548Y450060D01*
X27720Y450238D01*
X27887Y450420D01*
X28050Y450606D01*
X28208Y450796D01*
X28362Y450990D01*
X28510Y451188D01*
X28654Y451389D01*
X28793Y451594D01*
X28927Y451802D01*
X29056Y452013D01*
X29180Y452228D01*
X29298Y452445D01*
X29412Y452665D01*
X29519Y452888D01*
X29622Y453113D01*
X29718Y453341D01*
X29810Y453571D01*
X29895Y453803D01*
X29975Y454037D01*
X30049Y454273D01*
X30118Y454511D01*
X30180Y454750D01*
X30237Y454991D01*
X30288Y455233D01*
X30333Y455476D01*
X30372Y455721D01*
X30405Y455966D01*
X30432Y456212D01*
X30453Y456458D01*
X30468Y456705D01*
X30477Y456953D01*
X30480Y457200D01*
D11*
X5Y473085D02*
X-3808Y473085D01*
X-5715Y471178D01*
X-5715Y463552D01*
X-3808Y461645D01*
X5Y461645D01*
X1912Y463552D01*
X1912Y471178D01*
X5Y473085D01*
X5979Y473085D02*
X5979Y461645D01*
X5979Y465458D02*
X13605Y473085D01*
X7886Y467365D02*
X13605Y461645D01*
X17673Y461645D02*
X25299Y461645D01*
X17673Y461645D02*
X25299Y469272D01*
X25299Y471178D01*
X23393Y473085D01*
X19580Y473085D01*
X17673Y471178D01*
D10*
X95250Y692150D02*
X95150Y692152D01*
X95051Y692158D01*
X94951Y692168D01*
X94853Y692181D01*
X94754Y692199D01*
X94657Y692220D01*
X94561Y692245D01*
X94465Y692274D01*
X94371Y692307D01*
X94278Y692343D01*
X94187Y692383D01*
X94097Y692427D01*
X94009Y692474D01*
X93923Y692524D01*
X93839Y692578D01*
X93757Y692635D01*
X93678Y692695D01*
X93600Y692759D01*
X93526Y692825D01*
X93454Y692894D01*
X93385Y692966D01*
X93319Y693040D01*
X93255Y693118D01*
X93195Y693197D01*
X93138Y693279D01*
X93084Y693363D01*
X93034Y693449D01*
X92987Y693537D01*
X92943Y693627D01*
X92903Y693718D01*
X92867Y693811D01*
X92834Y693905D01*
X92805Y694001D01*
X92780Y694097D01*
X92759Y694194D01*
X92741Y694293D01*
X92728Y694391D01*
X92718Y694491D01*
X92712Y694590D01*
X92710Y694690D01*
X113030Y692150D02*
X113130Y692152D01*
X113229Y692158D01*
X113329Y692168D01*
X113427Y692181D01*
X113526Y692199D01*
X113623Y692220D01*
X113719Y692245D01*
X113815Y692274D01*
X113909Y692307D01*
X114002Y692343D01*
X114093Y692383D01*
X114183Y692427D01*
X114271Y692474D01*
X114357Y692524D01*
X114441Y692578D01*
X114523Y692635D01*
X114602Y692695D01*
X114680Y692759D01*
X114754Y692825D01*
X114826Y692894D01*
X114895Y692966D01*
X114961Y693040D01*
X115025Y693118D01*
X115085Y693197D01*
X115142Y693279D01*
X115196Y693363D01*
X115246Y693449D01*
X115293Y693537D01*
X115337Y693627D01*
X115377Y693718D01*
X115413Y693811D01*
X115446Y693905D01*
X115475Y694001D01*
X115500Y694097D01*
X115521Y694194D01*
X115539Y694293D01*
X115552Y694391D01*
X115562Y694491D01*
X115568Y694590D01*
X115570Y694690D01*
X115570Y753110D02*
X115568Y753210D01*
X115562Y753309D01*
X115552Y753409D01*
X115539Y753507D01*
X115521Y753606D01*
X115500Y753703D01*
X115475Y753799D01*
X115446Y753895D01*
X115413Y753989D01*
X115377Y754082D01*
X115337Y754173D01*
X115293Y754263D01*
X115246Y754351D01*
X115196Y754437D01*
X115142Y754521D01*
X115085Y754603D01*
X115025Y754682D01*
X114961Y754760D01*
X114895Y754834D01*
X114826Y754906D01*
X114754Y754975D01*
X114680Y755041D01*
X114602Y755105D01*
X114523Y755165D01*
X114441Y755222D01*
X114357Y755276D01*
X114271Y755326D01*
X114183Y755373D01*
X114093Y755417D01*
X114002Y755457D01*
X113909Y755493D01*
X113815Y755526D01*
X113719Y755555D01*
X113623Y755580D01*
X113526Y755601D01*
X113427Y755619D01*
X113329Y755632D01*
X113229Y755642D01*
X113130Y755648D01*
X113030Y755650D01*
X95250Y755650D02*
X95150Y755648D01*
X95051Y755642D01*
X94951Y755632D01*
X94853Y755619D01*
X94754Y755601D01*
X94657Y755580D01*
X94561Y755555D01*
X94465Y755526D01*
X94371Y755493D01*
X94278Y755457D01*
X94187Y755417D01*
X94097Y755373D01*
X94009Y755326D01*
X93923Y755276D01*
X93839Y755222D01*
X93757Y755165D01*
X93678Y755105D01*
X93600Y755041D01*
X93526Y754975D01*
X93454Y754906D01*
X93385Y754834D01*
X93319Y754760D01*
X93255Y754682D01*
X93195Y754603D01*
X93138Y754521D01*
X93084Y754437D01*
X93034Y754351D01*
X92987Y754263D01*
X92943Y754173D01*
X92903Y754082D01*
X92867Y753989D01*
X92834Y753895D01*
X92805Y753799D01*
X92780Y753703D01*
X92759Y753606D01*
X92741Y753507D01*
X92728Y753409D01*
X92718Y753309D01*
X92712Y753210D01*
X92710Y753110D01*
X95250Y692150D02*
X113030Y692150D01*
X92710Y694690D02*
X92710Y698500D01*
X93980Y699770D01*
X115570Y698500D02*
X115570Y694690D01*
X115570Y698500D02*
X114300Y699770D01*
X93980Y748030D02*
X92710Y749300D01*
X93980Y748030D02*
X93980Y699770D01*
X114300Y748030D02*
X115570Y749300D01*
X114300Y748030D02*
X114300Y699770D01*
X92710Y749300D02*
X92710Y753110D01*
X115570Y753110D02*
X115570Y749300D01*
X113030Y755650D02*
X95250Y755650D01*
D21*
X104140Y759968D03*
X104140Y687832D03*
D11*
X88265Y694055D02*
X76825Y694055D01*
X76825Y699775D01*
X78732Y701682D01*
X82545Y701682D01*
X84452Y699775D01*
X84452Y694055D01*
X84452Y697868D02*
X88265Y701682D01*
X78732Y705749D02*
X76825Y707656D01*
X76825Y711469D01*
X78732Y713375D01*
X80639Y713375D01*
X82545Y711469D01*
X84452Y713375D01*
X86358Y713375D01*
X88265Y711469D01*
X88265Y707656D01*
X86358Y705749D01*
X84452Y705749D01*
X82545Y707656D01*
X80639Y705749D01*
X78732Y705749D01*
X82545Y707656D02*
X82545Y711469D01*
X82545Y717443D02*
X82545Y725069D01*
X86358Y729137D02*
X78732Y729137D01*
X76825Y731044D01*
X76825Y734857D01*
X78732Y736763D01*
X86358Y736763D01*
X88265Y734857D01*
X88265Y731044D01*
X86358Y729137D01*
X78732Y736763D01*
X86358Y740831D02*
X88265Y740831D01*
X86358Y740831D02*
X86358Y742738D01*
X88265Y742738D01*
X88265Y740831D01*
X88265Y746678D02*
X88265Y754304D01*
X88265Y746678D02*
X80639Y754304D01*
X78732Y754304D01*
X76825Y752398D01*
X76825Y748584D01*
X78732Y746678D01*
X76825Y758372D02*
X76825Y765998D01*
X76825Y758372D02*
X82545Y758372D01*
X80639Y762185D01*
X80639Y764092D01*
X82545Y765998D01*
X86358Y765998D01*
X88265Y764092D01*
X88265Y760278D01*
X86358Y758372D01*
X88265Y770066D02*
X76825Y770066D01*
X84452Y773879D02*
X88265Y770066D01*
X84452Y773879D02*
X88265Y777692D01*
X76825Y777692D01*
D10*
X-46990Y504190D02*
X-47090Y504188D01*
X-47189Y504182D01*
X-47289Y504172D01*
X-47387Y504159D01*
X-47486Y504141D01*
X-47583Y504120D01*
X-47679Y504095D01*
X-47775Y504066D01*
X-47869Y504033D01*
X-47962Y503997D01*
X-48053Y503957D01*
X-48143Y503913D01*
X-48231Y503866D01*
X-48317Y503816D01*
X-48401Y503762D01*
X-48483Y503705D01*
X-48562Y503645D01*
X-48640Y503581D01*
X-48714Y503515D01*
X-48786Y503446D01*
X-48855Y503374D01*
X-48921Y503300D01*
X-48985Y503222D01*
X-49045Y503143D01*
X-49102Y503061D01*
X-49156Y502977D01*
X-49206Y502891D01*
X-49253Y502803D01*
X-49297Y502713D01*
X-49337Y502622D01*
X-49373Y502529D01*
X-49406Y502435D01*
X-49435Y502339D01*
X-49460Y502243D01*
X-49481Y502146D01*
X-49499Y502047D01*
X-49512Y501949D01*
X-49522Y501849D01*
X-49528Y501750D01*
X-49530Y501650D01*
X-49530Y483870D02*
X-49528Y483770D01*
X-49522Y483671D01*
X-49512Y483571D01*
X-49499Y483473D01*
X-49481Y483374D01*
X-49460Y483277D01*
X-49435Y483181D01*
X-49406Y483085D01*
X-49373Y482991D01*
X-49337Y482898D01*
X-49297Y482807D01*
X-49253Y482717D01*
X-49206Y482629D01*
X-49156Y482543D01*
X-49102Y482459D01*
X-49045Y482377D01*
X-48985Y482298D01*
X-48921Y482220D01*
X-48855Y482146D01*
X-48786Y482074D01*
X-48714Y482005D01*
X-48640Y481939D01*
X-48562Y481875D01*
X-48483Y481815D01*
X-48401Y481758D01*
X-48317Y481704D01*
X-48231Y481654D01*
X-48143Y481607D01*
X-48053Y481563D01*
X-47962Y481523D01*
X-47869Y481487D01*
X-47775Y481454D01*
X-47679Y481425D01*
X-47583Y481400D01*
X-47486Y481379D01*
X-47387Y481361D01*
X-47289Y481348D01*
X-47189Y481338D01*
X-47090Y481332D01*
X-46990Y481330D01*
X11430Y481330D02*
X11530Y481332D01*
X11629Y481338D01*
X11729Y481348D01*
X11827Y481361D01*
X11926Y481379D01*
X12023Y481400D01*
X12119Y481425D01*
X12215Y481454D01*
X12309Y481487D01*
X12402Y481523D01*
X12493Y481563D01*
X12583Y481607D01*
X12671Y481654D01*
X12757Y481704D01*
X12841Y481758D01*
X12923Y481815D01*
X13002Y481875D01*
X13080Y481939D01*
X13154Y482005D01*
X13226Y482074D01*
X13295Y482146D01*
X13361Y482220D01*
X13425Y482298D01*
X13485Y482377D01*
X13542Y482459D01*
X13596Y482543D01*
X13646Y482629D01*
X13693Y482717D01*
X13737Y482807D01*
X13777Y482898D01*
X13813Y482991D01*
X13846Y483085D01*
X13875Y483181D01*
X13900Y483277D01*
X13921Y483374D01*
X13939Y483473D01*
X13952Y483571D01*
X13962Y483671D01*
X13968Y483770D01*
X13970Y483870D01*
X13970Y501650D02*
X13968Y501750D01*
X13962Y501849D01*
X13952Y501949D01*
X13939Y502047D01*
X13921Y502146D01*
X13900Y502243D01*
X13875Y502339D01*
X13846Y502435D01*
X13813Y502529D01*
X13777Y502622D01*
X13737Y502713D01*
X13693Y502803D01*
X13646Y502891D01*
X13596Y502977D01*
X13542Y503061D01*
X13485Y503143D01*
X13425Y503222D01*
X13361Y503300D01*
X13295Y503374D01*
X13226Y503446D01*
X13154Y503515D01*
X13080Y503581D01*
X13002Y503645D01*
X12923Y503705D01*
X12841Y503762D01*
X12757Y503816D01*
X12671Y503866D01*
X12583Y503913D01*
X12493Y503957D01*
X12402Y503997D01*
X12309Y504033D01*
X12215Y504066D01*
X12119Y504095D01*
X12023Y504120D01*
X11926Y504141D01*
X11827Y504159D01*
X11729Y504172D01*
X11629Y504182D01*
X11530Y504188D01*
X11430Y504190D01*
X-49530Y501650D02*
X-49530Y483870D01*
X-46990Y504190D02*
X-43180Y504190D01*
X-41910Y502920D01*
X-43180Y481330D02*
X-46990Y481330D01*
X-43180Y481330D02*
X-41910Y482600D01*
X6350Y502920D02*
X7620Y504190D01*
X6350Y502920D02*
X-41910Y502920D01*
X6350Y482600D02*
X7620Y481330D01*
X6350Y482600D02*
X-41910Y482600D01*
X7620Y504190D02*
X11430Y504190D01*
X11430Y481330D02*
X7620Y481330D01*
X13970Y483870D02*
X13970Y501650D01*
D13*
X18288Y492760D03*
X-53848Y492760D03*
D11*
X-47625Y508635D02*
X-47625Y520075D01*
X-41905Y520075D01*
X-39999Y518168D01*
X-39999Y514355D01*
X-41905Y512448D01*
X-47625Y512448D01*
X-43812Y512448D02*
X-39999Y508635D01*
X-35931Y508635D02*
X-28305Y508635D01*
X-35931Y508635D02*
X-28305Y516262D01*
X-28305Y518168D01*
X-30211Y520075D01*
X-34024Y520075D01*
X-35931Y518168D01*
X-24237Y514355D02*
X-16611Y514355D01*
X-12543Y510542D02*
X-12543Y518168D01*
X-10636Y520075D01*
X-6823Y520075D01*
X-4917Y518168D01*
X-4917Y510542D01*
X-6823Y508635D01*
X-10636Y508635D01*
X-12543Y510542D01*
X-4917Y518168D01*
X-849Y510542D02*
X-849Y508635D01*
X-849Y510542D02*
X1058Y510542D01*
X1058Y508635D01*
X-849Y508635D01*
X4998Y508635D02*
X12624Y508635D01*
X4998Y508635D02*
X12624Y516262D01*
X12624Y518168D01*
X10718Y520075D01*
X6904Y520075D01*
X4998Y518168D01*
X16692Y520075D02*
X24318Y520075D01*
X16692Y520075D02*
X16692Y514355D01*
X20505Y516262D01*
X22412Y516262D01*
X24318Y514355D01*
X24318Y510542D01*
X22412Y508635D01*
X18598Y508635D01*
X16692Y510542D01*
X28386Y508635D02*
X28386Y520075D01*
X32199Y512448D02*
X28386Y508635D01*
X32199Y512448D02*
X36012Y508635D01*
X36012Y520075D01*
D10*
X90170Y905510D02*
X90168Y905610D01*
X90162Y905709D01*
X90152Y905809D01*
X90139Y905907D01*
X90121Y906006D01*
X90100Y906103D01*
X90075Y906199D01*
X90046Y906295D01*
X90013Y906389D01*
X89977Y906482D01*
X89937Y906573D01*
X89893Y906663D01*
X89846Y906751D01*
X89796Y906837D01*
X89742Y906921D01*
X89685Y907003D01*
X89625Y907082D01*
X89561Y907160D01*
X89495Y907234D01*
X89426Y907306D01*
X89354Y907375D01*
X89280Y907441D01*
X89202Y907505D01*
X89123Y907565D01*
X89041Y907622D01*
X88957Y907676D01*
X88871Y907726D01*
X88783Y907773D01*
X88693Y907817D01*
X88602Y907857D01*
X88509Y907893D01*
X88415Y907926D01*
X88319Y907955D01*
X88223Y907980D01*
X88126Y908001D01*
X88027Y908019D01*
X87929Y908032D01*
X87829Y908042D01*
X87730Y908048D01*
X87630Y908050D01*
X69850Y908050D02*
X69750Y908048D01*
X69651Y908042D01*
X69551Y908032D01*
X69453Y908019D01*
X69354Y908001D01*
X69257Y907980D01*
X69161Y907955D01*
X69065Y907926D01*
X68971Y907893D01*
X68878Y907857D01*
X68787Y907817D01*
X68697Y907773D01*
X68609Y907726D01*
X68523Y907676D01*
X68439Y907622D01*
X68357Y907565D01*
X68278Y907505D01*
X68200Y907441D01*
X68126Y907375D01*
X68054Y907306D01*
X67985Y907234D01*
X67919Y907160D01*
X67855Y907082D01*
X67795Y907003D01*
X67738Y906921D01*
X67684Y906837D01*
X67634Y906751D01*
X67587Y906663D01*
X67543Y906573D01*
X67503Y906482D01*
X67467Y906389D01*
X67434Y906295D01*
X67405Y906199D01*
X67380Y906103D01*
X67359Y906006D01*
X67341Y905907D01*
X67328Y905809D01*
X67318Y905709D01*
X67312Y905610D01*
X67310Y905510D01*
X67310Y847090D02*
X67312Y846990D01*
X67318Y846891D01*
X67328Y846791D01*
X67341Y846693D01*
X67359Y846594D01*
X67380Y846497D01*
X67405Y846401D01*
X67434Y846305D01*
X67467Y846211D01*
X67503Y846118D01*
X67543Y846027D01*
X67587Y845937D01*
X67634Y845849D01*
X67684Y845763D01*
X67738Y845679D01*
X67795Y845597D01*
X67855Y845518D01*
X67919Y845440D01*
X67985Y845366D01*
X68054Y845294D01*
X68126Y845225D01*
X68200Y845159D01*
X68278Y845095D01*
X68357Y845035D01*
X68439Y844978D01*
X68523Y844924D01*
X68609Y844874D01*
X68697Y844827D01*
X68787Y844783D01*
X68878Y844743D01*
X68971Y844707D01*
X69065Y844674D01*
X69161Y844645D01*
X69257Y844620D01*
X69354Y844599D01*
X69453Y844581D01*
X69551Y844568D01*
X69651Y844558D01*
X69750Y844552D01*
X69850Y844550D01*
X87630Y844550D02*
X87730Y844552D01*
X87829Y844558D01*
X87929Y844568D01*
X88027Y844581D01*
X88126Y844599D01*
X88223Y844620D01*
X88319Y844645D01*
X88415Y844674D01*
X88509Y844707D01*
X88602Y844743D01*
X88693Y844783D01*
X88783Y844827D01*
X88871Y844874D01*
X88957Y844924D01*
X89041Y844978D01*
X89123Y845035D01*
X89202Y845095D01*
X89280Y845159D01*
X89354Y845225D01*
X89426Y845294D01*
X89495Y845366D01*
X89561Y845440D01*
X89625Y845518D01*
X89685Y845597D01*
X89742Y845679D01*
X89796Y845763D01*
X89846Y845849D01*
X89893Y845937D01*
X89937Y846027D01*
X89977Y846118D01*
X90013Y846211D01*
X90046Y846305D01*
X90075Y846401D01*
X90100Y846497D01*
X90121Y846594D01*
X90139Y846693D01*
X90152Y846791D01*
X90162Y846891D01*
X90168Y846990D01*
X90170Y847090D01*
X87630Y908050D02*
X69850Y908050D01*
X90170Y905510D02*
X90170Y901700D01*
X88900Y900430D01*
X67310Y901700D02*
X67310Y905510D01*
X67310Y901700D02*
X68580Y900430D01*
X88900Y852170D02*
X90170Y850900D01*
X88900Y852170D02*
X88900Y900430D01*
X68580Y852170D02*
X67310Y850900D01*
X68580Y852170D02*
X68580Y900430D01*
X90170Y850900D02*
X90170Y847090D01*
X67310Y847090D02*
X67310Y850900D01*
X69850Y844550D02*
X87630Y844550D01*
D21*
X78740Y840232D03*
X78740Y912368D03*
D11*
X94605Y819710D02*
X106045Y819710D01*
X94605Y819710D02*
X94605Y825430D01*
X96512Y827337D01*
X100325Y827337D01*
X102232Y825430D01*
X102232Y819710D01*
X102232Y823523D02*
X106045Y827337D01*
X96512Y831404D02*
X94605Y833311D01*
X94605Y837124D01*
X96512Y839031D01*
X98419Y839031D01*
X100325Y837124D01*
X100325Y835217D01*
X100325Y837124D02*
X102232Y839031D01*
X104138Y839031D01*
X106045Y837124D01*
X106045Y833311D01*
X104138Y831404D01*
X100325Y843098D02*
X100325Y850725D01*
X104138Y854792D02*
X96512Y854792D01*
X94605Y856699D01*
X94605Y860512D01*
X96512Y862418D01*
X104138Y862418D01*
X106045Y860512D01*
X106045Y856699D01*
X104138Y854792D01*
X96512Y862418D01*
X104138Y866486D02*
X106045Y866486D01*
X104138Y866486D02*
X104138Y868393D01*
X106045Y868393D01*
X106045Y866486D01*
X106045Y872333D02*
X106045Y879959D01*
X106045Y872333D02*
X98419Y879959D01*
X96512Y879959D01*
X94605Y878053D01*
X94605Y874240D01*
X96512Y872333D01*
X94605Y884027D02*
X94605Y891653D01*
X94605Y884027D02*
X100325Y884027D01*
X98419Y887840D01*
X98419Y889747D01*
X100325Y891653D01*
X104138Y891653D01*
X106045Y889747D01*
X106045Y885934D01*
X104138Y884027D01*
X106045Y895721D02*
X94605Y895721D01*
X102232Y899534D02*
X106045Y895721D01*
X102232Y899534D02*
X106045Y903347D01*
X94605Y903347D01*
D10*
X74930Y508000D02*
X62230Y508000D01*
X74930Y508000D02*
X81280Y501650D01*
X81280Y488950D01*
X74930Y482600D01*
X55880Y488950D02*
X55880Y501650D01*
X62230Y508000D01*
X55880Y488950D02*
X62230Y482600D01*
X74930Y482600D01*
D11*
X57660Y514223D02*
X55753Y516130D01*
X57660Y514223D02*
X59566Y514223D01*
X61473Y516130D01*
X61473Y525663D01*
X59566Y525663D02*
X63380Y525663D01*
X67447Y525663D02*
X67447Y514223D01*
X67447Y525663D02*
X73167Y525663D01*
X75073Y523756D01*
X75073Y519943D01*
X73167Y518036D01*
X67447Y518036D01*
X79141Y514223D02*
X86767Y514223D01*
X79141Y514223D02*
X86767Y521850D01*
X86767Y523756D01*
X84861Y525663D01*
X81048Y525663D01*
X79141Y523756D01*
X90835Y512316D02*
X98461Y512316D01*
X102529Y514223D02*
X102529Y525663D01*
X108249Y525663D01*
X110155Y523756D01*
X110155Y519943D01*
X108249Y518036D01*
X102529Y518036D01*
X106342Y518036D02*
X110155Y514223D01*
X121849Y514223D02*
X114223Y525663D01*
X121849Y525663D02*
X114223Y514223D01*
D10*
X133350Y970280D02*
X146050Y970280D01*
X152400Y963930D01*
X152400Y951230D01*
X146050Y944880D01*
X127000Y951230D02*
X127000Y963930D01*
X133350Y970280D01*
X127000Y951230D02*
X133350Y944880D01*
X146050Y944880D01*
D11*
X111000Y930783D02*
X109093Y932690D01*
X111000Y930783D02*
X112906Y930783D01*
X114813Y932690D01*
X114813Y942223D01*
X112906Y942223D02*
X116720Y942223D01*
X120787Y942223D02*
X120787Y930783D01*
X120787Y942223D02*
X126507Y942223D01*
X128413Y940316D01*
X128413Y936503D01*
X126507Y934596D01*
X120787Y934596D01*
X132481Y930783D02*
X140107Y930783D01*
X132481Y930783D02*
X140107Y938410D01*
X140107Y940316D01*
X138201Y942223D01*
X134388Y942223D01*
X132481Y940316D01*
X144175Y928876D02*
X151801Y928876D01*
X159682Y930783D02*
X159682Y942223D01*
X155869Y942223D02*
X163495Y942223D01*
X167563Y942223D02*
X175189Y930783D01*
X167563Y930783D02*
X175189Y942223D01*
D10*
X-387350Y528320D02*
X-401320Y528320D01*
X-326390Y528320D02*
X-326390Y426720D01*
X-344170Y426720D01*
X-401320Y426720D02*
X-401320Y528320D01*
X-335280Y528320D02*
X-334010Y533400D01*
X-335280Y528320D02*
X-326390Y528320D01*
X-334010Y533400D02*
X-345440Y533400D01*
X-344170Y528320D01*
X-335280Y528320D01*
X-344170Y528320D02*
X-344170Y426720D01*
X-387350Y426720D01*
X-387350Y528320D01*
X-344170Y528320D01*
X-387350Y426720D02*
X-401320Y426720D01*
X-340360Y452374D02*
X-340358Y452516D01*
X-340352Y452659D01*
X-340342Y452801D01*
X-340328Y452943D01*
X-340310Y453084D01*
X-340288Y453225D01*
X-340262Y453365D01*
X-340233Y453504D01*
X-340199Y453643D01*
X-340161Y453780D01*
X-340120Y453917D01*
X-340075Y454052D01*
X-340026Y454186D01*
X-339973Y454318D01*
X-339917Y454449D01*
X-339857Y454578D01*
X-339793Y454706D01*
X-339726Y454831D01*
X-339655Y454955D01*
X-339581Y455077D01*
X-339504Y455196D01*
X-339423Y455314D01*
X-339339Y455429D01*
X-339252Y455541D01*
X-339161Y455651D01*
X-339068Y455759D01*
X-338971Y455864D01*
X-338872Y455966D01*
X-338770Y456065D01*
X-338665Y456162D01*
X-338557Y456255D01*
X-338447Y456346D01*
X-338335Y456433D01*
X-338220Y456517D01*
X-338102Y456598D01*
X-337983Y456675D01*
X-337861Y456749D01*
X-337737Y456820D01*
X-337612Y456887D01*
X-337484Y456951D01*
X-337355Y457011D01*
X-337224Y457067D01*
X-337092Y457120D01*
X-336958Y457169D01*
X-336823Y457214D01*
X-336686Y457255D01*
X-336549Y457293D01*
X-336410Y457327D01*
X-336271Y457356D01*
X-336131Y457382D01*
X-335990Y457404D01*
X-335849Y457422D01*
X-335707Y457436D01*
X-335565Y457446D01*
X-335422Y457452D01*
X-335280Y457454D01*
X-335138Y457452D01*
X-334995Y457446D01*
X-334853Y457436D01*
X-334711Y457422D01*
X-334570Y457404D01*
X-334429Y457382D01*
X-334289Y457356D01*
X-334150Y457327D01*
X-334011Y457293D01*
X-333874Y457255D01*
X-333737Y457214D01*
X-333602Y457169D01*
X-333468Y457120D01*
X-333336Y457067D01*
X-333205Y457011D01*
X-333076Y456951D01*
X-332948Y456887D01*
X-332823Y456820D01*
X-332699Y456749D01*
X-332577Y456675D01*
X-332458Y456598D01*
X-332340Y456517D01*
X-332225Y456433D01*
X-332113Y456346D01*
X-332003Y456255D01*
X-331895Y456162D01*
X-331790Y456065D01*
X-331688Y455966D01*
X-331589Y455864D01*
X-331492Y455759D01*
X-331399Y455651D01*
X-331308Y455541D01*
X-331221Y455429D01*
X-331137Y455314D01*
X-331056Y455196D01*
X-330979Y455077D01*
X-330905Y454955D01*
X-330834Y454831D01*
X-330767Y454706D01*
X-330703Y454578D01*
X-330643Y454449D01*
X-330587Y454318D01*
X-330534Y454186D01*
X-330485Y454052D01*
X-330440Y453917D01*
X-330399Y453780D01*
X-330361Y453643D01*
X-330327Y453504D01*
X-330298Y453365D01*
X-330272Y453225D01*
X-330250Y453084D01*
X-330232Y452943D01*
X-330218Y452801D01*
X-330208Y452659D01*
X-330202Y452516D01*
X-330200Y452374D01*
X-330202Y452232D01*
X-330208Y452089D01*
X-330218Y451947D01*
X-330232Y451805D01*
X-330250Y451664D01*
X-330272Y451523D01*
X-330298Y451383D01*
X-330327Y451244D01*
X-330361Y451105D01*
X-330399Y450968D01*
X-330440Y450831D01*
X-330485Y450696D01*
X-330534Y450562D01*
X-330587Y450430D01*
X-330643Y450299D01*
X-330703Y450170D01*
X-330767Y450042D01*
X-330834Y449917D01*
X-330905Y449793D01*
X-330979Y449671D01*
X-331056Y449552D01*
X-331137Y449434D01*
X-331221Y449319D01*
X-331308Y449207D01*
X-331399Y449097D01*
X-331492Y448989D01*
X-331589Y448884D01*
X-331688Y448782D01*
X-331790Y448683D01*
X-331895Y448586D01*
X-332003Y448493D01*
X-332113Y448402D01*
X-332225Y448315D01*
X-332340Y448231D01*
X-332458Y448150D01*
X-332577Y448073D01*
X-332699Y447999D01*
X-332823Y447928D01*
X-332948Y447861D01*
X-333076Y447797D01*
X-333205Y447737D01*
X-333336Y447681D01*
X-333468Y447628D01*
X-333602Y447579D01*
X-333737Y447534D01*
X-333874Y447493D01*
X-334011Y447455D01*
X-334150Y447421D01*
X-334289Y447392D01*
X-334429Y447366D01*
X-334570Y447344D01*
X-334711Y447326D01*
X-334853Y447312D01*
X-334995Y447302D01*
X-335138Y447296D01*
X-335280Y447294D01*
X-335422Y447296D01*
X-335565Y447302D01*
X-335707Y447312D01*
X-335849Y447326D01*
X-335990Y447344D01*
X-336131Y447366D01*
X-336271Y447392D01*
X-336410Y447421D01*
X-336549Y447455D01*
X-336686Y447493D01*
X-336823Y447534D01*
X-336958Y447579D01*
X-337092Y447628D01*
X-337224Y447681D01*
X-337355Y447737D01*
X-337484Y447797D01*
X-337612Y447861D01*
X-337737Y447928D01*
X-337861Y447999D01*
X-337983Y448073D01*
X-338102Y448150D01*
X-338220Y448231D01*
X-338335Y448315D01*
X-338447Y448402D01*
X-338557Y448493D01*
X-338665Y448586D01*
X-338770Y448683D01*
X-338872Y448782D01*
X-338971Y448884D01*
X-339068Y448989D01*
X-339161Y449097D01*
X-339252Y449207D01*
X-339339Y449319D01*
X-339423Y449434D01*
X-339504Y449552D01*
X-339581Y449671D01*
X-339655Y449793D01*
X-339726Y449917D01*
X-339793Y450042D01*
X-339857Y450170D01*
X-339917Y450299D01*
X-339973Y450430D01*
X-340026Y450562D01*
X-340075Y450696D01*
X-340120Y450831D01*
X-340161Y450968D01*
X-340199Y451105D01*
X-340233Y451244D01*
X-340262Y451383D01*
X-340288Y451523D01*
X-340310Y451664D01*
X-340328Y451805D01*
X-340342Y451947D01*
X-340352Y452089D01*
X-340358Y452232D01*
X-340360Y452374D01*
X-340360Y502666D02*
X-340358Y502808D01*
X-340352Y502951D01*
X-340342Y503093D01*
X-340328Y503235D01*
X-340310Y503376D01*
X-340288Y503517D01*
X-340262Y503657D01*
X-340233Y503796D01*
X-340199Y503935D01*
X-340161Y504072D01*
X-340120Y504209D01*
X-340075Y504344D01*
X-340026Y504478D01*
X-339973Y504610D01*
X-339917Y504741D01*
X-339857Y504870D01*
X-339793Y504998D01*
X-339726Y505123D01*
X-339655Y505247D01*
X-339581Y505369D01*
X-339504Y505488D01*
X-339423Y505606D01*
X-339339Y505721D01*
X-339252Y505833D01*
X-339161Y505943D01*
X-339068Y506051D01*
X-338971Y506156D01*
X-338872Y506258D01*
X-338770Y506357D01*
X-338665Y506454D01*
X-338557Y506547D01*
X-338447Y506638D01*
X-338335Y506725D01*
X-338220Y506809D01*
X-338102Y506890D01*
X-337983Y506967D01*
X-337861Y507041D01*
X-337737Y507112D01*
X-337612Y507179D01*
X-337484Y507243D01*
X-337355Y507303D01*
X-337224Y507359D01*
X-337092Y507412D01*
X-336958Y507461D01*
X-336823Y507506D01*
X-336686Y507547D01*
X-336549Y507585D01*
X-336410Y507619D01*
X-336271Y507648D01*
X-336131Y507674D01*
X-335990Y507696D01*
X-335849Y507714D01*
X-335707Y507728D01*
X-335565Y507738D01*
X-335422Y507744D01*
X-335280Y507746D01*
X-335138Y507744D01*
X-334995Y507738D01*
X-334853Y507728D01*
X-334711Y507714D01*
X-334570Y507696D01*
X-334429Y507674D01*
X-334289Y507648D01*
X-334150Y507619D01*
X-334011Y507585D01*
X-333874Y507547D01*
X-333737Y507506D01*
X-333602Y507461D01*
X-333468Y507412D01*
X-333336Y507359D01*
X-333205Y507303D01*
X-333076Y507243D01*
X-332948Y507179D01*
X-332823Y507112D01*
X-332699Y507041D01*
X-332577Y506967D01*
X-332458Y506890D01*
X-332340Y506809D01*
X-332225Y506725D01*
X-332113Y506638D01*
X-332003Y506547D01*
X-331895Y506454D01*
X-331790Y506357D01*
X-331688Y506258D01*
X-331589Y506156D01*
X-331492Y506051D01*
X-331399Y505943D01*
X-331308Y505833D01*
X-331221Y505721D01*
X-331137Y505606D01*
X-331056Y505488D01*
X-330979Y505369D01*
X-330905Y505247D01*
X-330834Y505123D01*
X-330767Y504998D01*
X-330703Y504870D01*
X-330643Y504741D01*
X-330587Y504610D01*
X-330534Y504478D01*
X-330485Y504344D01*
X-330440Y504209D01*
X-330399Y504072D01*
X-330361Y503935D01*
X-330327Y503796D01*
X-330298Y503657D01*
X-330272Y503517D01*
X-330250Y503376D01*
X-330232Y503235D01*
X-330218Y503093D01*
X-330208Y502951D01*
X-330202Y502808D01*
X-330200Y502666D01*
X-330202Y502524D01*
X-330208Y502381D01*
X-330218Y502239D01*
X-330232Y502097D01*
X-330250Y501956D01*
X-330272Y501815D01*
X-330298Y501675D01*
X-330327Y501536D01*
X-330361Y501397D01*
X-330399Y501260D01*
X-330440Y501123D01*
X-330485Y500988D01*
X-330534Y500854D01*
X-330587Y500722D01*
X-330643Y500591D01*
X-330703Y500462D01*
X-330767Y500334D01*
X-330834Y500209D01*
X-330905Y500085D01*
X-330979Y499963D01*
X-331056Y499844D01*
X-331137Y499726D01*
X-331221Y499611D01*
X-331308Y499499D01*
X-331399Y499389D01*
X-331492Y499281D01*
X-331589Y499176D01*
X-331688Y499074D01*
X-331790Y498975D01*
X-331895Y498878D01*
X-332003Y498785D01*
X-332113Y498694D01*
X-332225Y498607D01*
X-332340Y498523D01*
X-332458Y498442D01*
X-332577Y498365D01*
X-332699Y498291D01*
X-332823Y498220D01*
X-332948Y498153D01*
X-333076Y498089D01*
X-333205Y498029D01*
X-333336Y497973D01*
X-333468Y497920D01*
X-333602Y497871D01*
X-333737Y497826D01*
X-333874Y497785D01*
X-334011Y497747D01*
X-334150Y497713D01*
X-334289Y497684D01*
X-334429Y497658D01*
X-334570Y497636D01*
X-334711Y497618D01*
X-334853Y497604D01*
X-334995Y497594D01*
X-335138Y497588D01*
X-335280Y497586D01*
X-335422Y497588D01*
X-335565Y497594D01*
X-335707Y497604D01*
X-335849Y497618D01*
X-335990Y497636D01*
X-336131Y497658D01*
X-336271Y497684D01*
X-336410Y497713D01*
X-336549Y497747D01*
X-336686Y497785D01*
X-336823Y497826D01*
X-336958Y497871D01*
X-337092Y497920D01*
X-337224Y497973D01*
X-337355Y498029D01*
X-337484Y498089D01*
X-337612Y498153D01*
X-337737Y498220D01*
X-337861Y498291D01*
X-337983Y498365D01*
X-338102Y498442D01*
X-338220Y498523D01*
X-338335Y498607D01*
X-338447Y498694D01*
X-338557Y498785D01*
X-338665Y498878D01*
X-338770Y498975D01*
X-338872Y499074D01*
X-338971Y499176D01*
X-339068Y499281D01*
X-339161Y499389D01*
X-339252Y499499D01*
X-339339Y499611D01*
X-339423Y499726D01*
X-339504Y499844D01*
X-339581Y499963D01*
X-339655Y500085D01*
X-339726Y500209D01*
X-339793Y500334D01*
X-339857Y500462D01*
X-339917Y500591D01*
X-339973Y500722D01*
X-340026Y500854D01*
X-340075Y500988D01*
X-340120Y501123D01*
X-340161Y501260D01*
X-340199Y501397D01*
X-340233Y501536D01*
X-340262Y501675D01*
X-340288Y501815D01*
X-340310Y501956D01*
X-340328Y502097D01*
X-340342Y502239D01*
X-340352Y502381D01*
X-340358Y502524D01*
X-340360Y502666D01*
D11*
X-336851Y513484D02*
X-339732Y516365D01*
X-331089Y516365D01*
X-331089Y513484D02*
X-331089Y519246D01*
X-331089Y468446D02*
X-331089Y462684D01*
X-336851Y468446D01*
X-338292Y468446D01*
X-339732Y467005D01*
X-339732Y464124D01*
X-338292Y462684D01*
D14*
X-365760Y477520D03*
D12*
X-398399Y428716D02*
X-414415Y428716D01*
X-414415Y436724D01*
X-411745Y439393D01*
X-406407Y439393D01*
X-403738Y436724D01*
X-403738Y428716D01*
X-401068Y445088D02*
X-414415Y445088D01*
X-401068Y445088D02*
X-398399Y447757D01*
X-398399Y453096D01*
X-401068Y455765D01*
X-414415Y455765D01*
X-414415Y461459D02*
X-398399Y461459D01*
X-409076Y466798D02*
X-414415Y461459D01*
X-409076Y466798D02*
X-414415Y472137D01*
X-398399Y472137D01*
X-398399Y477831D02*
X-414415Y477831D01*
X-414415Y485839D01*
X-411745Y488508D01*
X-406407Y488508D01*
X-403738Y485839D01*
X-403738Y477831D01*
X-395730Y494203D02*
X-395730Y504880D01*
X-414415Y513243D02*
X-414415Y518582D01*
X-414415Y513243D02*
X-411745Y510574D01*
X-401068Y510574D01*
X-398399Y513243D01*
X-398399Y518582D01*
X-401068Y521251D01*
X-411745Y521251D01*
X-414415Y518582D01*
X-414415Y526946D02*
X-401068Y526946D01*
X-398399Y529615D01*
X-398399Y534954D01*
X-401068Y537623D01*
X-414415Y537623D01*
X-414415Y548656D02*
X-398399Y548656D01*
X-414415Y543317D02*
X-414415Y553994D01*
D10*
X-287020Y458470D02*
X-287020Y452120D01*
X-280670Y441960D02*
X-293370Y441960D01*
X-287020Y452120D01*
X-287020Y436880D01*
X-280670Y441960D02*
X-287020Y452120D01*
X-280670Y452120D01*
X-287020Y452120D02*
X-293370Y452120D01*
X-276860Y431800D02*
X-276862Y431700D01*
X-276868Y431601D01*
X-276878Y431501D01*
X-276891Y431403D01*
X-276909Y431304D01*
X-276930Y431207D01*
X-276955Y431111D01*
X-276984Y431015D01*
X-277017Y430921D01*
X-277053Y430828D01*
X-277093Y430737D01*
X-277137Y430647D01*
X-277184Y430559D01*
X-277234Y430473D01*
X-277288Y430389D01*
X-277345Y430307D01*
X-277405Y430228D01*
X-277469Y430150D01*
X-277535Y430076D01*
X-277604Y430004D01*
X-277676Y429935D01*
X-277750Y429869D01*
X-277828Y429805D01*
X-277907Y429745D01*
X-277989Y429688D01*
X-278073Y429634D01*
X-278159Y429584D01*
X-278247Y429537D01*
X-278337Y429493D01*
X-278428Y429453D01*
X-278521Y429417D01*
X-278615Y429384D01*
X-278711Y429355D01*
X-278807Y429330D01*
X-278904Y429309D01*
X-279003Y429291D01*
X-279101Y429278D01*
X-279201Y429268D01*
X-279300Y429262D01*
X-279400Y429260D01*
X-294640Y429260D01*
X-294740Y429262D01*
X-294839Y429268D01*
X-294939Y429278D01*
X-295037Y429291D01*
X-295136Y429309D01*
X-295233Y429330D01*
X-295329Y429355D01*
X-295425Y429384D01*
X-295519Y429417D01*
X-295612Y429453D01*
X-295703Y429493D01*
X-295793Y429537D01*
X-295881Y429584D01*
X-295967Y429634D01*
X-296051Y429688D01*
X-296133Y429745D01*
X-296212Y429805D01*
X-296290Y429869D01*
X-296364Y429935D01*
X-296436Y430004D01*
X-296505Y430076D01*
X-296571Y430150D01*
X-296635Y430228D01*
X-296695Y430307D01*
X-296752Y430389D01*
X-296806Y430473D01*
X-296856Y430559D01*
X-296903Y430647D01*
X-296947Y430737D01*
X-296987Y430828D01*
X-297023Y430921D01*
X-297056Y431015D01*
X-297085Y431111D01*
X-297110Y431207D01*
X-297131Y431304D01*
X-297149Y431403D01*
X-297162Y431501D01*
X-297172Y431601D01*
X-297178Y431700D01*
X-297180Y431800D01*
X-276860Y472440D02*
X-276862Y472540D01*
X-276868Y472639D01*
X-276878Y472739D01*
X-276891Y472837D01*
X-276909Y472936D01*
X-276930Y473033D01*
X-276955Y473129D01*
X-276984Y473225D01*
X-277017Y473319D01*
X-277053Y473412D01*
X-277093Y473503D01*
X-277137Y473593D01*
X-277184Y473681D01*
X-277234Y473767D01*
X-277288Y473851D01*
X-277345Y473933D01*
X-277405Y474012D01*
X-277469Y474090D01*
X-277535Y474164D01*
X-277604Y474236D01*
X-277676Y474305D01*
X-277750Y474371D01*
X-277828Y474435D01*
X-277907Y474495D01*
X-277989Y474552D01*
X-278073Y474606D01*
X-278159Y474656D01*
X-278247Y474703D01*
X-278337Y474747D01*
X-278428Y474787D01*
X-278521Y474823D01*
X-278615Y474856D01*
X-278711Y474885D01*
X-278807Y474910D01*
X-278904Y474931D01*
X-279003Y474949D01*
X-279101Y474962D01*
X-279201Y474972D01*
X-279300Y474978D01*
X-279400Y474980D01*
X-294640Y474980D02*
X-294740Y474978D01*
X-294839Y474972D01*
X-294939Y474962D01*
X-295037Y474949D01*
X-295136Y474931D01*
X-295233Y474910D01*
X-295329Y474885D01*
X-295425Y474856D01*
X-295519Y474823D01*
X-295612Y474787D01*
X-295703Y474747D01*
X-295793Y474703D01*
X-295881Y474656D01*
X-295967Y474606D01*
X-296051Y474552D01*
X-296133Y474495D01*
X-296212Y474435D01*
X-296290Y474371D01*
X-296364Y474305D01*
X-296436Y474236D01*
X-296505Y474164D01*
X-296571Y474090D01*
X-296635Y474012D01*
X-296695Y473933D01*
X-296752Y473851D01*
X-296806Y473767D01*
X-296856Y473681D01*
X-296903Y473593D01*
X-296947Y473503D01*
X-296987Y473412D01*
X-297023Y473319D01*
X-297056Y473225D01*
X-297085Y473129D01*
X-297110Y473033D01*
X-297131Y472936D01*
X-297149Y472837D01*
X-297162Y472739D01*
X-297172Y472639D01*
X-297178Y472540D01*
X-297180Y472440D01*
X-297180Y431800D01*
X-294640Y474980D02*
X-279400Y474980D01*
X-276860Y472440D02*
X-276860Y431800D01*
D22*
X-287020Y468630D03*
D23*
X-287020Y426085D03*
X-287020Y478155D03*
D11*
X-273695Y452227D02*
X-262255Y452227D01*
X-262255Y457947D01*
X-264162Y459854D01*
X-271788Y459854D01*
X-273695Y457947D01*
X-273695Y452227D01*
X-269882Y463921D02*
X-273695Y467734D01*
X-262255Y467734D01*
X-262255Y463921D02*
X-262255Y471548D01*
D10*
X-207010Y824230D02*
X-206910Y824232D01*
X-206811Y824238D01*
X-206711Y824248D01*
X-206613Y824261D01*
X-206514Y824279D01*
X-206417Y824300D01*
X-206321Y824325D01*
X-206225Y824354D01*
X-206131Y824387D01*
X-206038Y824423D01*
X-205947Y824463D01*
X-205857Y824507D01*
X-205769Y824554D01*
X-205683Y824604D01*
X-205599Y824658D01*
X-205517Y824715D01*
X-205438Y824775D01*
X-205360Y824839D01*
X-205286Y824905D01*
X-205214Y824974D01*
X-205145Y825046D01*
X-205079Y825120D01*
X-205015Y825198D01*
X-204955Y825277D01*
X-204898Y825359D01*
X-204844Y825443D01*
X-204794Y825529D01*
X-204747Y825617D01*
X-204703Y825707D01*
X-204663Y825798D01*
X-204627Y825891D01*
X-204594Y825985D01*
X-204565Y826081D01*
X-204540Y826177D01*
X-204519Y826274D01*
X-204501Y826373D01*
X-204488Y826471D01*
X-204478Y826571D01*
X-204472Y826670D01*
X-204470Y826770D01*
X-204470Y844550D02*
X-204472Y844650D01*
X-204478Y844749D01*
X-204488Y844849D01*
X-204501Y844947D01*
X-204519Y845046D01*
X-204540Y845143D01*
X-204565Y845239D01*
X-204594Y845335D01*
X-204627Y845429D01*
X-204663Y845522D01*
X-204703Y845613D01*
X-204747Y845703D01*
X-204794Y845791D01*
X-204844Y845877D01*
X-204898Y845961D01*
X-204955Y846043D01*
X-205015Y846122D01*
X-205079Y846200D01*
X-205145Y846274D01*
X-205214Y846346D01*
X-205286Y846415D01*
X-205360Y846481D01*
X-205438Y846545D01*
X-205517Y846605D01*
X-205599Y846662D01*
X-205683Y846716D01*
X-205769Y846766D01*
X-205857Y846813D01*
X-205947Y846857D01*
X-206038Y846897D01*
X-206131Y846933D01*
X-206225Y846966D01*
X-206321Y846995D01*
X-206417Y847020D01*
X-206514Y847041D01*
X-206613Y847059D01*
X-206711Y847072D01*
X-206811Y847082D01*
X-206910Y847088D01*
X-207010Y847090D01*
X-265430Y847090D02*
X-265530Y847088D01*
X-265629Y847082D01*
X-265729Y847072D01*
X-265827Y847059D01*
X-265926Y847041D01*
X-266023Y847020D01*
X-266119Y846995D01*
X-266215Y846966D01*
X-266309Y846933D01*
X-266402Y846897D01*
X-266493Y846857D01*
X-266583Y846813D01*
X-266671Y846766D01*
X-266757Y846716D01*
X-266841Y846662D01*
X-266923Y846605D01*
X-267002Y846545D01*
X-267080Y846481D01*
X-267154Y846415D01*
X-267226Y846346D01*
X-267295Y846274D01*
X-267361Y846200D01*
X-267425Y846122D01*
X-267485Y846043D01*
X-267542Y845961D01*
X-267596Y845877D01*
X-267646Y845791D01*
X-267693Y845703D01*
X-267737Y845613D01*
X-267777Y845522D01*
X-267813Y845429D01*
X-267846Y845335D01*
X-267875Y845239D01*
X-267900Y845143D01*
X-267921Y845046D01*
X-267939Y844947D01*
X-267952Y844849D01*
X-267962Y844749D01*
X-267968Y844650D01*
X-267970Y844550D01*
X-267970Y826770D02*
X-267968Y826670D01*
X-267962Y826571D01*
X-267952Y826471D01*
X-267939Y826373D01*
X-267921Y826274D01*
X-267900Y826177D01*
X-267875Y826081D01*
X-267846Y825985D01*
X-267813Y825891D01*
X-267777Y825798D01*
X-267737Y825707D01*
X-267693Y825617D01*
X-267646Y825529D01*
X-267596Y825443D01*
X-267542Y825359D01*
X-267485Y825277D01*
X-267425Y825198D01*
X-267361Y825120D01*
X-267295Y825046D01*
X-267226Y824974D01*
X-267154Y824905D01*
X-267080Y824839D01*
X-267002Y824775D01*
X-266923Y824715D01*
X-266841Y824658D01*
X-266757Y824604D01*
X-266671Y824554D01*
X-266583Y824507D01*
X-266493Y824463D01*
X-266402Y824423D01*
X-266309Y824387D01*
X-266215Y824354D01*
X-266119Y824325D01*
X-266023Y824300D01*
X-265926Y824279D01*
X-265827Y824261D01*
X-265729Y824248D01*
X-265629Y824238D01*
X-265530Y824232D01*
X-265430Y824230D01*
X-204470Y826770D02*
X-204470Y844550D01*
X-207010Y824230D02*
X-210820Y824230D01*
X-212090Y825500D01*
X-210820Y847090D02*
X-207010Y847090D01*
X-210820Y847090D02*
X-212090Y845820D01*
X-260350Y825500D02*
X-261620Y824230D01*
X-260350Y825500D02*
X-212090Y825500D01*
X-260350Y845820D02*
X-261620Y847090D01*
X-260350Y845820D02*
X-212090Y845820D01*
X-261620Y824230D02*
X-265430Y824230D01*
X-265430Y847090D02*
X-261620Y847090D01*
X-267970Y844550D02*
X-267970Y826770D01*
D13*
X-272288Y835660D03*
X-200152Y835660D03*
D11*
X-228493Y819795D02*
X-228493Y808355D01*
X-228493Y819795D02*
X-222773Y819795D01*
X-220866Y817888D01*
X-220866Y814075D01*
X-222773Y812168D01*
X-228493Y812168D01*
X-224680Y812168D02*
X-220866Y808355D01*
X-216799Y815982D02*
X-212986Y819795D01*
X-212986Y808355D01*
X-216799Y808355D02*
X-209173Y808355D01*
D10*
X-165100Y862330D02*
X-165100Y966470D01*
X-323850Y966470D02*
X-323850Y862330D01*
X-289560Y966470D02*
X-165100Y966470D01*
X-289560Y966470D02*
X-289560Y957580D01*
X-304800Y957580D01*
X-304800Y966470D01*
X-323850Y966470D01*
X-289560Y862330D02*
X-165100Y862330D01*
X-289560Y862330D02*
X-289560Y871220D01*
X-304800Y871220D01*
X-304800Y862330D01*
X-323850Y862330D01*
D16*
X-171450Y868680D02*
X-171450Y960120D01*
X-254000Y960120D01*
X-254000Y868680D01*
X-171450Y868680D01*
D10*
X-307594Y914400D02*
X-307589Y914843D01*
X-307572Y915285D01*
X-307545Y915727D01*
X-307507Y916168D01*
X-307458Y916608D01*
X-307399Y917046D01*
X-307328Y917483D01*
X-307247Y917918D01*
X-307156Y918351D01*
X-307054Y918782D01*
X-306941Y919210D01*
X-306817Y919635D01*
X-306684Y920057D01*
X-306540Y920475D01*
X-306386Y920890D01*
X-306221Y921301D01*
X-306047Y921708D01*
X-305863Y922111D01*
X-305668Y922508D01*
X-305465Y922901D01*
X-305251Y923289D01*
X-305028Y923671D01*
X-304796Y924048D01*
X-304555Y924419D01*
X-304304Y924784D01*
X-304045Y925143D01*
X-303777Y925495D01*
X-303500Y925841D01*
X-303216Y926179D01*
X-302922Y926511D01*
X-302621Y926835D01*
X-302312Y927152D01*
X-301995Y927461D01*
X-301671Y927762D01*
X-301339Y928056D01*
X-301001Y928340D01*
X-300655Y928617D01*
X-300303Y928885D01*
X-299944Y929144D01*
X-299579Y929395D01*
X-299208Y929636D01*
X-298831Y929868D01*
X-298449Y930091D01*
X-298061Y930305D01*
X-297668Y930508D01*
X-297271Y930703D01*
X-296868Y930887D01*
X-296461Y931061D01*
X-296050Y931226D01*
X-295635Y931380D01*
X-295217Y931524D01*
X-294795Y931657D01*
X-294370Y931781D01*
X-293942Y931894D01*
X-293511Y931996D01*
X-293078Y932087D01*
X-292643Y932168D01*
X-292206Y932239D01*
X-291768Y932298D01*
X-291328Y932347D01*
X-290887Y932385D01*
X-290445Y932412D01*
X-290003Y932429D01*
X-289560Y932434D01*
X-289117Y932429D01*
X-288675Y932412D01*
X-288233Y932385D01*
X-287792Y932347D01*
X-287352Y932298D01*
X-286914Y932239D01*
X-286477Y932168D01*
X-286042Y932087D01*
X-285609Y931996D01*
X-285178Y931894D01*
X-284750Y931781D01*
X-284325Y931657D01*
X-283903Y931524D01*
X-283485Y931380D01*
X-283070Y931226D01*
X-282659Y931061D01*
X-282252Y930887D01*
X-281849Y930703D01*
X-281452Y930508D01*
X-281059Y930305D01*
X-280671Y930091D01*
X-280289Y929868D01*
X-279912Y929636D01*
X-279541Y929395D01*
X-279176Y929144D01*
X-278817Y928885D01*
X-278465Y928617D01*
X-278119Y928340D01*
X-277781Y928056D01*
X-277449Y927762D01*
X-277125Y927461D01*
X-276808Y927152D01*
X-276499Y926835D01*
X-276198Y926511D01*
X-275904Y926179D01*
X-275620Y925841D01*
X-275343Y925495D01*
X-275075Y925143D01*
X-274816Y924784D01*
X-274565Y924419D01*
X-274324Y924048D01*
X-274092Y923671D01*
X-273869Y923289D01*
X-273655Y922901D01*
X-273452Y922508D01*
X-273257Y922111D01*
X-273073Y921708D01*
X-272899Y921301D01*
X-272734Y920890D01*
X-272580Y920475D01*
X-272436Y920057D01*
X-272303Y919635D01*
X-272179Y919210D01*
X-272066Y918782D01*
X-271964Y918351D01*
X-271873Y917918D01*
X-271792Y917483D01*
X-271721Y917046D01*
X-271662Y916608D01*
X-271613Y916168D01*
X-271575Y915727D01*
X-271548Y915285D01*
X-271531Y914843D01*
X-271526Y914400D01*
X-271531Y913957D01*
X-271548Y913515D01*
X-271575Y913073D01*
X-271613Y912632D01*
X-271662Y912192D01*
X-271721Y911754D01*
X-271792Y911317D01*
X-271873Y910882D01*
X-271964Y910449D01*
X-272066Y910018D01*
X-272179Y909590D01*
X-272303Y909165D01*
X-272436Y908743D01*
X-272580Y908325D01*
X-272734Y907910D01*
X-272899Y907499D01*
X-273073Y907092D01*
X-273257Y906689D01*
X-273452Y906292D01*
X-273655Y905899D01*
X-273869Y905511D01*
X-274092Y905129D01*
X-274324Y904752D01*
X-274565Y904381D01*
X-274816Y904016D01*
X-275075Y903657D01*
X-275343Y903305D01*
X-275620Y902959D01*
X-275904Y902621D01*
X-276198Y902289D01*
X-276499Y901965D01*
X-276808Y901648D01*
X-277125Y901339D01*
X-277449Y901038D01*
X-277781Y900744D01*
X-278119Y900460D01*
X-278465Y900183D01*
X-278817Y899915D01*
X-279176Y899656D01*
X-279541Y899405D01*
X-279912Y899164D01*
X-280289Y898932D01*
X-280671Y898709D01*
X-281059Y898495D01*
X-281452Y898292D01*
X-281849Y898097D01*
X-282252Y897913D01*
X-282659Y897739D01*
X-283070Y897574D01*
X-283485Y897420D01*
X-283903Y897276D01*
X-284325Y897143D01*
X-284750Y897019D01*
X-285178Y896906D01*
X-285609Y896804D01*
X-286042Y896713D01*
X-286477Y896632D01*
X-286914Y896561D01*
X-287352Y896502D01*
X-287792Y896453D01*
X-288233Y896415D01*
X-288675Y896388D01*
X-289117Y896371D01*
X-289560Y896366D01*
X-290003Y896371D01*
X-290445Y896388D01*
X-290887Y896415D01*
X-291328Y896453D01*
X-291768Y896502D01*
X-292206Y896561D01*
X-292643Y896632D01*
X-293078Y896713D01*
X-293511Y896804D01*
X-293942Y896906D01*
X-294370Y897019D01*
X-294795Y897143D01*
X-295217Y897276D01*
X-295635Y897420D01*
X-296050Y897574D01*
X-296461Y897739D01*
X-296868Y897913D01*
X-297271Y898097D01*
X-297668Y898292D01*
X-298061Y898495D01*
X-298449Y898709D01*
X-298831Y898932D01*
X-299208Y899164D01*
X-299579Y899405D01*
X-299944Y899656D01*
X-300303Y899915D01*
X-300655Y900183D01*
X-301001Y900460D01*
X-301339Y900744D01*
X-301671Y901038D01*
X-301995Y901339D01*
X-302312Y901648D01*
X-302621Y901965D01*
X-302922Y902289D01*
X-303216Y902621D01*
X-303500Y902959D01*
X-303777Y903305D01*
X-304045Y903657D01*
X-304304Y904016D01*
X-304555Y904381D01*
X-304796Y904752D01*
X-305028Y905129D01*
X-305251Y905511D01*
X-305465Y905899D01*
X-305668Y906292D01*
X-305863Y906689D01*
X-306047Y907092D01*
X-306221Y907499D01*
X-306386Y907910D01*
X-306540Y908325D01*
X-306684Y908743D01*
X-306817Y909165D01*
X-306941Y909590D01*
X-307054Y910018D01*
X-307156Y910449D01*
X-307247Y910882D01*
X-307328Y911317D01*
X-307399Y911754D01*
X-307458Y912192D01*
X-307507Y912632D01*
X-307545Y913073D01*
X-307572Y913515D01*
X-307589Y913957D01*
X-307594Y914400D01*
D17*
X-263149Y870458D02*
X-257048Y870458D01*
X-263149Y870458D02*
X-266200Y873509D01*
X-263149Y876559D01*
X-257048Y876559D01*
X-261624Y876559D02*
X-261624Y870458D01*
X-263149Y879813D02*
X-266200Y882864D01*
X-257048Y882864D01*
X-257048Y885914D02*
X-257048Y879813D01*
X-266200Y889168D02*
X-266200Y895270D01*
X-264675Y895270D01*
X-258573Y889168D01*
X-257048Y889168D01*
X-253997Y898524D02*
X-257048Y901574D01*
X-258573Y901574D01*
X-258573Y900049D01*
X-257048Y900049D01*
X-257048Y901574D01*
X-266200Y904760D02*
X-266200Y910862D01*
X-266200Y904760D02*
X-261624Y904760D01*
X-263149Y907811D01*
X-263149Y909336D01*
X-261624Y910862D01*
X-258573Y910862D01*
X-257048Y909336D01*
X-257048Y906286D01*
X-258573Y904760D01*
X-257048Y914116D02*
X-263149Y914116D01*
X-263149Y915641D01*
X-261624Y917166D01*
X-257048Y917166D01*
X-261624Y917166D02*
X-263149Y918691D01*
X-261624Y920217D01*
X-257048Y920217D01*
X-257048Y923471D02*
X-263149Y923471D01*
X-263149Y924996D01*
X-261624Y926521D01*
X-257048Y926521D01*
X-261624Y926521D02*
X-263149Y928047D01*
X-261624Y929572D01*
X-257048Y929572D01*
D24*
X-133985Y939800D03*
X-133985Y914400D03*
X-133985Y889000D03*
D25*
X-151130Y889000D03*
X-151130Y914400D03*
X-151130Y939800D03*
D12*
X-233428Y877189D02*
X-244105Y877189D01*
X-246775Y879858D01*
X-246775Y885197D01*
X-244105Y887866D01*
X-233428Y887866D01*
X-230759Y885197D01*
X-230759Y879858D01*
X-233428Y877189D01*
X-236098Y882528D02*
X-230759Y887866D01*
X-230759Y893561D02*
X-230759Y904238D01*
X-230759Y893561D02*
X-241436Y904238D01*
X-244105Y904238D01*
X-246775Y901568D01*
X-246775Y896230D01*
X-244105Y893561D01*
D10*
X-320040Y744220D02*
X-334010Y744220D01*
X-394970Y744220D02*
X-394970Y845820D01*
X-377190Y845820D01*
X-320040Y845820D02*
X-320040Y744220D01*
X-386080Y744220D02*
X-387350Y739140D01*
X-386080Y744220D02*
X-394970Y744220D01*
X-387350Y739140D02*
X-375920Y739140D01*
X-377190Y744220D01*
X-386080Y744220D01*
X-377190Y744220D02*
X-377190Y845820D01*
X-334010Y845820D01*
X-334010Y744220D01*
X-377190Y744220D01*
X-334010Y845820D02*
X-320040Y845820D01*
X-391160Y820166D02*
X-391158Y820308D01*
X-391152Y820451D01*
X-391142Y820593D01*
X-391128Y820735D01*
X-391110Y820876D01*
X-391088Y821017D01*
X-391062Y821157D01*
X-391033Y821296D01*
X-390999Y821435D01*
X-390961Y821572D01*
X-390920Y821709D01*
X-390875Y821844D01*
X-390826Y821978D01*
X-390773Y822110D01*
X-390717Y822241D01*
X-390657Y822370D01*
X-390593Y822498D01*
X-390526Y822623D01*
X-390455Y822747D01*
X-390381Y822869D01*
X-390304Y822988D01*
X-390223Y823106D01*
X-390139Y823221D01*
X-390052Y823333D01*
X-389961Y823443D01*
X-389868Y823551D01*
X-389771Y823656D01*
X-389672Y823758D01*
X-389570Y823857D01*
X-389465Y823954D01*
X-389357Y824047D01*
X-389247Y824138D01*
X-389135Y824225D01*
X-389020Y824309D01*
X-388902Y824390D01*
X-388783Y824467D01*
X-388661Y824541D01*
X-388537Y824612D01*
X-388412Y824679D01*
X-388284Y824743D01*
X-388155Y824803D01*
X-388024Y824859D01*
X-387892Y824912D01*
X-387758Y824961D01*
X-387623Y825006D01*
X-387486Y825047D01*
X-387349Y825085D01*
X-387210Y825119D01*
X-387071Y825148D01*
X-386931Y825174D01*
X-386790Y825196D01*
X-386649Y825214D01*
X-386507Y825228D01*
X-386365Y825238D01*
X-386222Y825244D01*
X-386080Y825246D01*
X-385938Y825244D01*
X-385795Y825238D01*
X-385653Y825228D01*
X-385511Y825214D01*
X-385370Y825196D01*
X-385229Y825174D01*
X-385089Y825148D01*
X-384950Y825119D01*
X-384811Y825085D01*
X-384674Y825047D01*
X-384537Y825006D01*
X-384402Y824961D01*
X-384268Y824912D01*
X-384136Y824859D01*
X-384005Y824803D01*
X-383876Y824743D01*
X-383748Y824679D01*
X-383623Y824612D01*
X-383499Y824541D01*
X-383377Y824467D01*
X-383258Y824390D01*
X-383140Y824309D01*
X-383025Y824225D01*
X-382913Y824138D01*
X-382803Y824047D01*
X-382695Y823954D01*
X-382590Y823857D01*
X-382488Y823758D01*
X-382389Y823656D01*
X-382292Y823551D01*
X-382199Y823443D01*
X-382108Y823333D01*
X-382021Y823221D01*
X-381937Y823106D01*
X-381856Y822988D01*
X-381779Y822869D01*
X-381705Y822747D01*
X-381634Y822623D01*
X-381567Y822498D01*
X-381503Y822370D01*
X-381443Y822241D01*
X-381387Y822110D01*
X-381334Y821978D01*
X-381285Y821844D01*
X-381240Y821709D01*
X-381199Y821572D01*
X-381161Y821435D01*
X-381127Y821296D01*
X-381098Y821157D01*
X-381072Y821017D01*
X-381050Y820876D01*
X-381032Y820735D01*
X-381018Y820593D01*
X-381008Y820451D01*
X-381002Y820308D01*
X-381000Y820166D01*
X-381002Y820024D01*
X-381008Y819881D01*
X-381018Y819739D01*
X-381032Y819597D01*
X-381050Y819456D01*
X-381072Y819315D01*
X-381098Y819175D01*
X-381127Y819036D01*
X-381161Y818897D01*
X-381199Y818760D01*
X-381240Y818623D01*
X-381285Y818488D01*
X-381334Y818354D01*
X-381387Y818222D01*
X-381443Y818091D01*
X-381503Y817962D01*
X-381567Y817834D01*
X-381634Y817709D01*
X-381705Y817585D01*
X-381779Y817463D01*
X-381856Y817344D01*
X-381937Y817226D01*
X-382021Y817111D01*
X-382108Y816999D01*
X-382199Y816889D01*
X-382292Y816781D01*
X-382389Y816676D01*
X-382488Y816574D01*
X-382590Y816475D01*
X-382695Y816378D01*
X-382803Y816285D01*
X-382913Y816194D01*
X-383025Y816107D01*
X-383140Y816023D01*
X-383258Y815942D01*
X-383377Y815865D01*
X-383499Y815791D01*
X-383623Y815720D01*
X-383748Y815653D01*
X-383876Y815589D01*
X-384005Y815529D01*
X-384136Y815473D01*
X-384268Y815420D01*
X-384402Y815371D01*
X-384537Y815326D01*
X-384674Y815285D01*
X-384811Y815247D01*
X-384950Y815213D01*
X-385089Y815184D01*
X-385229Y815158D01*
X-385370Y815136D01*
X-385511Y815118D01*
X-385653Y815104D01*
X-385795Y815094D01*
X-385938Y815088D01*
X-386080Y815086D01*
X-386222Y815088D01*
X-386365Y815094D01*
X-386507Y815104D01*
X-386649Y815118D01*
X-386790Y815136D01*
X-386931Y815158D01*
X-387071Y815184D01*
X-387210Y815213D01*
X-387349Y815247D01*
X-387486Y815285D01*
X-387623Y815326D01*
X-387758Y815371D01*
X-387892Y815420D01*
X-388024Y815473D01*
X-388155Y815529D01*
X-388284Y815589D01*
X-388412Y815653D01*
X-388537Y815720D01*
X-388661Y815791D01*
X-388783Y815865D01*
X-388902Y815942D01*
X-389020Y816023D01*
X-389135Y816107D01*
X-389247Y816194D01*
X-389357Y816285D01*
X-389465Y816378D01*
X-389570Y816475D01*
X-389672Y816574D01*
X-389771Y816676D01*
X-389868Y816781D01*
X-389961Y816889D01*
X-390052Y816999D01*
X-390139Y817111D01*
X-390223Y817226D01*
X-390304Y817344D01*
X-390381Y817463D01*
X-390455Y817585D01*
X-390526Y817709D01*
X-390593Y817834D01*
X-390657Y817962D01*
X-390717Y818091D01*
X-390773Y818222D01*
X-390826Y818354D01*
X-390875Y818488D01*
X-390920Y818623D01*
X-390961Y818760D01*
X-390999Y818897D01*
X-391033Y819036D01*
X-391062Y819175D01*
X-391088Y819315D01*
X-391110Y819456D01*
X-391128Y819597D01*
X-391142Y819739D01*
X-391152Y819881D01*
X-391158Y820024D01*
X-391160Y820166D01*
X-391160Y769874D02*
X-391158Y770016D01*
X-391152Y770159D01*
X-391142Y770301D01*
X-391128Y770443D01*
X-391110Y770584D01*
X-391088Y770725D01*
X-391062Y770865D01*
X-391033Y771004D01*
X-390999Y771143D01*
X-390961Y771280D01*
X-390920Y771417D01*
X-390875Y771552D01*
X-390826Y771686D01*
X-390773Y771818D01*
X-390717Y771949D01*
X-390657Y772078D01*
X-390593Y772206D01*
X-390526Y772331D01*
X-390455Y772455D01*
X-390381Y772577D01*
X-390304Y772696D01*
X-390223Y772814D01*
X-390139Y772929D01*
X-390052Y773041D01*
X-389961Y773151D01*
X-389868Y773259D01*
X-389771Y773364D01*
X-389672Y773466D01*
X-389570Y773565D01*
X-389465Y773662D01*
X-389357Y773755D01*
X-389247Y773846D01*
X-389135Y773933D01*
X-389020Y774017D01*
X-388902Y774098D01*
X-388783Y774175D01*
X-388661Y774249D01*
X-388537Y774320D01*
X-388412Y774387D01*
X-388284Y774451D01*
X-388155Y774511D01*
X-388024Y774567D01*
X-387892Y774620D01*
X-387758Y774669D01*
X-387623Y774714D01*
X-387486Y774755D01*
X-387349Y774793D01*
X-387210Y774827D01*
X-387071Y774856D01*
X-386931Y774882D01*
X-386790Y774904D01*
X-386649Y774922D01*
X-386507Y774936D01*
X-386365Y774946D01*
X-386222Y774952D01*
X-386080Y774954D01*
X-385938Y774952D01*
X-385795Y774946D01*
X-385653Y774936D01*
X-385511Y774922D01*
X-385370Y774904D01*
X-385229Y774882D01*
X-385089Y774856D01*
X-384950Y774827D01*
X-384811Y774793D01*
X-384674Y774755D01*
X-384537Y774714D01*
X-384402Y774669D01*
X-384268Y774620D01*
X-384136Y774567D01*
X-384005Y774511D01*
X-383876Y774451D01*
X-383748Y774387D01*
X-383623Y774320D01*
X-383499Y774249D01*
X-383377Y774175D01*
X-383258Y774098D01*
X-383140Y774017D01*
X-383025Y773933D01*
X-382913Y773846D01*
X-382803Y773755D01*
X-382695Y773662D01*
X-382590Y773565D01*
X-382488Y773466D01*
X-382389Y773364D01*
X-382292Y773259D01*
X-382199Y773151D01*
X-382108Y773041D01*
X-382021Y772929D01*
X-381937Y772814D01*
X-381856Y772696D01*
X-381779Y772577D01*
X-381705Y772455D01*
X-381634Y772331D01*
X-381567Y772206D01*
X-381503Y772078D01*
X-381443Y771949D01*
X-381387Y771818D01*
X-381334Y771686D01*
X-381285Y771552D01*
X-381240Y771417D01*
X-381199Y771280D01*
X-381161Y771143D01*
X-381127Y771004D01*
X-381098Y770865D01*
X-381072Y770725D01*
X-381050Y770584D01*
X-381032Y770443D01*
X-381018Y770301D01*
X-381008Y770159D01*
X-381002Y770016D01*
X-381000Y769874D01*
X-381002Y769732D01*
X-381008Y769589D01*
X-381018Y769447D01*
X-381032Y769305D01*
X-381050Y769164D01*
X-381072Y769023D01*
X-381098Y768883D01*
X-381127Y768744D01*
X-381161Y768605D01*
X-381199Y768468D01*
X-381240Y768331D01*
X-381285Y768196D01*
X-381334Y768062D01*
X-381387Y767930D01*
X-381443Y767799D01*
X-381503Y767670D01*
X-381567Y767542D01*
X-381634Y767417D01*
X-381705Y767293D01*
X-381779Y767171D01*
X-381856Y767052D01*
X-381937Y766934D01*
X-382021Y766819D01*
X-382108Y766707D01*
X-382199Y766597D01*
X-382292Y766489D01*
X-382389Y766384D01*
X-382488Y766282D01*
X-382590Y766183D01*
X-382695Y766086D01*
X-382803Y765993D01*
X-382913Y765902D01*
X-383025Y765815D01*
X-383140Y765731D01*
X-383258Y765650D01*
X-383377Y765573D01*
X-383499Y765499D01*
X-383623Y765428D01*
X-383748Y765361D01*
X-383876Y765297D01*
X-384005Y765237D01*
X-384136Y765181D01*
X-384268Y765128D01*
X-384402Y765079D01*
X-384537Y765034D01*
X-384674Y764993D01*
X-384811Y764955D01*
X-384950Y764921D01*
X-385089Y764892D01*
X-385229Y764866D01*
X-385370Y764844D01*
X-385511Y764826D01*
X-385653Y764812D01*
X-385795Y764802D01*
X-385938Y764796D01*
X-386080Y764794D01*
X-386222Y764796D01*
X-386365Y764802D01*
X-386507Y764812D01*
X-386649Y764826D01*
X-386790Y764844D01*
X-386931Y764866D01*
X-387071Y764892D01*
X-387210Y764921D01*
X-387349Y764955D01*
X-387486Y764993D01*
X-387623Y765034D01*
X-387758Y765079D01*
X-387892Y765128D01*
X-388024Y765181D01*
X-388155Y765237D01*
X-388284Y765297D01*
X-388412Y765361D01*
X-388537Y765428D01*
X-388661Y765499D01*
X-388783Y765573D01*
X-388902Y765650D01*
X-389020Y765731D01*
X-389135Y765815D01*
X-389247Y765902D01*
X-389357Y765993D01*
X-389465Y766086D01*
X-389570Y766183D01*
X-389672Y766282D01*
X-389771Y766384D01*
X-389868Y766489D01*
X-389961Y766597D01*
X-390052Y766707D01*
X-390139Y766819D01*
X-390223Y766934D01*
X-390304Y767052D01*
X-390381Y767171D01*
X-390455Y767293D01*
X-390526Y767417D01*
X-390593Y767542D01*
X-390657Y767670D01*
X-390717Y767799D01*
X-390773Y767930D01*
X-390826Y768062D01*
X-390875Y768196D01*
X-390920Y768331D01*
X-390961Y768468D01*
X-390999Y768605D01*
X-391033Y768744D01*
X-391062Y768883D01*
X-391088Y769023D01*
X-391110Y769164D01*
X-391128Y769305D01*
X-391142Y769447D01*
X-391152Y769589D01*
X-391158Y769732D01*
X-391160Y769874D01*
D11*
X-390278Y754086D02*
X-387397Y751205D01*
X-390278Y754086D02*
X-381635Y754086D01*
X-381635Y751205D02*
X-381635Y756967D01*
X-381635Y802005D02*
X-381635Y807767D01*
X-381635Y802005D02*
X-387397Y807767D01*
X-388838Y807767D01*
X-390278Y806327D01*
X-390278Y803446D01*
X-388838Y802005D01*
D14*
X-355600Y795020D03*
D12*
X-400939Y734949D02*
X-416955Y734949D01*
X-408947Y734949D02*
X-408947Y745626D01*
X-416955Y745626D02*
X-400939Y745626D01*
X-403608Y751321D02*
X-416955Y751321D01*
X-403608Y751321D02*
X-400939Y753990D01*
X-400939Y759328D01*
X-403608Y761998D01*
X-416955Y761998D01*
X-416955Y767692D02*
X-400939Y767692D01*
X-411616Y773031D02*
X-416955Y767692D01*
X-411616Y773031D02*
X-416955Y778369D01*
X-400939Y778369D01*
X-400939Y784064D02*
X-400939Y789402D01*
X-400939Y786733D02*
X-416955Y786733D01*
X-416955Y784064D02*
X-416955Y789402D01*
X-416955Y794978D02*
X-400939Y794978D01*
X-400939Y802986D01*
X-403608Y805655D01*
X-414285Y805655D01*
X-416955Y802986D01*
X-416955Y794978D01*
X-400939Y811350D02*
X-400939Y816688D01*
X-400939Y814019D02*
X-416955Y814019D01*
X-416955Y811350D02*
X-416955Y816688D01*
X-416955Y822264D02*
X-400939Y822264D01*
X-416955Y822264D02*
X-416955Y832941D01*
X-408947Y827603D02*
X-408947Y822264D01*
X-400939Y838636D02*
X-400939Y843974D01*
X-400939Y841305D02*
X-416955Y841305D01*
X-416955Y838636D02*
X-416955Y843974D01*
X-416955Y849550D02*
X-416955Y860227D01*
X-416955Y849550D02*
X-400939Y849550D01*
X-400939Y860227D01*
X-408947Y854889D02*
X-408947Y849550D01*
X-400939Y865922D02*
X-416955Y865922D01*
X-416955Y873929D01*
X-414285Y876599D01*
X-408947Y876599D01*
X-406278Y873929D01*
X-406278Y865922D01*
X-406278Y871260D02*
X-400939Y876599D01*
X-398270Y882293D02*
X-398270Y892970D01*
X-416955Y901334D02*
X-416955Y906672D01*
X-416955Y901334D02*
X-414285Y898665D01*
X-403608Y898665D01*
X-400939Y901334D01*
X-400939Y906672D01*
X-403608Y909342D01*
X-414285Y909342D01*
X-416955Y906672D01*
X-416955Y915036D02*
X-403608Y915036D01*
X-400939Y917705D01*
X-400939Y923044D01*
X-403608Y925713D01*
X-416955Y925713D01*
X-416955Y936746D02*
X-400939Y936746D01*
X-416955Y931408D02*
X-416955Y942085D01*
D10*
X-129540Y793750D02*
X-129540Y781050D01*
X-135890Y774700D01*
X-148590Y774700D01*
X-154940Y781050D01*
X-135890Y774700D02*
X-129540Y768350D01*
X-129540Y755650D01*
X-135890Y749300D01*
X-148590Y749300D01*
X-154940Y755650D01*
X-154940Y768350D01*
X-148590Y774700D01*
X-148590Y800100D02*
X-135890Y800100D01*
X-129540Y793750D01*
X-148590Y800100D02*
X-154940Y793750D01*
X-154940Y781050D01*
X-135890Y749300D02*
X-129540Y742950D01*
X-129540Y730250D01*
X-135890Y723900D01*
X-148590Y723900D01*
X-154940Y730250D01*
X-154940Y742950D01*
X-148590Y749300D01*
D11*
X-123327Y731333D02*
X-111887Y731333D01*
X-117607Y731333D02*
X-117607Y738960D01*
X-123327Y738960D02*
X-111887Y738960D01*
X-111887Y743027D02*
X-123327Y743027D01*
X-115700Y746840D02*
X-111887Y743027D01*
X-115700Y746840D02*
X-111887Y750654D01*
X-123327Y750654D01*
X-117607Y754721D02*
X-117607Y762347D01*
X-121420Y766415D02*
X-123327Y768322D01*
X-123327Y772135D01*
X-121420Y774041D01*
X-119514Y774041D01*
X-117607Y772135D01*
X-117607Y770228D01*
X-117607Y772135D02*
X-115700Y774041D01*
X-113794Y774041D01*
X-111887Y772135D01*
X-111887Y768322D01*
X-113794Y766415D01*
X-113794Y778109D02*
X-111887Y780016D01*
X-111887Y783829D01*
X-113794Y785735D01*
X-121420Y785735D01*
X-123327Y783829D01*
X-123327Y780016D01*
X-121420Y778109D01*
X-119514Y778109D01*
X-117607Y780016D01*
X-117607Y785735D01*
X-113794Y789803D02*
X-121420Y789803D01*
X-123327Y791710D01*
X-123327Y795523D01*
X-121420Y797429D01*
X-113794Y797429D01*
X-111887Y795523D01*
X-111887Y791710D01*
X-113794Y789803D01*
X-121420Y797429D01*
D10*
X-185420Y496570D02*
X-185420Y483870D01*
X-185420Y496570D02*
X-179070Y502920D01*
X-166370Y502920D01*
X-160020Y496570D01*
X-179070Y502920D02*
X-185420Y509270D01*
X-185420Y521970D01*
X-179070Y528320D01*
X-166370Y528320D01*
X-160020Y521970D01*
X-160020Y509270D01*
X-166370Y502920D01*
X-166370Y477520D02*
X-179070Y477520D01*
X-185420Y483870D01*
X-166370Y477520D02*
X-160020Y483870D01*
X-160020Y496570D01*
X-179070Y528320D02*
X-185420Y534670D01*
X-185420Y547370D01*
X-179070Y553720D01*
X-166370Y553720D01*
X-160020Y547370D01*
X-160020Y534670D01*
X-166370Y528320D01*
D11*
X-191643Y477393D02*
X-203083Y477393D01*
X-191643Y477393D02*
X-191643Y483113D01*
X-193550Y485020D01*
X-201176Y485020D01*
X-203083Y483113D01*
X-203083Y477393D01*
X-203083Y494807D02*
X-201176Y496713D01*
X-203083Y494807D02*
X-203083Y490994D01*
X-201176Y489087D01*
X-199270Y489087D01*
X-197363Y490994D01*
X-197363Y494807D01*
X-195456Y496713D01*
X-193550Y496713D01*
X-191643Y494807D01*
X-191643Y490994D01*
X-193550Y489087D01*
X-199270Y500781D02*
X-203083Y504594D01*
X-191643Y504594D01*
X-191643Y500781D02*
X-191643Y508407D01*
X-201176Y512475D02*
X-203083Y514382D01*
X-203083Y518195D01*
X-201176Y520101D01*
X-199270Y520101D01*
X-197363Y518195D01*
X-195456Y520101D01*
X-193550Y520101D01*
X-191643Y518195D01*
X-191643Y514382D01*
X-193550Y512475D01*
X-195456Y512475D01*
X-197363Y514382D01*
X-199270Y512475D01*
X-201176Y512475D01*
X-197363Y514382D02*
X-197363Y518195D01*
X-191643Y524169D02*
X-203083Y524169D01*
X-203083Y529889D01*
X-201176Y531795D01*
X-199270Y531795D01*
X-197363Y529889D01*
X-195456Y531795D01*
X-193550Y531795D01*
X-191643Y529889D01*
X-191643Y524169D01*
X-197363Y524169D02*
X-197363Y529889D01*
X-191643Y535863D02*
X-191643Y543489D01*
X-191643Y535863D02*
X-199270Y543489D01*
X-201176Y543489D01*
X-203083Y541583D01*
X-203083Y537769D01*
X-201176Y535863D01*
X-201176Y547557D02*
X-193550Y547557D01*
X-201176Y547557D02*
X-203083Y549463D01*
X-203083Y553277D01*
X-201176Y555183D01*
X-193550Y555183D01*
X-191643Y553277D01*
X-191643Y549463D01*
X-193550Y547557D01*
X-201176Y555183D01*
D10*
X-161290Y674370D02*
X-161292Y674470D01*
X-161298Y674569D01*
X-161308Y674669D01*
X-161321Y674767D01*
X-161339Y674866D01*
X-161360Y674963D01*
X-161385Y675059D01*
X-161414Y675155D01*
X-161447Y675249D01*
X-161483Y675342D01*
X-161523Y675433D01*
X-161567Y675523D01*
X-161614Y675611D01*
X-161664Y675697D01*
X-161718Y675781D01*
X-161775Y675863D01*
X-161835Y675942D01*
X-161899Y676020D01*
X-161965Y676094D01*
X-162034Y676166D01*
X-162106Y676235D01*
X-162180Y676301D01*
X-162258Y676365D01*
X-162337Y676425D01*
X-162419Y676482D01*
X-162503Y676536D01*
X-162589Y676586D01*
X-162677Y676633D01*
X-162767Y676677D01*
X-162858Y676717D01*
X-162951Y676753D01*
X-163045Y676786D01*
X-163141Y676815D01*
X-163237Y676840D01*
X-163334Y676861D01*
X-163433Y676879D01*
X-163531Y676892D01*
X-163631Y676902D01*
X-163730Y676908D01*
X-163830Y676910D01*
X-181610Y676910D02*
X-181710Y676908D01*
X-181809Y676902D01*
X-181909Y676892D01*
X-182007Y676879D01*
X-182106Y676861D01*
X-182203Y676840D01*
X-182299Y676815D01*
X-182395Y676786D01*
X-182489Y676753D01*
X-182582Y676717D01*
X-182673Y676677D01*
X-182763Y676633D01*
X-182851Y676586D01*
X-182937Y676536D01*
X-183021Y676482D01*
X-183103Y676425D01*
X-183182Y676365D01*
X-183260Y676301D01*
X-183334Y676235D01*
X-183406Y676166D01*
X-183475Y676094D01*
X-183541Y676020D01*
X-183605Y675942D01*
X-183665Y675863D01*
X-183722Y675781D01*
X-183776Y675697D01*
X-183826Y675611D01*
X-183873Y675523D01*
X-183917Y675433D01*
X-183957Y675342D01*
X-183993Y675249D01*
X-184026Y675155D01*
X-184055Y675059D01*
X-184080Y674963D01*
X-184101Y674866D01*
X-184119Y674767D01*
X-184132Y674669D01*
X-184142Y674569D01*
X-184148Y674470D01*
X-184150Y674370D01*
X-184150Y615950D02*
X-184148Y615850D01*
X-184142Y615751D01*
X-184132Y615651D01*
X-184119Y615553D01*
X-184101Y615454D01*
X-184080Y615357D01*
X-184055Y615261D01*
X-184026Y615165D01*
X-183993Y615071D01*
X-183957Y614978D01*
X-183917Y614887D01*
X-183873Y614797D01*
X-183826Y614709D01*
X-183776Y614623D01*
X-183722Y614539D01*
X-183665Y614457D01*
X-183605Y614378D01*
X-183541Y614300D01*
X-183475Y614226D01*
X-183406Y614154D01*
X-183334Y614085D01*
X-183260Y614019D01*
X-183182Y613955D01*
X-183103Y613895D01*
X-183021Y613838D01*
X-182937Y613784D01*
X-182851Y613734D01*
X-182763Y613687D01*
X-182673Y613643D01*
X-182582Y613603D01*
X-182489Y613567D01*
X-182395Y613534D01*
X-182299Y613505D01*
X-182203Y613480D01*
X-182106Y613459D01*
X-182007Y613441D01*
X-181909Y613428D01*
X-181809Y613418D01*
X-181710Y613412D01*
X-181610Y613410D01*
X-163830Y613410D02*
X-163730Y613412D01*
X-163631Y613418D01*
X-163531Y613428D01*
X-163433Y613441D01*
X-163334Y613459D01*
X-163237Y613480D01*
X-163141Y613505D01*
X-163045Y613534D01*
X-162951Y613567D01*
X-162858Y613603D01*
X-162767Y613643D01*
X-162677Y613687D01*
X-162589Y613734D01*
X-162503Y613784D01*
X-162419Y613838D01*
X-162337Y613895D01*
X-162258Y613955D01*
X-162180Y614019D01*
X-162106Y614085D01*
X-162034Y614154D01*
X-161965Y614226D01*
X-161899Y614300D01*
X-161835Y614378D01*
X-161775Y614457D01*
X-161718Y614539D01*
X-161664Y614623D01*
X-161614Y614709D01*
X-161567Y614797D01*
X-161523Y614887D01*
X-161483Y614978D01*
X-161447Y615071D01*
X-161414Y615165D01*
X-161385Y615261D01*
X-161360Y615357D01*
X-161339Y615454D01*
X-161321Y615553D01*
X-161308Y615651D01*
X-161298Y615751D01*
X-161292Y615850D01*
X-161290Y615950D01*
X-163830Y676910D02*
X-181610Y676910D01*
X-161290Y674370D02*
X-161290Y670560D01*
X-162560Y669290D01*
X-184150Y670560D02*
X-184150Y674370D01*
X-184150Y670560D02*
X-182880Y669290D01*
X-162560Y621030D02*
X-161290Y619760D01*
X-162560Y621030D02*
X-162560Y669290D01*
X-182880Y621030D02*
X-184150Y619760D01*
X-182880Y621030D02*
X-182880Y669290D01*
X-161290Y619760D02*
X-161290Y615950D01*
X-184150Y615950D02*
X-184150Y619760D01*
X-181610Y613410D02*
X-163830Y613410D01*
D21*
X-172720Y609092D03*
X-172720Y681228D03*
D11*
X-156855Y652887D02*
X-145415Y652887D01*
X-156855Y652887D02*
X-156855Y658607D01*
X-154948Y660514D01*
X-151135Y660514D01*
X-149228Y658607D01*
X-149228Y652887D01*
X-149228Y656700D02*
X-145415Y660514D01*
X-154948Y668394D02*
X-156855Y672208D01*
X-154948Y668394D02*
X-151135Y664581D01*
X-147322Y664581D01*
X-145415Y666488D01*
X-145415Y670301D01*
X-147322Y672208D01*
X-149228Y672208D01*
X-151135Y670301D01*
X-151135Y664581D01*
D10*
X-101600Y659130D02*
X-101600Y671830D01*
X-101600Y659130D02*
X-107950Y652780D01*
X-120650Y652780D01*
X-127000Y659130D01*
X-107950Y652780D02*
X-101600Y646430D01*
X-101600Y633730D01*
X-107950Y627380D01*
X-120650Y627380D01*
X-127000Y633730D01*
X-127000Y646430D01*
X-120650Y652780D01*
X-120650Y678180D02*
X-107950Y678180D01*
X-101600Y671830D01*
X-120650Y678180D02*
X-127000Y671830D01*
X-127000Y659130D01*
X-107950Y627380D02*
X-101600Y621030D01*
X-101600Y608330D01*
X-107950Y601980D01*
X-120650Y601980D01*
X-127000Y608330D01*
X-127000Y621030D01*
X-120650Y627380D01*
D11*
X-95387Y550943D02*
X-83947Y550943D01*
X-87760Y554756D01*
X-83947Y558570D01*
X-95387Y558570D01*
X-91574Y562637D02*
X-83947Y562637D01*
X-91574Y562637D02*
X-95387Y566450D01*
X-91574Y570264D01*
X-83947Y570264D01*
X-89667Y570264D02*
X-89667Y562637D01*
X-83947Y578144D02*
X-95387Y578144D01*
X-95387Y574331D02*
X-95387Y581958D01*
X-95387Y586025D02*
X-95387Y593651D01*
X-95387Y586025D02*
X-83947Y586025D01*
X-83947Y593651D01*
X-89667Y589838D02*
X-89667Y586025D01*
X-83947Y597719D02*
X-95387Y597719D01*
X-95387Y603439D01*
X-93480Y605345D01*
X-89667Y605345D01*
X-87760Y603439D01*
X-87760Y597719D01*
X-87760Y601532D02*
X-83947Y605345D01*
X-82040Y609413D02*
X-82040Y617039D01*
X-83947Y621107D02*
X-95387Y621107D01*
X-83947Y621107D02*
X-83947Y628733D01*
X-95387Y632801D02*
X-95387Y640427D01*
X-95387Y632801D02*
X-83947Y632801D01*
X-83947Y640427D01*
X-89667Y636614D02*
X-89667Y632801D01*
X-87760Y644495D02*
X-95387Y644495D01*
X-87760Y644495D02*
X-83947Y648308D01*
X-87760Y652121D01*
X-95387Y652121D01*
X-95387Y656189D02*
X-95387Y663815D01*
X-95387Y656189D02*
X-83947Y656189D01*
X-83947Y663815D01*
X-89667Y660002D02*
X-89667Y656189D01*
X-95387Y667883D02*
X-83947Y667883D01*
X-83947Y675509D01*
D10*
X-127000Y537210D02*
X-120650Y530860D01*
X-127000Y537210D02*
X-127000Y549910D01*
X-120650Y556260D01*
X-107950Y556260D01*
X-101600Y549910D01*
X-101600Y537210D01*
X-107950Y530860D01*
X-127000Y499110D02*
X-127000Y486410D01*
X-127000Y499110D02*
X-120650Y505460D01*
X-107950Y505460D01*
X-101600Y499110D01*
X-120650Y505460D02*
X-127000Y511810D01*
X-127000Y524510D01*
X-120650Y530860D01*
X-107950Y530860D01*
X-101600Y524510D01*
X-101600Y511810D01*
X-107950Y505460D01*
X-107950Y480060D02*
X-120650Y480060D01*
X-127000Y486410D01*
X-107950Y480060D02*
X-101600Y486410D01*
X-101600Y499110D01*
X-127000Y562610D02*
X-127000Y575310D01*
X-120650Y581660D01*
X-107950Y581660D01*
X-101600Y575310D01*
X-120650Y556260D02*
X-127000Y562610D01*
X-107950Y556260D02*
X-101600Y562610D01*
X-101600Y575310D01*
D11*
X-142756Y487560D02*
X-144663Y485653D01*
X-144663Y481840D01*
X-142756Y479933D01*
X-140850Y479933D01*
X-138943Y481840D01*
X-138943Y485653D01*
X-137036Y487560D01*
X-135130Y487560D01*
X-133223Y485653D01*
X-133223Y481840D01*
X-135130Y479933D01*
X-133223Y491627D02*
X-133223Y495440D01*
X-133223Y493534D02*
X-144663Y493534D01*
X-144663Y495440D02*
X-144663Y491627D01*
X-140850Y499423D02*
X-144663Y503236D01*
X-133223Y503236D01*
X-133223Y499423D02*
X-133223Y507049D01*
X-140850Y511117D02*
X-144663Y514930D01*
X-133223Y514930D01*
X-133223Y511117D02*
X-133223Y518743D01*
X-133223Y528531D02*
X-144663Y528531D01*
X-138943Y522811D01*
X-138943Y530437D01*
X-144663Y534505D02*
X-144663Y542131D01*
X-144663Y534505D02*
X-138943Y534505D01*
X-140850Y538318D01*
X-140850Y540225D01*
X-138943Y542131D01*
X-135130Y542131D01*
X-133223Y540225D01*
X-133223Y536411D01*
X-135130Y534505D01*
D10*
X-252730Y420370D02*
X-252830Y420372D01*
X-252929Y420378D01*
X-253029Y420388D01*
X-253127Y420401D01*
X-253226Y420419D01*
X-253323Y420440D01*
X-253419Y420465D01*
X-253515Y420494D01*
X-253609Y420527D01*
X-253702Y420563D01*
X-253793Y420603D01*
X-253883Y420647D01*
X-253971Y420694D01*
X-254057Y420744D01*
X-254141Y420798D01*
X-254223Y420855D01*
X-254302Y420915D01*
X-254380Y420979D01*
X-254454Y421045D01*
X-254526Y421114D01*
X-254595Y421186D01*
X-254661Y421260D01*
X-254725Y421338D01*
X-254785Y421417D01*
X-254842Y421499D01*
X-254896Y421583D01*
X-254946Y421669D01*
X-254993Y421757D01*
X-255037Y421847D01*
X-255077Y421938D01*
X-255113Y422031D01*
X-255146Y422125D01*
X-255175Y422221D01*
X-255200Y422317D01*
X-255221Y422414D01*
X-255239Y422513D01*
X-255252Y422611D01*
X-255262Y422711D01*
X-255268Y422810D01*
X-255270Y422910D01*
X-234950Y420370D02*
X-234850Y420372D01*
X-234751Y420378D01*
X-234651Y420388D01*
X-234553Y420401D01*
X-234454Y420419D01*
X-234357Y420440D01*
X-234261Y420465D01*
X-234165Y420494D01*
X-234071Y420527D01*
X-233978Y420563D01*
X-233887Y420603D01*
X-233797Y420647D01*
X-233709Y420694D01*
X-233623Y420744D01*
X-233539Y420798D01*
X-233457Y420855D01*
X-233378Y420915D01*
X-233300Y420979D01*
X-233226Y421045D01*
X-233154Y421114D01*
X-233085Y421186D01*
X-233019Y421260D01*
X-232955Y421338D01*
X-232895Y421417D01*
X-232838Y421499D01*
X-232784Y421583D01*
X-232734Y421669D01*
X-232687Y421757D01*
X-232643Y421847D01*
X-232603Y421938D01*
X-232567Y422031D01*
X-232534Y422125D01*
X-232505Y422221D01*
X-232480Y422317D01*
X-232459Y422414D01*
X-232441Y422513D01*
X-232428Y422611D01*
X-232418Y422711D01*
X-232412Y422810D01*
X-232410Y422910D01*
X-232410Y481330D02*
X-232412Y481430D01*
X-232418Y481529D01*
X-232428Y481629D01*
X-232441Y481727D01*
X-232459Y481826D01*
X-232480Y481923D01*
X-232505Y482019D01*
X-232534Y482115D01*
X-232567Y482209D01*
X-232603Y482302D01*
X-232643Y482393D01*
X-232687Y482483D01*
X-232734Y482571D01*
X-232784Y482657D01*
X-232838Y482741D01*
X-232895Y482823D01*
X-232955Y482902D01*
X-233019Y482980D01*
X-233085Y483054D01*
X-233154Y483126D01*
X-233226Y483195D01*
X-233300Y483261D01*
X-233378Y483325D01*
X-233457Y483385D01*
X-233539Y483442D01*
X-233623Y483496D01*
X-233709Y483546D01*
X-233797Y483593D01*
X-233887Y483637D01*
X-233978Y483677D01*
X-234071Y483713D01*
X-234165Y483746D01*
X-234261Y483775D01*
X-234357Y483800D01*
X-234454Y483821D01*
X-234553Y483839D01*
X-234651Y483852D01*
X-234751Y483862D01*
X-234850Y483868D01*
X-234950Y483870D01*
X-252730Y483870D02*
X-252830Y483868D01*
X-252929Y483862D01*
X-253029Y483852D01*
X-253127Y483839D01*
X-253226Y483821D01*
X-253323Y483800D01*
X-253419Y483775D01*
X-253515Y483746D01*
X-253609Y483713D01*
X-253702Y483677D01*
X-253793Y483637D01*
X-253883Y483593D01*
X-253971Y483546D01*
X-254057Y483496D01*
X-254141Y483442D01*
X-254223Y483385D01*
X-254302Y483325D01*
X-254380Y483261D01*
X-254454Y483195D01*
X-254526Y483126D01*
X-254595Y483054D01*
X-254661Y482980D01*
X-254725Y482902D01*
X-254785Y482823D01*
X-254842Y482741D01*
X-254896Y482657D01*
X-254946Y482571D01*
X-254993Y482483D01*
X-255037Y482393D01*
X-255077Y482302D01*
X-255113Y482209D01*
X-255146Y482115D01*
X-255175Y482019D01*
X-255200Y481923D01*
X-255221Y481826D01*
X-255239Y481727D01*
X-255252Y481629D01*
X-255262Y481529D01*
X-255268Y481430D01*
X-255270Y481330D01*
X-252730Y420370D02*
X-234950Y420370D01*
X-255270Y422910D02*
X-255270Y426720D01*
X-254000Y427990D01*
X-232410Y426720D02*
X-232410Y422910D01*
X-232410Y426720D02*
X-233680Y427990D01*
X-254000Y476250D02*
X-255270Y477520D01*
X-254000Y476250D02*
X-254000Y427990D01*
X-233680Y476250D02*
X-232410Y477520D01*
X-233680Y476250D02*
X-233680Y427990D01*
X-255270Y477520D02*
X-255270Y481330D01*
X-232410Y481330D02*
X-232410Y477520D01*
X-234950Y483870D02*
X-252730Y483870D01*
D21*
X-243840Y488188D03*
X-243840Y416052D03*
D11*
X-259715Y422275D02*
X-271155Y422275D01*
X-271155Y427995D01*
X-269248Y429902D01*
X-265435Y429902D01*
X-263528Y427995D01*
X-263528Y422275D01*
X-263528Y426088D02*
X-259715Y429902D01*
X-271155Y433969D02*
X-271155Y441595D01*
X-269248Y441595D01*
X-261622Y433969D01*
X-259715Y433969D01*
D10*
X124460Y839470D02*
X124460Y852170D01*
X130810Y858520D01*
X143510Y858520D01*
X149860Y852170D01*
X143510Y833120D02*
X130810Y833120D01*
X124460Y839470D01*
X143510Y833120D02*
X149860Y839470D01*
X149860Y852170D01*
X130810Y858520D02*
X124460Y864870D01*
X124460Y877570D01*
X130810Y883920D01*
X143510Y883920D01*
X149860Y877570D01*
X149860Y864870D01*
X143510Y858520D01*
D11*
X106797Y840620D02*
X106797Y832993D01*
X118237Y832993D01*
X118237Y840620D01*
X112517Y836806D02*
X112517Y832993D01*
X106797Y844687D02*
X118237Y852313D01*
X118237Y844687D02*
X106797Y852313D01*
X106797Y860194D02*
X118237Y860194D01*
X106797Y856381D02*
X106797Y864007D01*
X106797Y868075D02*
X118237Y868075D01*
X106797Y868075D02*
X106797Y873795D01*
X108704Y875701D01*
X112517Y875701D01*
X114424Y873795D01*
X114424Y868075D01*
X114424Y871888D02*
X118237Y875701D01*
X118237Y879769D02*
X110611Y879769D01*
X106797Y883582D01*
X110611Y887395D01*
X118237Y887395D01*
X112517Y887395D02*
X112517Y879769D01*
X120144Y891463D02*
X120144Y899089D01*
X108704Y910783D02*
X106797Y908877D01*
X106797Y905063D01*
X108704Y903157D01*
X116330Y903157D01*
X118237Y905063D01*
X118237Y908877D01*
X116330Y910783D01*
X112517Y910783D01*
X112517Y906970D01*
X118237Y914851D02*
X106797Y914851D01*
X106797Y920571D01*
X108704Y922477D01*
X112517Y922477D01*
X114424Y920571D01*
X114424Y914851D01*
X118237Y926545D02*
X118237Y930358D01*
X118237Y928451D02*
X106797Y928451D01*
X106797Y926545D02*
X106797Y930358D01*
X106797Y936247D02*
X106797Y940061D01*
X106797Y936247D02*
X108704Y934341D01*
X116330Y934341D01*
X118237Y936247D01*
X118237Y940061D01*
X116330Y941967D01*
X108704Y941967D01*
X106797Y940061D01*
D10*
X86360Y770890D02*
X86360Y758190D01*
X80010Y751840D01*
X67310Y751840D01*
X60960Y758190D01*
X67310Y777240D02*
X80010Y777240D01*
X86360Y770890D01*
X67310Y777240D02*
X60960Y770890D01*
X60960Y758190D01*
X80010Y751840D02*
X86360Y745490D01*
X86360Y732790D01*
X80010Y726440D01*
X67310Y726440D01*
X60960Y732790D01*
X60960Y745490D01*
X67310Y751840D01*
D11*
X92573Y661528D02*
X92573Y653901D01*
X104013Y653901D01*
X104013Y661528D01*
X98293Y657714D02*
X98293Y653901D01*
X92573Y665595D02*
X104013Y673222D01*
X104013Y665595D02*
X92573Y673222D01*
X92573Y681102D02*
X104013Y681102D01*
X92573Y677289D02*
X92573Y684916D01*
X92573Y688983D02*
X104013Y688983D01*
X92573Y688983D02*
X92573Y694703D01*
X94480Y696609D01*
X98293Y696609D01*
X100200Y694703D01*
X100200Y688983D01*
X100200Y692796D02*
X104013Y696609D01*
X104013Y700677D02*
X96387Y700677D01*
X92573Y704490D01*
X96387Y708303D01*
X104013Y708303D01*
X98293Y708303D02*
X98293Y700677D01*
X105920Y712371D02*
X105920Y719997D01*
X94480Y731691D02*
X92573Y729785D01*
X92573Y725972D01*
X94480Y724065D01*
X102106Y724065D01*
X104013Y725972D01*
X104013Y729785D01*
X102106Y731691D01*
X98293Y731691D01*
X98293Y727878D01*
X104013Y735759D02*
X92573Y735759D01*
X92573Y741479D01*
X94480Y743385D01*
X98293Y743385D01*
X100200Y741479D01*
X100200Y735759D01*
X104013Y747453D02*
X104013Y751266D01*
X104013Y749359D02*
X92573Y749359D01*
X92573Y747453D02*
X92573Y751266D01*
X92573Y757155D02*
X92573Y760969D01*
X92573Y757155D02*
X94480Y755249D01*
X102106Y755249D01*
X104013Y757155D01*
X104013Y760969D01*
X102106Y762875D01*
X94480Y762875D01*
X92573Y760969D01*
X104013Y766943D02*
X104013Y774569D01*
X104013Y766943D02*
X96387Y774569D01*
X94480Y774569D01*
X92573Y772663D01*
X92573Y768849D01*
X94480Y766943D01*
M02*
