M48
;GenerationSoftware,Autodesk,EAGLE,9.6.2*%
;CreationDate,2022-12-06T08:18:15Z*%
FMAT,2
ICI,OFF
METRIC,TZ,000.000
T10C0.610
T9C0.800
T8C0.813
T7C1.000
T6C1.016
T5C1.118
T4C1.321
T3C1.524
T2C2.500
T1C3.302
%
G90
M71
T1
X-24892Y72136
X-28956Y91440
T2
X20574Y44450
X38354Y44450
T3
X42418Y40132
X42418Y96012
X-39116Y95758
X-39116Y40132
T4
X-35560Y76987
X-36576Y45237
X-36576Y50267
X-35560Y68631
X-35560Y63602
X-35560Y82017
T5
X-11430Y91440
X-11430Y88900
X-11430Y93980
X-27432Y54610
X-24892Y54610
X-22352Y54610
T6
X10947Y47955
X38100Y95758
X9652Y95758
X7112Y95758
X14986Y59436
X14986Y56896
X-17272Y51562
X-17272Y54102
X-11430Y64008
X-11430Y61468
X35560Y95758
X-11430Y49276
X-11430Y51816
X-11430Y54356
X-11430Y56896
X13716Y84582
X13716Y87122
X7366Y76454
X7366Y73914
X20320Y95758
X15469Y47955
X-11430Y66548
X10947Y41453
X15469Y41453
X33020Y95758
X30480Y95758
X27940Y95758
X25400Y95758
X22860Y95758
X6858Y49530
X13970Y95758
X-14224Y78740
X-14224Y76200
X-14224Y73660
X-17272Y49022
T7
X39624Y48260
X39624Y50800
X39624Y53340
X39624Y55880
X39624Y83820
X39624Y81280
X39624Y78740
X39624Y76200
X39624Y73660
X39624Y68580
X39624Y66040
X39624Y63500
X19304Y66040
X19304Y58420
X19304Y68580
X19304Y71120
X19304Y73660
X39624Y86360
X19304Y76200
X39624Y71120
X19304Y60960
X19304Y78740
X19304Y81280
X19304Y83820
X19304Y86360
X39624Y58420
X39624Y60960
X19304Y63500
T8
X-5588Y92710
X-18542Y78994
X-28702Y78994
X9398Y60960
X9398Y58420
X-8890Y78486
X-8890Y81026
X-8890Y71374
X-8890Y73914
X-3810Y56896
X3810Y61976
X-35306Y56896
X-37846Y56896
X3810Y54356
X3810Y56896
X3810Y59436
X3810Y64516
X13970Y77470
X13970Y67310
X-1778Y44450
X-1778Y41910
X5842Y41910
X5842Y44450
X10414Y67310
X10414Y77470
X-6858Y49276
X3302Y49276
X7874Y92710
X7874Y82550
X3810Y67056
X3810Y69596
X3810Y72136
X3810Y74676
X-28702Y49022
X-28702Y41402
X-18542Y83566
X-28702Y83566
X3810Y77216
X3810Y79756
X3810Y82296
X3810Y84836
X3810Y87376
X-3810Y87376
X-3810Y84836
X-3810Y82296
X-3810Y79756
X-3810Y77216
X-17272Y69596
X-17272Y59436
X-3810Y74676
X-3810Y72136
X-3810Y69596
X-3810Y67056
X-3810Y64516
X-3810Y61976
X-3810Y59436
X-24384Y40132
X-24384Y50292
X-3810Y54356
X2032Y92710
X2032Y95250
X-5588Y95250
T9
X-10160Y43942
X-12700Y43942
X-15240Y43942
X-17780Y43942
T10
X23876Y75692
X22860Y89916
X16002Y92456
X35814Y86360
X2540Y97028
X8128Y64770
X7112Y78740
X-7620Y65532
X8509Y54483
X-5588Y52578
X-21844Y48006
X-14224Y70612
X-31496Y44958
X3556Y46736
X508Y39116
X14732Y53086
X-17018Y46736
X-20320Y58420
X-14510Y59404
X-11684Y74422
X-18542Y76454
X5080Y48006
X20320Y89916
X24892Y82550
X11938Y63500
X-7366Y59436
X-10922Y45720
X19304Y40894
X16764Y53086
X-15302Y64578
X-6604Y63500
X16764Y95758
X35560Y90170
X22098Y70104
X12446Y91694
M30