M48
;GenerationSoftware,Autodesk,EAGLE,9.6.2*%
;CreationDate,2023-03-04T22:40:25Z*%
FMAT,2
ICI,OFF
METRIC,TZ,000.000
T10C0.610
T9C0.800
T8C0.813
T7C1.016
T6C1.110
T5C1.118
T4C1.321
T3C2.540
T2C3.100
T1C3.302
%
G90
M71
T1
X-24638Y74930
X-29210Y97536
T2
X23052Y98649
X47052Y98649
X23052Y45649
X47052Y45649
T3
X-38608Y105410
X-38608Y40132
X47244Y40132
X47244Y105410
T4
X-35306Y71425
X-35306Y79781
X-35306Y66396
X-35560Y48031
X-35306Y84811
X-35560Y53061
T5
X-27178Y57404
X-24638Y57404
X-22098Y57404
X-11684Y97536
X-11684Y94996
X-11684Y100076
T6
X22352Y81026
X22352Y83566
X22352Y86106
X22352Y88646
X22352Y91186
X22352Y55626
X22352Y93726
X22352Y58166
X47752Y83566
X47752Y86106
X47752Y88646
X47752Y91186
X47752Y93726
X22352Y50546
X22352Y53086
X22352Y60706
X22352Y63246
X22352Y65786
X22352Y68326
X22352Y70866
X22352Y73406
X22352Y75946
X22352Y78486
X47752Y50546
X47752Y53086
X47752Y55626
X47752Y58166
X47752Y60706
X47752Y63246
X47752Y65786
X47752Y68326
X47752Y70866
X47752Y73406
X47752Y75946
X47752Y78486
X47752Y81026
T7
X15723Y44247
X11201Y50749
X15723Y50749
X15748Y59690
X16510Y94488
X11176Y101854
X13716Y101854
X41148Y105410
X38608Y105410
X36068Y105410
X33528Y105410
X30988Y105410
X28448Y105410
X25908Y105410
X23368Y105410
X7112Y52324
X-13970Y81534
X-13970Y78994
X-13970Y76454
X-17018Y51816
X-17018Y54356
X-17018Y56896
X-11176Y69342
X-11176Y66802
X-11176Y64262
X-11176Y52070
X-11176Y54610
X-11176Y57150
X17018Y86106
X17018Y88646
X7620Y79248
X7620Y76708
X-35560Y92710
X-38100Y92710
X-11176Y59690
X15748Y62230
X11201Y44247
T8
X4064Y64770
X9652Y63754
X-28448Y81788
X-18288Y81788
X-6096Y98298
X1524Y100838
X1524Y98298
X-3556Y57150
X-3556Y59690
X-3556Y62230
X-3556Y64770
X-3556Y67310
X8128Y95504
X-3556Y69850
X-3556Y72390
X-3556Y74930
X4064Y77470
X-3556Y77470
X-3556Y80010
X-3556Y82550
X-3556Y85090
X-3556Y87630
X-3556Y90170
X4064Y90170
X4064Y87630
X4064Y85090
X4064Y82550
X4064Y80010
X4064Y74930
X4064Y72390
X4064Y69850
X4064Y67310
X4064Y62230
X4064Y59690
X4064Y57150
X-37592Y59690
X-35052Y59690
X-8636Y76708
X-8636Y74168
X-8636Y83820
X14224Y70104
X-1524Y47244
X-1524Y44704
X6096Y44704
X6096Y47244
X10668Y70104
X-17018Y72390
X-17018Y62230
X10668Y80264
X-6604Y52070
X3556Y52070
X-28448Y86360
X8128Y85344
X14224Y80264
X-8636Y81280
X-24130Y42926
X-24130Y53086
X-6096Y100838
X-28448Y51816
X-28448Y44196
X-18288Y86360
X9652Y61214
T9
X-14986Y46736
X-17526Y46736
X-9906Y46736
X-12446Y46736
T10
X-16764Y49530
X14986Y55880
X762Y41910
X3810Y49530
X-31242Y47752
X-21590Y50800
X-5334Y55372
X-7366Y68326
X7366Y81534
X-11684Y39370
X8382Y67564
X5334Y101854
X12192Y66294
X5334Y50800
X12700Y94488
X-6350Y66294
X-15048Y67372
X17018Y55880
X19710Y75946
X16256Y80264
X-10668Y48514
X-7112Y62230
X42164Y78740
X39827Y83210
X33020Y96266
X35560Y75184
X26416Y94488
X30480Y92456
X31242Y86614
X-18288Y79248
X-11430Y77216
X8763Y57277
X-14256Y62198
X17780Y44196
X-20066Y61214
X13716Y56896
X-13970Y73406
M30